<svg width="17" height="20" viewBox="0 0 17 20" fill="none" xmlns="http://www.w3.org/2000/svg">
<path d="M7.67782 0.0943632C6.72423 0.295624 5.94315 0.717312 5.25311 1.40735C4.41932 2.24114 3.95929 3.18515 3.84429 4.32083C3.55677 7.17682 5.76585 9.62549 8.63621 9.62549C11.128 9.62549 13.1742 7.7806 13.4281 5.29839C13.5383 4.20104 13.2748 3.10848 12.671 2.17406C12.3787 1.72362 11.6647 1.024 11.2143 0.746064C10.1552 0.0847788 8.86143 -0.150024 7.67782 0.0943632ZM9.42208 1.81466C10.7351 2.1501 11.6599 3.28099 11.7366 4.64189C11.7653 5.22172 11.6743 5.66736 11.4107 6.21364C11.1328 6.78867 10.6009 7.32058 10.0259 7.59851C9.53229 7.8381 9.18248 7.91477 8.61225 7.91477C7.75449 7.90998 7.06446 7.62726 6.45109 7.01389C5.78501 6.35261 5.48312 5.57153 5.53583 4.64189C5.58375 3.83685 5.88085 3.17557 6.45588 2.60533C7.2178 1.84341 8.35348 1.54152 9.42208 1.81466Z" fill="white"/>
<path d="M7.51978 10.7324C4.99444 11.0583 2.6464 12.8409 1.49634 15.2991C0.835058 16.7175 0.49004 18.6631 0.791931 19.2429C0.926104 19.5016 1.16091 19.7364 1.41967 19.8706L1.66406 20H8.61234H15.5606L15.8002 19.8706C16.0877 19.7221 16.2554 19.5496 16.4088 19.2573C16.6436 18.8068 16.5094 17.5226 16.1021 16.2863C15.1246 13.3057 12.5753 11.111 9.6426 10.7276C9.20654 10.6749 7.97022 10.6749 7.51978 10.7324ZM9.30238 12.4048C11.5737 12.6444 13.5911 14.288 14.4393 16.5882C14.6022 17.0194 14.8179 17.9203 14.8179 18.1503V18.2989H8.6363H2.45473V18.1503C2.45473 18.0736 2.50744 17.7766 2.56973 17.4938C3.32686 14.1922 6.13492 12.0742 9.30238 12.4048Z" fill="white"/>
</svg>
