<svg width="156" height="121" viewBox="0 0 156 121" fill="none" xmlns="http://www.w3.org/2000/svg">
<g clip-path="url(#clip0_25_2361)">
<path fill-rule="evenodd" clip-rule="evenodd" d="M126.275 0.5C127.799 0.5 129.034 1.73508 129.034 3.25862V65.2213C129.034 78.7972 122.148 91.4464 110.746 98.8155L77.9993 119.98L45.2525 98.8155C33.8507 91.4464 26.9648 78.7972 26.9648 65.2213V3.25862C26.9648 1.73508 28.1999 0.5 29.7235 0.5H126.275ZM120.758 7.39655H35.2407C33.7172 7.39655 32.4821 8.63163 32.4821 10.1552V63.7236C32.4821 74.8132 38.0349 85.1661 47.2731 91.3007L77.9993 111.704L108.726 91.3007C117.964 85.1661 123.517 74.8132 123.517 63.7236V10.1552C123.517 8.63163 122.281 7.39655 120.758 7.39655Z" fill="#D8DFDF"/>
<path fill-rule="evenodd" clip-rule="evenodd" d="M109.724 21.1897V60.781C109.724 68.2766 105.961 75.2717 99.7074 79.4035L77.9995 93.7455L56.2917 79.4035C50.0378 75.2717 46.2754 68.2766 46.2754 60.781V21.1897H109.724Z" fill="#1C2127" stroke="#4E5659" stroke-width="4"/>
<path fill-rule="evenodd" clip-rule="evenodd" d="M77.9986 50.189C82.1883 50.189 85.5848 46.785 85.5848 42.5859C85.5848 38.3867 82.1883 34.9827 77.9986 34.9827C73.8088 34.9827 70.4124 38.3867 70.4124 42.5859C70.4124 46.785 73.8088 50.189 77.9986 50.189ZM72.9475 52.7234L77.9986 57.1586L83.045 52.7234C88.6374 52.7234 93.171 57.257 93.171 62.8495V66.7068H62.8262V62.8448C62.8262 57.2549 67.3577 52.7234 72.9475 52.7234Z" fill="#5ED3F0"/>
<path d="M154.196 54.2931L148.344 48.4412L142.492 54.2931L148.344 60.145L154.196 54.2931Z" fill="#5ED3F0"/>
<path d="M13.5062 54.2931L7.6543 48.4412L1.80238 54.2931L7.6543 60.145L13.5062 54.2931Z" fill="#5ED3F0"/>
</g>
<defs>
<clipPath id="clip0_25_2361">
<rect width="154.483" height="120" fill="white" transform="translate(0.757812 0.5)"/>
</clipPath>
</defs>
</svg>
