<svg width="30" height="31" viewBox="0 0 30 31" fill="none" xmlns="http://www.w3.org/2000/svg">
<g clip-path="url(#clip0_0_2452)">
<path d="M15 30.5C23.2843 30.5 30 23.7843 30 15.5C30 7.21573 23.2843 0.5 15 0.5C6.71573 0.5 0 7.21573 0 15.5C0 23.7843 6.71573 30.5 15 30.5Z" fill="#0D1E30"/>
<g filter="url(#filter0_d_0_2452)">
<path d="M14.7418 6.18135C15.1908 5.94979 15.7393 6.4851 15.5011 6.92666C15.3615 7.28666 14.8355 7.38229 14.5674 7.1076C14.2833 6.8451 14.3761 6.32385 14.7418 6.18041V6.18135ZM9.90896 6.69322C10.1818 6.5826 10.5277 6.82822 10.4996 7.12166C10.5277 7.43854 10.134 7.67291 9.85552 7.52197C9.48708 7.38135 9.52927 6.7926 9.90896 6.69322ZM19.8071 7.53041C19.3805 7.47979 19.313 6.81979 19.7227 6.68666C20.0415 6.53479 20.334 6.82072 20.3808 7.11791C20.3133 7.37104 20.0977 7.60354 19.8071 7.53041ZM11.0086 8.71635C11.4652 8.43229 12.1158 8.8551 12.0455 9.37729C12.0221 9.90322 11.3115 10.2088 10.9102 9.8526C10.5221 9.57322 10.5811 8.93197 11.0086 8.71635ZM17.9743 9.01822C18.1777 8.5026 19.0027 8.48572 19.2343 8.98822C19.464 9.37916 19.1818 9.86385 18.774 9.99697C18.233 10.0963 17.7202 9.52072 17.9743 9.01822ZM14.1596 9.96791C14.1549 9.52354 14.5655 9.19354 14.994 9.1626C15.279 9.21885 15.5883 9.33791 15.7102 9.6201C15.938 10.0101 15.7355 10.5454 15.3258 10.7245C15.1383 10.8276 14.9152 10.7892 14.7108 10.777C14.3986 10.627 14.1352 10.3298 14.1596 9.96791ZM6.97271 10.6148C7.3899 10.3617 7.9524 10.821 7.79396 11.2673C7.70771 11.6526 7.18083 11.8092 6.8799 11.5635C6.55833 11.3329 6.60896 10.7788 6.97365 10.6138L6.97271 10.6148ZM22.4058 10.6129C22.7593 10.3429 23.3433 10.6532 23.3002 11.092C23.3246 11.4923 22.8193 11.7951 22.4686 11.5888C22.0824 11.4173 22.0421 10.8323 22.4058 10.6138V10.6129ZM16.1808 11.4107C16.764 11.2045 17.4577 11.451 17.7896 11.9638C18.2283 12.5892 17.9958 13.5417 17.3143 13.9007C16.6093 14.3254 15.579 13.9663 15.3174 13.1901C15.0221 12.4963 15.4533 11.6282 16.1799 11.4107H16.1808ZM12.7561 11.4792C13.403 11.1792 14.274 11.4304 14.5861 12.081C14.9536 12.7148 14.6696 13.597 14.0124 13.9242C13.3543 14.2926 12.4252 14.0132 12.1074 13.3335C11.7502 12.6754 12.0671 11.782 12.7561 11.4792ZM9.32771 12.6313C9.3774 12.2217 9.77021 11.9545 10.1668 11.9263C10.3736 11.9482 10.5669 12.0395 10.715 12.1855C10.8632 12.3314 10.9574 12.5233 10.9824 12.7298C10.9543 13.1517 10.6233 13.5623 10.1696 13.5604C9.6699 13.6026 9.23208 13.1132 9.32771 12.6313ZM19.4546 12.0163C19.9674 11.7229 20.679 12.1495 20.6565 12.7288C20.6911 13.3429 19.9036 13.7751 19.3936 13.4151C18.863 13.1151 18.9043 12.2713 19.4546 12.0163ZM11.364 14.1792C11.9621 14.017 12.6483 14.2945 12.9418 14.8363C13.2633 15.382 13.1321 16.1395 12.6324 16.5407C11.9902 17.1276 10.808 16.8913 10.4668 16.0907C10.074 15.3567 10.5511 14.3723 11.363 14.1782L11.364 14.1792ZM17.858 14.1763C18.4402 14.0123 19.1246 14.2326 19.4377 14.7548C19.8521 15.352 19.6543 16.2435 19.0383 16.6279C18.3915 17.0751 17.3921 16.8407 17.0358 16.1413C16.6046 15.4185 17.0386 14.3967 17.858 14.1763ZM7.50802 14.857C8.02552 14.6648 8.59927 15.2263 8.38927 15.7317C8.26177 16.191 7.60271 16.3617 7.2624 16.0223C6.86396 15.7035 7.01115 14.9957 7.50802 14.857ZM21.5415 15.5901C21.5317 15.3837 21.6039 15.1819 21.7422 15.0284C21.8806 14.875 22.0739 14.7824 22.2802 14.7707C22.6346 14.827 22.9796 15.1082 22.9515 15.4879C22.9843 15.9895 22.3702 16.3298 21.9352 16.0945C21.7318 15.9923 21.6277 15.787 21.5415 15.5901ZM4.96271 15.1063C5.27396 14.9723 5.65927 15.2376 5.58802 15.5779C5.57115 15.9632 4.99271 16.1123 4.78083 15.7898C4.59333 15.5657 4.70583 15.2217 4.96271 15.1054V15.1063ZM24.6024 15.0979C24.8218 14.9451 25.1743 15.0548 25.2605 15.307C25.4077 15.5826 25.1377 15.9595 24.8227 15.9135C24.3802 15.9529 24.2377 15.2901 24.6024 15.0979ZM13.0552 16.9476C13.8746 16.7385 14.7558 17.4107 14.7615 18.2413C14.814 19.0804 13.9458 19.8238 13.1077 19.6307C12.459 19.5276 11.9499 18.9126 11.9715 18.2685C11.9696 17.6517 12.4421 17.0779 13.0552 16.9476ZM16.3008 16.9467C17.1324 16.7179 18.0399 17.4023 18.0268 18.2517C18.0708 19.0748 17.2299 19.7938 16.4086 19.6298C15.6352 19.5323 15.0652 18.697 15.2808 17.9582C15.3896 17.467 15.8077 17.0676 16.3008 16.9457V16.9467ZM10.0421 17.4576C10.6177 17.361 11.1577 17.992 10.9243 18.5301C10.7536 19.1038 9.90615 19.2585 9.53115 18.7907C9.0924 18.3407 9.42052 17.5195 10.0421 17.4576ZM19.5615 17.4829C20.0752 17.271 20.7052 17.7079 20.6658 18.2563C20.6865 18.8592 19.9083 19.2754 19.4068 18.9229C18.8377 18.607 18.9418 17.676 19.5615 17.4829ZM22.2221 20.1079C22.0215 19.7395 22.3861 19.251 22.8033 19.3195C23.0096 19.3157 23.1549 19.476 23.2871 19.611C23.3143 19.8295 23.3602 20.0901 23.1755 20.2579C22.9252 20.5701 22.358 20.481 22.2221 20.1079ZM6.97083 19.4217C7.3599 19.1676 7.91958 19.5473 7.83146 19.9935C7.78458 20.3901 7.27833 20.616 6.94552 20.391C6.5874 20.1876 6.60052 19.6073 6.97083 19.4217ZM14.6518 20.2495C15.1608 20.0292 15.8096 20.4651 15.7608 21.0163C15.7983 21.6257 14.9968 22.0476 14.499 21.682C13.9458 21.3679 14.0386 20.4435 14.6518 20.2495ZM11.0949 21.066C11.528 20.842 12.1093 21.2292 12.0699 21.7073C12.083 22.0992 11.6949 22.4329 11.3011 22.3748C10.9758 22.3682 10.764 22.0804 10.659 21.8076C10.6646 21.5104 10.7893 21.1795 11.0949 21.067V21.066ZM18.3005 21.0735C18.7468 20.8017 19.3805 21.1917 19.3383 21.7017C19.3496 22.236 18.6333 22.5773 18.218 22.2267C17.8168 21.952 17.8655 21.292 18.3005 21.0735ZM19.554 24.1204C19.3552 23.826 19.5886 23.4707 19.9102 23.4032C20.1699 23.4548 20.4446 23.647 20.3893 23.9413C20.3518 24.3417 19.7574 24.4635 19.554 24.1213V24.1204ZM9.60615 23.8645C9.6849 23.6301 9.87615 23.3985 10.1565 23.4595C10.5643 23.4876 10.6852 24.0932 10.328 24.2798C10.0074 24.4926 9.63427 24.201 9.60615 23.8645ZM14.4061 24.1335C14.484 23.7867 14.9386 23.6189 15.2386 23.8026C15.4374 23.887 15.4955 24.1045 15.5461 24.2901C15.5194 24.3865 15.4944 24.4834 15.4711 24.5807C15.3483 24.7232 15.1899 24.8667 14.9855 24.862C14.6058 24.906 14.2627 24.4832 14.4052 24.1335H14.4061Z" fill="black"/>
</g>
<path d="M14.7418 6.18135C15.1908 5.94979 15.7393 6.4851 15.5011 6.92666C15.3615 7.28666 14.8355 7.38229 14.5674 7.1076C14.2833 6.8451 14.3761 6.32385 14.7418 6.18041V6.18135ZM9.90896 6.69322C10.1818 6.5826 10.5277 6.82822 10.4996 7.12166C10.5277 7.43854 10.134 7.67291 9.85552 7.52197C9.48708 7.38135 9.52927 6.7926 9.90896 6.69322ZM19.8071 7.53041C19.3805 7.47979 19.313 6.81979 19.7227 6.68666C20.0415 6.53479 20.334 6.82072 20.3808 7.11791C20.3133 7.37104 20.0977 7.60354 19.8071 7.53041ZM11.0086 8.71635C11.4652 8.43229 12.1158 8.8551 12.0455 9.37729C12.0221 9.90322 11.3115 10.2088 10.9102 9.8526C10.5221 9.57322 10.5811 8.93197 11.0086 8.71635ZM17.9743 9.01822C18.1777 8.5026 19.0027 8.48572 19.2343 8.98822C19.464 9.37916 19.1818 9.86385 18.774 9.99697C18.233 10.0963 17.7202 9.52072 17.9743 9.01822ZM14.1596 9.96791C14.1549 9.52354 14.5655 9.19354 14.994 9.1626C15.279 9.21885 15.5883 9.33791 15.7102 9.6201C15.938 10.0101 15.7355 10.5454 15.3258 10.7245C15.1383 10.8276 14.9152 10.7892 14.7108 10.777C14.3986 10.627 14.1352 10.3298 14.1596 9.96791ZM6.97271 10.6148C7.3899 10.3617 7.9524 10.821 7.79396 11.2673C7.70771 11.6526 7.18083 11.8092 6.8799 11.5635C6.55833 11.3329 6.60896 10.7788 6.97365 10.6138L6.97271 10.6148ZM22.4058 10.6129C22.7593 10.3429 23.3433 10.6532 23.3002 11.092C23.3246 11.4923 22.8193 11.7951 22.4686 11.5888C22.0824 11.4173 22.0421 10.8323 22.4058 10.6138V10.6129ZM16.1808 11.4107C16.764 11.2045 17.4577 11.451 17.7896 11.9638C18.2283 12.5892 17.9958 13.5417 17.3143 13.9007C16.6093 14.3254 15.579 13.9663 15.3174 13.1901C15.0221 12.4963 15.4533 11.6282 16.1799 11.4107H16.1808ZM12.7561 11.4792C13.403 11.1792 14.274 11.4304 14.5861 12.081C14.9536 12.7148 14.6696 13.597 14.0124 13.9242C13.3543 14.2926 12.4252 14.0132 12.1074 13.3335C11.7502 12.6754 12.0671 11.782 12.7561 11.4792ZM9.32771 12.6313C9.3774 12.2217 9.77021 11.9545 10.1668 11.9263C10.3736 11.9482 10.5669 12.0395 10.715 12.1855C10.8632 12.3314 10.9574 12.5233 10.9824 12.7298C10.9543 13.1517 10.6233 13.5623 10.1696 13.5604C9.6699 13.6026 9.23208 13.1132 9.32771 12.6313ZM19.4546 12.0163C19.9674 11.7229 20.679 12.1495 20.6565 12.7288C20.6911 13.3429 19.9036 13.7751 19.3936 13.4151C18.863 13.1151 18.9043 12.2713 19.4546 12.0163ZM11.364 14.1792C11.9621 14.017 12.6483 14.2945 12.9418 14.8363C13.2633 15.382 13.1321 16.1395 12.6324 16.5407C11.9902 17.1276 10.808 16.8913 10.4668 16.0907C10.074 15.3567 10.5511 14.3723 11.363 14.1782L11.364 14.1792ZM17.858 14.1763C18.4402 14.0123 19.1246 14.2326 19.4377 14.7548C19.8521 15.352 19.6543 16.2435 19.0383 16.6279C18.3915 17.0751 17.3921 16.8407 17.0358 16.1413C16.6046 15.4185 17.0386 14.3967 17.858 14.1763ZM7.50802 14.857C8.02552 14.6648 8.59927 15.2263 8.38927 15.7317C8.26177 16.191 7.60271 16.3617 7.2624 16.0223C6.86396 15.7035 7.01115 14.9957 7.50802 14.857ZM21.5415 15.5901C21.5317 15.3837 21.6039 15.1819 21.7422 15.0284C21.8806 14.875 22.0739 14.7824 22.2802 14.7707C22.6346 14.827 22.9796 15.1082 22.9515 15.4879C22.9843 15.9895 22.3702 16.3298 21.9352 16.0945C21.7318 15.9923 21.6277 15.787 21.5415 15.5901ZM4.96271 15.1063C5.27396 14.9723 5.65927 15.2376 5.58802 15.5779C5.57115 15.9632 4.99271 16.1123 4.78083 15.7898C4.59333 15.5657 4.70583 15.2217 4.96271 15.1054V15.1063ZM24.6024 15.0979C24.8218 14.9451 25.1743 15.0548 25.2605 15.307C25.4077 15.5826 25.1377 15.9595 24.8227 15.9135C24.3802 15.9529 24.2377 15.2901 24.6024 15.0979ZM13.0552 16.9476C13.8746 16.7385 14.7558 17.4107 14.7615 18.2413C14.814 19.0804 13.9458 19.8238 13.1077 19.6307C12.459 19.5276 11.9499 18.9126 11.9715 18.2685C11.9696 17.6517 12.4421 17.0779 13.0552 16.9476ZM16.3008 16.9467C17.1324 16.7179 18.0399 17.4023 18.0268 18.2517C18.0708 19.0748 17.2299 19.7938 16.4086 19.6298C15.6352 19.5323 15.0652 18.697 15.2808 17.9582C15.3896 17.467 15.8077 17.0676 16.3008 16.9457V16.9467ZM10.0421 17.4576C10.6177 17.361 11.1577 17.992 10.9243 18.5301C10.7536 19.1038 9.90615 19.2585 9.53115 18.7907C9.0924 18.3407 9.42052 17.5195 10.0421 17.4576ZM19.5615 17.4829C20.0752 17.271 20.7052 17.7079 20.6658 18.2563C20.6865 18.8592 19.9083 19.2754 19.4068 18.9229C18.8377 18.607 18.9418 17.676 19.5615 17.4829ZM22.2221 20.1079C22.0215 19.7395 22.3861 19.251 22.8033 19.3195C23.0096 19.3157 23.1549 19.476 23.2871 19.611C23.3143 19.8295 23.3602 20.0901 23.1755 20.2579C22.9252 20.5701 22.358 20.481 22.2221 20.1079ZM6.97083 19.4217C7.3599 19.1676 7.91958 19.5473 7.83146 19.9935C7.78458 20.3901 7.27833 20.616 6.94552 20.391C6.5874 20.1876 6.60052 19.6073 6.97083 19.4217ZM14.6518 20.2495C15.1608 20.0292 15.8096 20.4651 15.7608 21.0163C15.7983 21.6257 14.9968 22.0476 14.499 21.682C13.9458 21.3679 14.0386 20.4435 14.6518 20.2495ZM11.0949 21.066C11.528 20.842 12.1093 21.2292 12.0699 21.7073C12.083 22.0992 11.6949 22.4329 11.3011 22.3748C10.9758 22.3682 10.764 22.0804 10.659 21.8076C10.6646 21.5104 10.7893 21.1795 11.0949 21.067V21.066ZM18.3005 21.0735C18.7468 20.8017 19.3805 21.1917 19.3383 21.7017C19.3496 22.236 18.6333 22.5773 18.218 22.2267C17.8168 21.952 17.8655 21.292 18.3005 21.0735ZM19.554 24.1204C19.3552 23.826 19.5886 23.4707 19.9102 23.4032C20.1699 23.4548 20.4446 23.647 20.3893 23.9413C20.3518 24.3417 19.7574 24.4635 19.554 24.1213V24.1204ZM9.60615 23.8645C9.6849 23.6301 9.87615 23.3985 10.1565 23.4595C10.5643 23.4876 10.6852 24.0932 10.328 24.2798C10.0074 24.4926 9.63427 24.201 9.60615 23.8645ZM14.4061 24.1335C14.484 23.7867 14.9386 23.6189 15.2386 23.8026C15.4374 23.887 15.4955 24.1045 15.5461 24.2901C15.5194 24.3865 15.4944 24.4834 15.4711 24.5807C15.3483 24.7232 15.1899 24.8667 14.9855 24.862C14.6058 24.906 14.2627 24.4832 14.4052 24.1335H14.4061Z" fill="white"/>
</g>
<defs>
<filter id="filter0_d_0_2452" x="3.6875" y="5.62549" width="22.6143" height="20.7396" filterUnits="userSpaceOnUse" color-interpolation-filters="sRGB">
<feFlood flood-opacity="0" result="BackgroundImageFix"/>
<feColorMatrix in="SourceAlpha" type="matrix" values="0 0 0 0 0 0 0 0 0 0 0 0 0 0 0 0 0 0 127 0" result="hardAlpha"/>
<feOffset dy="0.5"/>
<feGaussianBlur stdDeviation="0.5"/>
<feColorMatrix type="matrix" values="0 0 0 0 0 0 0 0 0 0 0 0 0 0 0 0 0 0 0.204257 0"/>
<feBlend mode="normal" in2="BackgroundImageFix" result="effect1_dropShadow_0_2452"/>
<feBlend mode="normal" in="SourceGraphic" in2="effect1_dropShadow_0_2452" result="shape"/>
</filter>
<clipPath id="clip0_0_2452">
<rect width="30" height="30" fill="white" transform="translate(0 0.5)"/>
</clipPath>
</defs>
</svg>
