<svg width="12" height="15" viewBox="0 0 12 15" fill="none" xmlns="http://www.w3.org/2000/svg">
<path fill-rule="evenodd" clip-rule="evenodd" d="M6 0.515869C9.31371 0.515869 12 3.20216 12 6.51587C12 8.62286 10.9139 10.4762 9.27111 11.5466L6 14.4841L2.86006 11.6297C1.14411 10.5738 0 8.67845 0 6.51587C0 3.20216 2.68629 0.515869 6 0.515869ZM6 2.01587C3.51472 2.01587 1.5 4.03059 1.5 6.51587C1.5 9.00115 3.51472 11.0159 6 11.0159C8.48528 11.0159 10.5 9.00115 10.5 6.51587C10.5 4.03059 8.48528 2.01587 6 2.01587ZM6 5.01587C6.82843 5.01587 7.5 5.68744 7.5 6.51587C7.5 7.3443 6.82843 8.01587 6 8.01587C5.17157 8.01587 4.5 7.3443 4.5 6.51587C4.5 5.68744 5.17157 5.01587 6 5.01587Z" fill="#FAFAFA"/>
</svg>
