<svg width="19" height="16" viewBox="0 0 19 16" fill="none" xmlns="http://www.w3.org/2000/svg">
<path d="M8.36331 0.0541035C6.73336 0.314416 5.49587 1.47581 5.11942 3.08974C5.01129 3.56231 4.98726 3.93075 5.03532 4.35927C5.14746 5.36848 5.53192 6.18546 6.20473 6.84225L6.47305 7.10256L5.54393 8.58434C4.63885 10.0261 4.61081 10.0661 4.49467 10.0541C4.13024 10.0181 3.63765 10.0381 3.43741 10.0982C2.50028 10.3865 1.88354 11.3396 2.02771 12.2768C2.1839 13.278 3.00489 13.9868 3.99808 13.9868C5.5199 13.9868 6.47705 12.3408 5.71614 11.0353C5.64806 10.9231 5.55595 10.787 5.51189 10.7389C5.42779 10.6508 5.42779 10.6508 5.50789 10.5187C5.55194 10.4466 5.98847 9.74573 6.48106 8.96479C6.97365 8.18386 7.41017 7.47501 7.45022 7.39491C7.54633 7.19867 7.54233 6.88229 7.44621 6.68606C7.40216 6.60596 7.27 6.45378 7.14986 6.35766C6.6813 5.9732 6.37293 5.54469 6.18871 5.02006C5.57597 3.28198 6.5972 1.43977 8.36732 1.07533C8.84389 0.975208 9.16428 0.975208 9.64485 1.07533C10.5339 1.25554 11.3109 1.86828 11.7033 2.68926C11.8755 3.04569 11.9516 3.35006 11.9997 3.82663C12.0517 4.34325 12.1599 4.47941 12.5123 4.47941C12.7125 4.47941 12.8687 4.3833 12.9488 4.21109C13.0129 4.07893 13.0169 4.02286 12.9728 3.63039C12.8687 2.66524 12.5163 1.87228 11.9116 1.24353C11.2788 0.582738 10.5299 0.194272 9.6048 0.0541035C9.14826 -0.017983 8.81986 -0.017983 8.36331 0.0541035ZM4.36252 11.0673C4.59479 11.1514 4.85911 11.4157 4.93921 11.644C5.07137 12.0365 4.98326 12.449 4.70693 12.7213C4.07016 13.346 2.99688 12.9015 2.99688 12.0124C2.99688 11.7201 3.06896 11.5319 3.2652 11.3236C3.54153 11.0273 3.96203 10.9271 4.36252 11.0673Z" fill="#5ED3F0"/>
<path d="M8.7641 2.02042C7.84299 2.18462 7.1862 2.81738 7.04203 3.68642C6.82177 4.97997 8.0152 6.18542 9.29273 5.96916C9.52501 5.92911 9.58908 5.92911 9.62913 5.96916C9.65316 5.99719 10.1057 6.70604 10.6263 7.54305C11.151 8.38005 11.6355 9.12495 11.6996 9.19303C11.7677 9.26512 11.9039 9.35322 12 9.39327C12.1642 9.45735 12.1962 9.45735 12.4045 9.39727C12.5286 9.36123 12.7409 9.28914 12.873 9.22907C13.4177 8.99679 14.0024 8.94874 14.6512 9.0849C15.7365 9.30917 16.6215 10.1502 16.9179 11.2475C17.026 11.652 17.018 12.4169 16.9019 12.8294C16.6095 13.8386 15.8806 14.5755 14.8514 14.8959C14.6031 14.976 14.4629 14.992 14.0504 14.992C13.4497 14.992 13.2455 14.9439 12.6848 14.6876C12.4525 14.5795 12.2082 14.4914 12.1441 14.4914C11.9639 14.4914 11.7397 14.6636 11.6836 14.8478C11.5835 15.1762 11.7236 15.3604 12.2643 15.6167C12.9571 15.9451 13.646 16.0573 14.4029 15.9732C15.4001 15.865 16.2411 15.4686 16.8778 14.8038C17.5707 14.0829 17.9071 13.314 17.9952 12.2287C18.0392 11.704 17.9071 10.9632 17.6708 10.3945C17.4305 9.82178 16.8738 9.14497 16.3212 8.7485C15.9888 8.51221 15.4561 8.2559 15.0877 8.15979C14.2747 7.95154 13.4858 7.97156 12.7329 8.22787C12.5046 8.30797 12.3043 8.35602 12.2883 8.336C12.2723 8.31998 11.8518 7.64717 11.3512 6.84621L10.4461 5.39247L10.6263 5.12415C11.5074 3.8306 10.6824 2.12855 9.12453 2.02042C8.98035 2.01241 8.82016 2.01241 8.7641 2.02042ZM9.36882 3.05767C9.6011 3.14177 9.86542 3.40609 9.94551 3.63436C10.0777 4.02683 9.98957 4.43933 9.71323 4.71165C9.07647 5.3364 8.00318 4.89187 8.00318 4.0028C8.00318 3.71045 8.07527 3.52223 8.2715 3.31398C8.54784 3.01762 8.96834 2.9175 9.36882 3.05767Z" fill="#5ED3F0"/>
<path d="M1.72759 8.72441C1.54738 8.83254 1.03076 9.32913 0.838527 9.58144C0.377974 10.1782 0.105648 10.859 0.0295562 11.6159C-0.0144966 12.0083 -0.0104918 12.1365 0.0495803 12.549C0.185744 13.4941 0.498118 14.1469 1.13088 14.8037C1.78767 15.4845 2.63668 15.877 3.67393 15.9771C4.22659 16.0332 4.74321 15.9691 5.33192 15.7729C6.65751 15.3283 7.6507 14.1669 7.92703 12.7372L7.97509 12.4889H10.0055H12.04L12.2002 12.8173C12.4605 13.354 12.917 13.7705 13.4056 13.9186C13.738 14.0228 14.2786 14.0107 14.6231 13.8946C15.1677 13.7104 15.5842 13.3379 15.8165 12.8213C16.4893 11.3516 15.1837 9.73362 13.5898 10.066C13.2334 10.1421 13.1173 10.1942 12.8289 10.4064C12.5526 10.6107 12.3483 10.871 12.1841 11.2274L12.044 11.5278H9.8213C7.91501 11.5278 7.57861 11.5358 7.45446 11.5878C7.14609 11.716 7.07401 11.8401 6.9819 12.3888C6.81369 13.386 6.30108 14.1549 5.50012 14.6075C5.00352 14.8918 4.64309 14.9839 3.99832 14.9879C3.4016 14.9919 3.10124 14.9278 2.61666 14.6836C1.50332 14.1189 0.850541 12.8534 1.03076 11.6079C1.15491 10.7629 1.44325 10.2703 2.24421 9.53338C2.37237 9.41724 2.44045 9.31712 2.46047 9.22501C2.54057 8.8005 2.09604 8.49613 1.72759 8.72441ZM14.3748 11.0672C14.607 11.1513 14.8714 11.4156 14.9515 11.6439C15.0836 12.0364 14.9955 12.4489 14.7192 12.7212C14.0824 13.346 13.0091 12.9014 13.0091 12.0124C13.0091 11.72 13.0812 11.5318 13.2774 11.3235C13.5538 11.0272 13.9743 10.9271 14.3748 11.0672Z" fill="#5ED3F0"/>
</svg>
