<svg width="21" height="20" viewBox="0 0 21 20" fill="none" xmlns="http://www.w3.org/2000/svg">
<path d="M10.268 0.0427666C9.97222 0.148038 9.83687 0.258323 9.71656 0.488917L9.60127 0.69946L9.58623 5.61213L9.5762 10.5198L8.15754 9.11115C6.43811 7.39673 6.32281 7.32154 5.73129 7.62231C5.52074 7.72257 5.44555 7.79777 5.34529 8.00831C5.18989 8.3141 5.17987 8.54469 5.31521 8.81539C5.38038 8.95074 6.2025 9.80795 7.73145 11.3319C9.87196 13.4674 10.0725 13.6479 10.2931 13.708C10.4835 13.7581 10.5738 13.7581 10.7693 13.708C10.9848 13.6479 11.1854 13.4674 13.3259 11.3319C14.8548 9.80795 15.6769 8.95074 15.7421 8.81539C15.8775 8.54469 15.8674 8.3141 15.712 8.00831C15.6118 7.79777 15.5366 7.72257 15.326 7.62231C14.7345 7.32154 14.6192 7.39673 12.8998 9.11115L11.4811 10.5198L11.4711 5.61213L11.456 0.69946L11.3307 0.473879C11.1202 0.102921 10.6389 -0.0925827 10.268 0.0427666Z" fill="white"/>
<path d="M2.90042 1.2766C2.51443 1.33675 2.09334 1.49215 1.79758 1.67763C1.44166 1.90823 0.980471 2.42957 0.810031 2.7905C0.509255 3.42714 0.524294 3.04616 0.524294 10.6257C0.524294 18.2153 0.509255 17.8193 0.815044 18.4709C1.02057 18.9171 1.60709 19.5036 2.05324 19.7091C2.70492 20.0149 2.24874 19.9999 10.5251 19.9999C18.8014 19.9999 18.3453 20.0149 18.9969 19.7091C19.4431 19.5036 20.0296 18.9171 20.2351 18.4709C20.5409 17.8193 20.5259 18.2153 20.5259 10.6257C20.5259 3.03614 20.5409 3.43216 20.2351 2.78048C20.0296 2.33433 19.4431 1.74781 18.9969 1.54228C18.4355 1.2766 18.235 1.25153 16.8664 1.25153C15.6232 1.25153 15.6132 1.25153 15.3876 1.37686C14.9966 1.59241 14.8362 2.08869 15.0117 2.51479C15.1169 2.76544 15.2222 2.87572 15.4628 2.98601C15.6333 3.06621 15.7987 3.08125 16.6509 3.08125C17.874 3.08125 18.0996 3.12136 18.3753 3.40208C18.5357 3.55748 18.5959 3.67278 18.641 3.87329C18.7212 4.24926 18.7212 17.0021 18.641 17.3781C18.5608 17.7491 18.2751 18.0348 17.9041 18.115C17.5281 18.1952 3.52202 18.1952 3.14606 18.115C2.7751 18.0348 2.48936 17.7491 2.40915 17.3781C2.32895 17.0021 2.32895 4.24926 2.40915 3.87329C2.45427 3.67278 2.51443 3.55748 2.67484 3.40208C2.95055 3.12136 3.17613 3.08125 4.39929 3.08125C5.64249 3.08125 5.82797 3.01608 6.03851 2.51479C6.21397 2.08869 6.05355 1.59241 5.66254 1.37686C5.44198 1.25655 5.4119 1.25153 4.30905 1.24151C3.68745 1.24151 3.05582 1.25655 2.90042 1.2766Z" fill="white"/>
</svg>
