<svg width="30" height="31" viewBox="0 0 30 31" fill="none" xmlns="http://www.w3.org/2000/svg">
<g clip-path="url(#clip0_0_2820)">
<path d="M15 30.5C23.2843 30.5 30 23.7843 30 15.5C30 7.21573 23.2843 0.5 15 0.5C6.71573 0.5 0 7.21573 0 15.5C0 23.7843 6.71573 30.5 15 30.5Z" fill="#2E3148"/>
<path d="M15.3234 6.125C14.1094 6.125 13.125 10.5284 13.125 15.9594C13.125 21.3903 14.1094 25.7937 15.3234 25.7937C16.5366 25.7937 17.5209 21.3903 17.5209 15.9594C17.5209 10.5284 16.5366 6.125 15.3234 6.125ZM15.4753 25.2378C15.3366 25.4234 15.1969 25.2847 15.1969 25.2847C14.6381 24.6359 14.3587 23.4331 14.3587 23.4331C13.3809 20.2859 13.6134 13.5294 13.6134 13.5294C14.0728 8.16594 14.9091 6.89844 15.1931 6.61719C15.2222 6.58834 15.2606 6.57073 15.3014 6.56747C15.3423 6.56421 15.3829 6.57551 15.4162 6.59938C15.8287 6.89281 16.1756 8.11531 16.1756 8.11531C17.1975 11.9103 17.1047 15.4728 17.1047 15.4728C17.1975 18.5741 16.5928 22.0447 16.5928 22.0447C16.1269 24.6828 15.4753 25.2378 15.4753 25.2378Z" fill="white"/>
<path d="M23.6928 11.1726C23.0881 10.1188 18.7803 11.4566 14.0675 14.1594C9.35465 16.8622 6.03028 19.9063 6.63309 20.9601C7.23778 22.0138 11.5465 20.676 16.2593 17.9732C20.9722 15.2704 24.2975 12.2254 23.6937 11.1726H23.6928ZM7.18997 20.8147C6.95934 20.7866 7.01184 20.5954 7.01184 20.5954C7.29497 19.7891 8.19872 18.9472 8.19872 18.9472C10.4422 16.5332 16.4197 13.3729 16.4197 13.3729C21.3003 11.1022 22.8162 11.1979 23.2006 11.3029C23.2403 11.3138 23.2748 11.3384 23.298 11.3724C23.3212 11.4064 23.3315 11.4476 23.3272 11.4885C23.2803 11.9919 22.3897 12.9013 22.3897 12.9013C19.609 15.6772 16.4722 17.3713 16.4722 17.3713C13.8284 18.9951 10.5162 20.196 10.5162 20.196C7.99622 21.1035 7.18997 20.8147 7.18997 20.8147Z" fill="white"/>
<path d="M23.6512 21.026C24.2606 19.976 20.9447 16.9169 16.2469 14.1935C11.55 11.471 7.24311 10.1173 6.63467 11.1691C6.0253 12.2219 9.34217 15.2782 14.0409 18.0016C18.7406 20.7241 23.0428 22.0779 23.6512 21.026ZM7.03873 11.5751C6.9478 11.3613 7.13811 11.3098 7.13811 11.3098C7.97904 11.1504 9.16029 11.5132 9.16029 11.5132C12.3731 12.2444 18.1022 15.8332 18.1022 15.8332C22.5131 18.9194 23.19 20.2798 23.2912 20.6651C23.3015 20.7047 23.2974 20.7466 23.2797 20.7835C23.2621 20.8204 23.2319 20.8498 23.1947 20.8666C22.7353 21.0776 21.5025 20.7635 21.5025 20.7635C17.7056 19.7454 14.669 17.8807 14.669 17.8807C11.9409 16.4088 9.24279 14.1448 9.24279 14.1448C7.19248 12.4179 7.03967 11.576 7.03967 11.576L7.03779 11.5751H7.03873Z" fill="white"/>
<path d="M15.2194 16.8763C15.8583 16.8763 16.3763 16.3583 16.3763 15.7194C16.3763 15.0805 15.8583 14.5625 15.2194 14.5625C14.5805 14.5625 14.0625 15.0805 14.0625 15.7194C14.0625 16.3583 14.5805 16.8763 15.2194 16.8763Z" fill="white"/>
<path d="M19.6875 12.6875C20.2053 12.6875 20.625 12.2678 20.625 11.75C20.625 11.2322 20.2053 10.8125 19.6875 10.8125C19.1697 10.8125 18.75 11.2322 18.75 11.75C18.75 12.2678 19.1697 12.6875 19.6875 12.6875Z" fill="white"/>
<path d="M8.4375 14.5625C8.95527 14.5625 9.375 14.1428 9.375 13.625C9.375 13.1072 8.95527 12.6875 8.4375 12.6875C7.91973 12.6875 7.5 13.1072 7.5 13.625C7.5 14.1428 7.91973 14.5625 8.4375 14.5625Z" fill="white"/>
<path d="M14.0625 23C14.5803 23 15 22.5803 15 22.0625C15 21.5447 14.5803 21.125 14.0625 21.125C13.5447 21.125 13.125 21.5447 13.125 22.0625C13.125 22.5803 13.5447 23 14.0625 23Z" fill="white"/>
</g>
<defs>
<clipPath id="clip0_0_2820">
<rect width="30" height="30" fill="white" transform="translate(0 0.5)"/>
</clipPath>
</defs>
</svg>
