<svg width="154" height="124" viewBox="0 0 154 124" fill="none" xmlns="http://www.w3.org/2000/svg">
<g clip-path="url(#clip0_17_1625)">
<path d="M91.0117 92C113.103 92 131.012 74.0914 131.012 52C131.012 29.9086 113.103 12 91.0117 12C68.9203 12 51.0117 29.9086 51.0117 52C51.0117 74.0914 68.9203 92 91.0117 92Z" fill="#5ED3F0"/>
<path fill-rule="evenodd" clip-rule="evenodd" d="M68.5117 49.3015C73.6886 50.3652 80.3467 52.4245 85.3867 55.6625C91.3062 47.8363 101.939 40.515 113.512 34.5C102.522 45.1847 93.4287 57.309 87.2617 69.5C82.2912 62.5322 76.8612 56.0472 68.5117 49.3015Z" fill="white"/>
</g>
<rect x="45.0117" y="6" width="92" height="92" rx="46" stroke="url(#paint0_radial_17_1625)" stroke-width="12"/>
<path d="M9.46602 22.1443C8.96903 22.3367 8.88887 22.5451 7.91091 25.9118C7.41392 27.5631 6.99709 28.9419 6.96502 28.9739C6.93296 29.006 5.5542 29.4389 3.88686 29.9198C2.23556 30.4168 0.74458 30.8818 0.58426 30.978C-0.137183 31.3467 -0.18528 32.517 0.488067 32.9659C0.680452 33.0782 2.2035 33.5912 3.87083 34.0721C5.53817 34.5691 6.91692 34.986 6.94899 35.018C6.98105 35.0501 7.41392 36.4449 7.91091 38.1122C8.39187 39.7796 8.9049 41.3026 9.03316 41.495C9.46602 42.1683 10.4921 42.1683 10.941 41.495C11.0532 41.3026 11.5662 39.7796 12.0472 38.1122C12.5442 36.4449 12.977 35.0501 13.0091 35.018C13.0412 34.986 14.4199 34.5691 16.0873 34.0721C17.7546 33.5912 19.2776 33.0782 19.47 32.9659C20.1434 32.517 20.0953 31.3467 19.3738 30.978C19.2135 30.8818 17.7225 30.4168 16.0712 29.9198C14.4039 29.4389 13.0251 29.006 12.9931 28.9739C12.961 28.9419 12.5442 27.5631 12.0472 25.9118C11.0532 22.481 10.9891 22.3527 10.444 22.1443C9.97905 21.9519 9.93095 21.9519 9.46602 22.1443Z" fill="#5ED3F0"/>
<path d="M50.9085 109.286C50.7431 109.451 50.5326 109.842 50.4575 110.158C50.3673 110.473 50.0666 111.541 49.796 112.518L49.2999 114.307L47.0448 114.938C45.812 115.284 44.6544 115.645 44.474 115.735C43.8576 116.066 43.8576 116.953 44.474 117.284C44.6394 117.389 45.797 117.735 47.0448 118.08L49.2848 118.712L49.9163 120.967C50.262 122.2 50.6228 123.357 50.713 123.538C51.0588 124.154 51.9308 124.154 52.2766 123.538C52.3668 123.357 52.7276 122.2 53.0734 120.967L53.7048 118.712L55.9448 118.08C57.1926 117.735 58.3502 117.389 58.5156 117.284C59.132 116.953 59.132 116.066 58.5156 115.735C58.3352 115.645 57.1776 115.284 55.9448 114.938L53.6897 114.307L53.1936 112.518C52.923 111.541 52.6223 110.473 52.5321 110.158C52.3517 109.481 51.9158 109 51.4948 109C51.3294 109 51.0588 109.135 50.9085 109.286Z" fill="#5ED3F0"/>
<path d="M148.61 2.19043C148.499 2.30068 148.359 2.56126 148.309 2.77174C148.249 2.98221 148.048 3.69381 147.868 4.34528L147.537 5.53796L146.034 5.95891C145.212 6.18943 144.44 6.42997 144.32 6.4901C143.909 6.7106 143.909 7.30193 144.32 7.52243C144.43 7.59258 145.202 7.8231 146.034 8.05362L147.527 8.47457L147.948 9.97795C148.179 10.7998 148.419 11.5715 148.479 11.6918C148.71 12.1027 149.291 12.1027 149.522 11.6918C149.582 11.5715 149.822 10.7998 150.053 9.97795L150.474 8.47457L151.967 8.05362C152.799 7.8231 153.571 7.59258 153.681 7.52243C154.092 7.30193 154.092 6.7106 153.681 6.4901C153.561 6.42997 152.789 6.18943 151.967 5.95891L150.464 5.53796L150.133 4.34528C149.953 3.69381 149.752 2.98221 149.692 2.77174C149.572 2.32072 149.281 2 149 2C148.89 2 148.71 2.0902 148.61 2.19043Z" fill="#5ED3F0"/>
<defs>
<radialGradient id="paint0_radial_17_1625" cx="0" cy="0" r="1" gradientUnits="userSpaceOnUse" gradientTransform="translate(61.5117 47.5) rotate(3.36646) scale(76.6322)">
<stop stop-opacity="0.4"/>
<stop offset="1" stop-color="#5ED3F0" stop-opacity="0.7"/>
</radialGradient>
<clipPath id="clip0_17_1625">
<rect x="51.0117" y="12" width="80" height="80" rx="40" fill="white"/>
</clipPath>
</defs>
</svg>
