<svg width="30" height="31" viewBox="0 0 30 31" fill="none" xmlns="http://www.w3.org/2000/svg">
<g clip-path="url(#clip0_0_2276)">
<path d="M15 30.5C23.2843 30.5 30 23.7843 30 15.5C30 7.21573 23.2843 0.5 15 0.5C6.71573 0.5 0 7.21573 0 15.5C0 23.7843 6.71573 30.5 15 30.5Z" fill="#F7931A"/>
<path d="M21.5925 13.6438C21.8869 11.6788 20.3897 10.6222 18.3441 9.91719L19.0078 7.25469L17.3878 6.85156L16.7409 9.44375C16.3153 9.33688 15.8784 9.2375 15.4425 9.13812L16.0941 6.52906L14.4741 6.125L13.8103 8.78656C13.4578 8.70594 13.1109 8.62719 12.7753 8.54281L12.7772 8.53437L10.5422 7.97656L10.1109 9.70719C10.1109 9.70719 11.3138 9.98281 11.2884 9.99969C11.9447 10.1638 12.0628 10.5978 12.0431 10.9428L11.2875 13.9756C11.3325 13.9869 11.3906 14.0037 11.4563 14.0291L11.2847 13.9869L10.2253 18.2356C10.1447 18.4344 9.94125 18.7334 9.48188 18.62C9.49875 18.6434 8.30438 18.3266 8.30438 18.3266L7.5 20.1809L9.60938 20.7069C10.0013 20.8053 10.3856 20.9084 10.7634 21.005L10.0931 23.6975L11.7122 24.1006L12.3759 21.4381C12.8184 21.5572 13.2478 21.6678 13.6678 21.7728L13.0059 24.4241L14.6259 24.8272L15.2963 22.1403C18.06 22.6634 20.1375 22.4525 21.0122 19.9531C21.7172 17.9412 20.9775 16.7797 19.5234 16.0231C20.5828 15.7794 21.3797 15.0828 21.5925 13.6438ZM17.8894 18.8356C17.3897 20.8484 14.0006 19.76 12.9019 19.4872L13.7925 15.92C14.8913 16.1947 18.4134 16.7375 17.8894 18.8356ZM18.3909 13.6147C17.9344 15.4456 15.1144 14.5147 14.2003 14.2869L15.0066 11.0525C15.9206 11.2803 18.8672 11.705 18.3909 13.6147Z" fill="white"/>
</g>
<defs>
<clipPath id="clip0_0_2276">
<rect width="30" height="30" fill="white" transform="translate(0 0.5)"/>
</clipPath>
</defs>
</svg>
