<svg width="30" height="31" viewBox="0 0 30 31" fill="none" xmlns="http://www.w3.org/2000/svg">
<g clip-path="url(#clip0_0_2340)">
<path d="M14.9973 30.4947C23.2801 30.4947 29.9947 23.7801 29.9947 15.4973C29.9947 7.21454 23.2801 0.5 14.9973 0.5C6.71454 0.5 0 7.21454 0 15.4973C0 23.7801 6.71454 30.4947 14.9973 30.4947Z" fill="#F0B90B"/>
<path d="M15.0347 5.76001L17.4623 8.24626L11.3505 14.3421L8.92285 11.9144L15.0347 5.76001Z" fill="white" stroke="white"/>
<path d="M18.7241 9.44409L21.1518 11.9303L11.3505 21.7316L8.92285 19.3039L18.7241 9.44409Z" fill="white" stroke="white"/>
<path d="M7.66597 13.1282L10.1149 15.6144L7.66597 18.0687L5.23828 15.6144L7.66597 13.1282Z" fill="white" stroke="white"/>
<path d="M22.4077 13.1282L24.8354 15.6144L15.0341 25.4157L12.6064 22.988L22.4077 13.1282Z" fill="white" stroke="white"/>
</g>
<defs>
<clipPath id="clip0_0_2340">
<rect width="30" height="30" fill="white" transform="translate(0 0.5)"/>
</clipPath>
</defs>
</svg>
