<svg width="15" height="17" viewBox="0 0 15 17" fill="none" xmlns="http://www.w3.org/2000/svg">
<path d="M3.58392 0.0320911C3.50296 0.0619202 3.39643 0.13862 3.34956 0.202538C3.2686 0.313328 3.26007 0.390028 3.24729 1.20817L3.23451 2.09449L2.52289 2.12006C1.74736 2.14136 1.51726 2.1925 1.12097 2.41408C0.682076 2.66122 0.298572 3.14699 0.14091 3.66259C0.0684701 3.90548 0.064209 4.1995 0.064209 9.56429C0.064209 14.8993 0.0684701 15.2231 0.14091 15.4617C0.358229 16.1691 0.895134 16.706 1.59822 16.9233C1.84111 16.9957 2.13513 17 7.49992 17C12.8647 17 13.1587 16.9957 13.4016 16.9233C14.1047 16.706 14.6416 16.1691 14.8589 15.4617C14.9314 15.2231 14.9356 14.8993 14.9356 9.56429C14.9356 4.1995 14.9314 3.90548 14.8589 3.66259C14.7013 3.14699 14.3178 2.66122 13.8789 2.41408C13.4826 2.1925 13.2525 2.14136 12.4769 2.12006L11.7653 2.09449L11.7526 1.20817C11.7398 0.202538 11.7185 0.134359 11.3904 0.0278301C11.1773 -0.0403481 10.9344 0.0320911 10.8066 0.202538C10.7256 0.313328 10.7171 0.390028 10.7043 1.21669L10.6915 2.10727H7.49566H4.30406V1.27635C4.30406 0.377245 4.27423 0.21106 4.08248 0.0917473C3.93334 -0.00199699 3.74584 -0.027565 3.58392 0.0320911ZM13.2738 3.27483C13.7766 3.50919 13.8916 3.76486 13.8916 4.67249V5.30314H7.49992H1.10819V4.65118C1.10819 4.09297 1.12097 3.97792 1.19768 3.81173C1.31273 3.55606 1.47039 3.39414 1.72606 3.27483L1.93912 3.17256H7.49992H13.0607L13.2738 3.27483ZM4.55972 7.56155V8.75467H2.83396H1.10819V7.56155V6.36842H2.83396H4.55972V7.56155ZM9.37483 7.56155V8.75467H7.49992H5.62501V7.56155V6.36842H7.49992H9.37483V7.56155ZM13.8916 7.56155V8.75467H12.1659H10.4401V7.56155V6.36842H12.1659H13.8916V7.56155ZM4.55972 11.1622V12.5045H2.83396H1.10819V11.1622V9.81996H2.83396H4.55972V11.1622ZM9.37483 11.1622V12.5045H7.49992H5.62501V11.1622V9.81996H7.49992H9.37483V11.1622ZM13.8916 11.1622V12.5045H12.1659H10.4401V11.1622V9.81996H12.1659H13.8916V11.1622ZM4.55972 14.7629V15.956H3.2686C1.83259 15.956 1.70475 15.939 1.44908 15.6876C1.37238 15.6109 1.26159 15.4532 1.21046 15.3382C1.11671 15.1379 1.10819 15.074 1.10819 14.3453V13.5698H2.83396H4.55972V14.7629ZM9.37483 14.7629V15.956H7.49992H5.62501V14.7629V13.5698H7.49992H9.37483V14.7629ZM13.8916 14.3283C13.8916 15.2103 13.8533 15.3808 13.5891 15.6492C13.2993 15.939 13.2056 15.956 11.7312 15.956H10.4401V14.7629V13.5698H12.1659H13.8916V14.3283Z" fill="white" fill-opacity="0.6"/>
</svg>
