<svg width="16" height="16" viewBox="0 0 16 16" fill="none" xmlns="http://www.w3.org/2000/svg">
<path d="M0.98074 0.0333805C0.377723 0.21482 -0.0278463 0.865865 0.121574 1.41552C0.153593 1.53826 0.238976 1.73037 0.308349 1.8371C0.377723 1.94382 1.35963 2.95241 2.49629 4.08374C3.62761 5.21506 4.96706 6.56518 5.46868 7.08281L6.37588 8.02736L3.37146 11.0424C1.72251 12.7021 0.319022 14.1483 0.249648 14.2603C-0.0758742 14.81 0.105565 15.477 0.692573 15.8452C0.90603 15.9787 1.00209 16 1.27424 16C1.55174 16 1.64246 15.9733 1.88793 15.8079C2.05336 15.7012 3.43017 14.3617 5.08446 12.7074C6.68539 11.1065 8.01416 9.79372 8.04618 9.79372C8.0782 9.79372 9.40697 11.1065 11.0079 12.7074C12.6622 14.3617 14.039 15.7012 14.2044 15.8079C14.4499 15.9733 14.5406 16 14.8181 16C15.0903 16 15.1863 15.9787 15.3998 15.8452C15.9761 15.4824 16.1629 14.8206 15.8481 14.2763C15.7894 14.1749 14.3859 12.7288 12.7262 11.0638L9.71115 8.03804L10.6237 7.08815C11.1253 6.56518 12.4487 5.22573 13.5694 4.11042C14.69 2.9951 15.6773 1.98118 15.7573 1.86378C16.0615 1.43153 16.0668 0.945911 15.7787 0.508324C15.4798 0.0547266 14.8395 -0.126713 14.3432 0.108091C14.1991 0.172128 13.1478 1.18605 11.1146 3.2139C9.455 4.86286 8.07287 6.21831 8.04618 6.21831C8.01416 6.21831 6.65871 4.8842 5.0311 3.25659C3.40348 1.62364 1.97332 0.236165 1.85592 0.166792C1.59977 0.0120354 1.23155 -0.0413284 0.98074 0.0333805Z" fill="white"/>
</svg>
