<svg width="21" height="20" viewBox="0 0 21 20" fill="none" xmlns="http://www.w3.org/2000/svg">
<g clip-path="url(#clip0_17_1275)">
<path d="M18 15H10.5C9.12109 15 8 13.8789 8 12.5V2.5C8 1.12109 9.12109 0 10.5 0H15.9727C16.4688 0 16.9453 0.199219 17.2969 0.550781L19.9492 3.20312C20.3008 3.55469 20.5 4.03125 20.5 4.52734V12.5C20.5 13.8789 19.3789 15 18 15ZM3 5H6.75V6.875H3C2.65625 6.875 2.375 7.15625 2.375 7.5V17.5C2.375 17.8438 2.65625 18.125 3 18.125H10.5C10.8438 18.125 11.125 17.8438 11.125 17.5V16.25H13V17.5C13 18.8789 11.8789 20 10.5 20H3C1.62109 20 0.5 18.8789 0.5 17.5V7.5C0.5 6.12109 1.62109 5 3 5Z" fill="#5ED3F0"/>
</g>
<defs>
<clipPath id="clip0_17_1275">
<rect width="20" height="20" fill="white" transform="translate(0.5)"/>
</clipPath>
</defs>
</svg>
