<svg width="30" height="31" viewBox="0 0 30 31" fill="none" xmlns="http://www.w3.org/2000/svg">
<path d="M14.9946 0.500001C17.9618 0.498938 20.8626 1.3779 23.3302 3.02572C25.7978 4.67353 27.7212 7.01615 28.8572 9.75727C29.9931 12.4984 30.2906 15.5148 29.712 18.425C29.1334 21.3352 27.7047 24.0085 25.6066 26.1066C23.5085 28.2047 20.8352 29.6334 17.925 30.212C15.0148 30.7906 11.9984 30.4931 9.25727 29.3572C6.51615 28.2212 4.17353 26.2978 2.52572 23.8302C0.877905 21.3626 -0.00106197 18.4618 9.62912e-07 15.4946C9.62912e-07 11.5178 1.57979 7.70386 4.39182 4.89182C7.20386 2.07979 11.0178 0.500001 14.9946 0.500001Z" fill="#F5AC37"/>
<path d="M15.5477 16.5534H21.2446C21.3682 16.5534 21.4273 16.5534 21.4327 16.3975C21.4811 15.8163 21.4811 15.2321 21.4327 14.6508C21.4327 14.538 21.379 14.495 21.2553 14.495H9.91532C9.77559 14.495 9.73796 14.538 9.73796 14.6723V16.3384C9.73796 16.5534 9.73796 16.5534 9.96369 16.5534H15.5477ZM20.7985 12.5441C20.8147 12.5026 20.8147 12.4566 20.7985 12.4151C20.7038 12.2082 20.5904 12.0103 20.4599 11.8239C20.2638 11.5075 20.0311 11.2153 19.7666 10.9532C19.6426 10.7934 19.498 10.6507 19.3367 10.5287C18.5232 9.83768 17.5584 9.34793 16.5205 9.09907C15.9915 8.98009 15.4503 8.92417 14.9082 8.93247H9.89382C9.75409 8.93247 9.73796 8.98621 9.73796 9.10982V12.4366C9.73796 12.5763 9.73796 12.6139 9.91532 12.6139H20.7286C20.7286 12.6139 20.8254 12.6139 20.8415 12.5387L20.7985 12.5441ZM20.7985 18.5043C20.6395 18.4882 20.4792 18.4882 20.3202 18.5043H9.92607C9.78633 18.5043 9.73796 18.5043 9.73796 18.6924V21.9171C9.73796 22.0675 9.73796 22.1052 9.92607 22.1052H14.7254C14.9538 22.1203 15.1833 22.1059 15.408 22.0622C16.1049 22.0092 16.7908 21.8572 17.4449 21.6107C17.6817 21.5241 17.9102 21.4162 18.1274 21.2882H18.1919C19.3162 20.7072 20.2297 19.788 20.8039 18.6602C20.8039 18.6602 20.8738 18.5151 20.8039 18.4774L20.7985 18.5043ZM7.85154 23.8196V18.6387C7.85154 18.515 7.85154 18.4936 7.70643 18.4936H5.66953C5.55667 18.4936 5.51367 18.4936 5.51367 18.3484V16.5641H7.66344C7.78705 16.5641 7.83005 16.5641 7.83005 16.4083V14.6455C7.83005 14.5326 7.83005 14.5057 7.68494 14.5057H5.66953C5.55667 14.5057 5.51367 14.5057 5.51367 14.3553V12.7053C5.51367 12.6032 5.51367 12.5763 5.65878 12.5763H7.67419C7.81392 12.5763 7.85154 12.5763 7.85154 12.3936V7.34164C7.85154 7.19115 7.85154 7.15353 8.03965 7.15353H15.0479C15.5582 7.1757 16.0664 7.23317 16.5688 7.32552C17.6015 7.51262 18.5941 7.87624 19.5033 8.4004C20.1037 8.75524 20.6579 9.18308 21.1532 9.67414C21.5218 10.0601 21.8563 10.4773 22.1529 10.921C22.4482 11.3712 22.6933 11.8524 22.8838 12.356C22.8956 12.4188 22.9313 12.4747 22.9834 12.5117C23.0355 12.5488 23.1 12.5643 23.1633 12.5548H24.8455C25.0604 12.5548 25.0604 12.5548 25.0658 12.7591V14.2961C25.0658 14.4466 25.0121 14.4842 24.8616 14.4842H23.5878C23.4588 14.4842 23.4212 14.4842 23.432 14.6562C23.4803 15.2267 23.4803 15.8002 23.432 16.3707C23.432 16.5265 23.432 16.548 23.6093 16.548H25.0873C25.1518 16.6286 25.0873 16.7146 25.0873 16.8006C25.098 16.9096 25.098 17.0194 25.0873 17.1285V18.2625C25.0873 18.4237 25.0443 18.4667 24.8992 18.4667H23.1095C23.0499 18.4567 22.9888 18.4693 22.938 18.5021C22.8873 18.535 22.8507 18.5856 22.8354 18.644C22.4151 19.7424 21.7411 20.7257 20.8684 21.514C20.5578 21.8064 20.2293 22.0792 19.8849 22.3309C19.514 22.5459 19.1486 22.7716 18.7616 22.9489C18.0524 23.2663 17.3096 23.5025 16.5474 23.653C15.8238 23.782 15.0895 23.8414 14.3546 23.8303H7.85154V23.8196Z" fill="#FEFEFD"/>
</svg>
