<svg width="30" height="31" viewBox="0 0 30 31" fill="none" xmlns="http://www.w3.org/2000/svg">
<g clip-path="url(#clip0_0_2964)">
<path d="M15 30.5C23.2843 30.5 30 23.7843 30 15.5C30 7.21573 23.2843 0.5 15 0.5C6.71573 0.5 0 7.21573 0 15.5C0 23.7843 6.71573 30.5 15 30.5Z" fill="#008CE7"/>
<path d="M17.9334 8H11.1122L10.5478 11.1566L16.6997 11.1659C19.7288 11.1659 20.6278 12.2656 20.5988 14.0909C20.5856 15.0266 20.1778 16.6091 20.0053 17.1191C19.5394 18.4878 18.5794 20.0459 14.9813 20.0413L9.00188 20.0375L8.4375 23.1978H15.2409C17.64 23.1978 18.6619 22.9175 19.7409 22.4197C22.1353 21.3153 23.5613 18.95 24.1341 15.8628C24.9834 11.2691 23.9241 8 17.9325 8H17.9334Z" fill="white"/>
<path d="M14.8153 14.9188C15.0375 13.9953 15.1078 13.625 15.1078 13.625H8.12719C6.34219 13.625 6.08719 14.7875 5.9175 15.4906C5.69531 16.4103 5.625 16.7853 5.625 16.7853H12.6066C14.3906 16.7853 14.6456 15.6228 14.8153 14.9188Z" fill="white"/>
</g>
<defs>
<clipPath id="clip0_0_2964">
<rect width="30" height="30" fill="white" transform="translate(0 0.5)"/>
</clipPath>
</defs>
</svg>
