<svg width="30" height="31" viewBox="0 0 30 31" fill="none" xmlns="http://www.w3.org/2000/svg">
<g clip-path="url(#clip0_0_2580)">
<path d="M15 30.5C23.2843 30.5 30 23.7843 30 15.5C30 7.21573 23.2843 0.5 15 0.5C6.71573 0.5 0 7.21573 0 15.5C0 23.7843 6.71573 30.5 15 30.5Z" fill="#988430"/>
<path d="M14.9997 30.0192C23.0185 30.0192 29.519 23.5187 29.519 15.5C29.519 7.48121 23.0185 0.980713 14.9997 0.980713C6.98097 0.980713 0.480469 7.48121 0.480469 15.5C0.480469 23.5187 6.98097 30.0192 14.9997 30.0192Z" fill="#7A6A2A"/>
<path d="M15 29.7168C22.8517 29.7168 29.2168 23.3517 29.2168 15.5C29.2168 7.64827 22.8517 1.2832 15 1.2832C7.14827 1.2832 0.783203 7.64827 0.783203 15.5C0.783203 23.3517 7.14827 29.7168 15 29.7168Z" fill="#BA9F33"/>
<path fill-rule="evenodd" clip-rule="evenodd" d="M6.55775 13.9012L6.30388 13.6635L6.05001 13.4312L5.79614 13.1936L5.6719 13.0747L5.53686 12.9613L4.53758 12.0052L5.55847 12.9235L5.6773 13.0423C5.71603 13.0847 5.75753 13.1244 5.80154 13.1612L6.05541 13.3988C6.13643 13.4745 6.22286 13.5501 6.30388 13.6365C6.3849 13.7229 6.47132 13.7986 6.55775 13.8742V13.9012ZM2.1123 13.8526C2.1123 13.8526 3.33305 13.9768 3.92721 14.0632C4.52138 14.1497 6.20125 14.4035 6.20125 14.4035L2.1123 13.8526ZM2.1123 13.8526C2.4526 13.8796 2.7983 13.9174 3.13859 13.9552L3.64633 14.0038L3.90561 14.0362L4.15948 14.074L5.18036 14.2361L5.68811 14.3171L6.19585 14.4089L5.68811 14.3441L5.18036 14.2685L4.15948 14.1226L3.90561 14.0794L3.64633 14.047L3.13859 14.0038C2.7983 13.966 2.4526 13.9174 2.1123 13.8688V13.8526ZM6.07701 14.7222C6.07701 14.7222 4.77525 15.0517 4.33773 15.1759C3.90021 15.3002 2.59844 15.7161 2.59844 15.7161L6.07701 14.7438V14.7222Z" fill="#CFB66C"/>
<path fill-rule="evenodd" clip-rule="evenodd" d="M6.07675 14.7222C5.79047 14.8086 5.50419 14.8896 5.20711 14.9652L4.32126 15.1975L3.45702 15.4514L3.0303 15.5702L2.59277 15.689C2.73321 15.6404 2.87905 15.5918 3.02489 15.554L3.45702 15.4136L4.32126 15.1489L5.1963 14.9274L6.06054 14.7222H6.07675ZM2.78183 16.4939C2.92227 16.4398 4.57513 15.6728 4.94243 15.4946C5.13148 15.4028 5.68784 15.2029 5.68784 15.2029L2.78183 16.4939Z" fill="#CFB66C"/>
<path fill-rule="evenodd" clip-rule="evenodd" d="M2.78223 16.4939C2.90646 16.4453 3.02529 16.3912 3.14413 16.3318L3.50603 16.1644L4.22443 15.8187C4.4675 15.7053 4.69976 15.581 4.94823 15.473C5.07247 15.419 5.2021 15.3758 5.32634 15.3325L5.51539 15.2731L5.70985 15.2191C5.47218 15.3325 5.21831 15.4298 4.97524 15.5432C4.73217 15.6566 4.4891 15.7593 4.24604 15.8673L3.51143 16.1644L2.78223 16.4723V16.4939ZM2.93887 17.1691C2.93887 17.1691 4.43509 16.294 4.94823 16.0077C5.21831 15.8619 6.08795 15.4298 6.08795 15.4298L2.93887 17.1691Z" fill="#CFB66C"/>
<path fill-rule="evenodd" clip-rule="evenodd" d="M2.93848 17.1691L3.70549 16.7045L4.089 16.4723L4.48331 16.2454C4.61295 16.1644 4.73718 16.0888 4.87222 16.0185C4.93477 15.9769 5.00181 15.9425 5.07207 15.9159L5.27733 15.8133C5.54201 15.6837 5.81748 15.5486 6.09836 15.4352C5.83909 15.5972 5.55821 15.7323 5.30974 15.8781L4.91543 16.0888L4.52652 16.3102C4.39148 16.3858 4.26725 16.4615 4.13221 16.5317L3.7379 16.7477L2.93848 17.1799V17.1691ZM6.07676 15.6242L4.86142 16.5587C4.56433 16.791 3.67848 17.4283 3.67848 17.4283L6.07676 15.6242Z" fill="#CFB66C"/>
<path fill-rule="evenodd" clip-rule="evenodd" d="M11.4138 21.3768L10.9385 20.4747L11.214 19.3458L13.1855 18.5842L12.3483 16.8611L12.7642 15.1219L13.542 13.5608L15.9511 13.1827L17.7174 11.4974L21.5416 11.7891L22.2925 15.8727L20.8449 21.0149L20.0238 23.6778L16.6857 23.8021L15.1409 22.7326L13.3259 21.9764L11.4138 21.3768Z" fill="#E2CC85"/>
<path fill-rule="evenodd" clip-rule="evenodd" d="M17.2845 21.3445C16.8862 21.492 16.4596 21.5474 16.0368 21.5065C15.8099 21.204 14.2165 21.0582 14.2165 21.0582C14.0318 21.03 13.843 21.0603 13.6763 21.1446C13.3475 21.2398 13.0115 21.3085 12.6716 21.3499C12.3583 21.4255 12.0451 21.0204 11.8074 20.934C11.6187 20.8474 11.4379 20.7443 11.2672 20.6261L10.5921 20.5613L9.18226 19.9887L7.02165 17.8551L6.4815 18.768L6.29785 19.8969L6.94603 21.231L8.69072 22.8245L12.0937 23.6887L14.1138 23.0946L16.6417 22.0143L17.2845 21.3445Z" fill="#F1D789"/>
<path fill-rule="evenodd" clip-rule="evenodd" d="M5.17507 13.7986L5.60719 12.4914L6.12034 11.6434L7.7786 11.5029L7.28166 12.9559L5.89347 15.4244L6.47144 17.6228L5.45055 18.136L5.13726 17.6553L4.88339 16.5533L4.86719 15.3164L5.17507 13.7986Z" fill="#F4ECB4"/>
<path fill-rule="evenodd" clip-rule="evenodd" d="M7.02242 21.258L6.70373 20.8096C6.65443 20.6843 6.64132 20.5477 6.66592 20.4153C6.71454 20.2263 6.70914 20.2155 6.66592 20.1452C6.62271 20.075 6.43906 19.832 6.44986 19.6051C6.46067 19.3782 6.44986 19.3188 6.5903 19.1514C6.64045 19.0903 6.67659 19.019 6.69619 18.9425C6.71579 18.866 6.71837 18.7861 6.70373 18.7084L6.91439 18.8381L6.96301 18.7679C6.98578 18.7873 7.00426 18.8113 7.01728 18.8382C7.03029 18.8652 7.03756 18.8946 7.03863 18.9245C7.03863 18.7949 6.99001 18.1845 7.14666 18.0495C7.3033 17.9144 7.58958 18.6976 7.58958 18.6976L7.41673 17.5525L7.02242 16.4074L6.223 15.3271L6.17439 14.1496V14.0577C5.95976 14.3739 5.79235 14.7196 5.67745 15.084C5.60723 15.3865 5.78008 15.7592 5.74767 16.2021C5.71526 16.6451 5.67745 16.6019 5.78548 16.7747C5.89351 16.9475 6.15278 17.3149 6.05015 17.5633C5.94752 17.8118 5.65584 17.6281 5.65584 17.6281C5.62661 17.7193 5.5767 17.8025 5.51 17.8712C5.4908 17.7833 5.44995 17.7016 5.39117 17.6335C5.39445 17.6659 5.39445 17.6984 5.39117 17.7308C5.39117 17.7308 5.33715 17.5633 5.28854 17.3527C5.23992 17.142 5.12109 16.7045 5.05087 16.483C5.01846 16.5964 4.94824 16.9421 4.94824 16.9421L4.98605 17.4823L5.18591 18.2169L5.38036 18.6976L5.56401 19.2864L5.72606 19.6807L5.8611 19.9778L5.97453 20.6584L6.51468 21.2418L6.80636 21.3714L7.02242 21.2634V21.258Z" fill="#F3E19D"/>
<path fill-rule="evenodd" clip-rule="evenodd" d="M5.46133 12.729C5.22198 13.1495 5.05062 13.6053 4.95359 14.0794C4.80552 14.8405 4.7565 15.6175 4.80775 16.3912C4.85005 17.0451 4.95864 17.693 5.13184 18.325C5.3144 18.8835 5.54389 19.4256 5.81783 19.9454V19.913C5.73417 19.7547 5.66719 19.5882 5.61798 19.4161C5.55316 19.1568 5.52615 18.8759 5.46674 18.7139C5.39427 18.576 5.33111 18.4334 5.27768 18.2871C5.25653 18.0734 5.19802 17.8649 5.10483 17.6714C5.02601 17.5223 4.97824 17.3587 4.96439 17.1906C4.96439 16.8827 4.96439 16.5425 4.96439 16.2562C4.90336 15.9158 4.89063 15.5684 4.92658 15.2245C4.9698 14.9814 5.22367 14.2846 5.38031 13.7337C5.48294 13.3772 5.42352 13.0801 5.60718 12.7722C5.75848 12.528 5.87142 12.262 5.94207 11.9836C5.98528 11.8107 5.44513 12.729 5.44513 12.729H5.46133Z" fill="#F2E8B0"/>
<path fill-rule="evenodd" clip-rule="evenodd" d="M7.33568 12.4589C7.22535 12.4917 7.12381 12.549 7.0386 12.6264C6.94211 12.742 6.85196 12.8629 6.76853 12.9883C6.667 13.1591 6.58372 13.3402 6.52006 13.5284C6.41743 13.7391 6.17976 14.0686 6.15275 14.1712C6.12575 14.2738 6.07173 14.8194 6.01231 15.0679C5.98898 15.2554 6.00931 15.4458 6.07173 15.6242L6.21217 15.5918C6.21721 15.7072 6.2677 15.816 6.35261 15.8943C6.48765 16.0131 6.51465 15.4892 6.51465 15.4892L7.0224 13.7445L7.80562 13.2043L7.88664 12.7776L7.34649 12.4481L7.33568 12.4589Z" fill="#F5EEC0"/>
<path fill-rule="evenodd" clip-rule="evenodd" d="M7.71855 13.253C7.52979 13.2644 7.34564 13.316 7.1784 13.4043C7.10818 13.4583 7.08118 13.5015 7.00015 13.5663C6.85428 13.6683 6.73258 13.801 6.64365 13.9552C6.52126 14.2172 6.44628 14.4989 6.42219 14.787C6.42219 14.9761 6.42219 15.1489 6.37898 15.2948C6.34816 15.4531 6.33547 15.6144 6.34117 15.7755C6.34117 16.0078 6.60584 16.132 6.62745 16.3967L7.12439 16.1428L7.56191 14.2955L8.55579 13.6743L8.01564 13.0424L7.71315 13.2476L7.71855 13.253Z" fill="#E6DB9D"/>
<path fill-rule="evenodd" clip-rule="evenodd" d="M5.09329 25.6872V25.6332C5.16351 25.012 5.17431 24.5529 5.22833 24.2396C5.29676 24.0021 5.33666 23.7573 5.34716 23.5104C5.32868 23.3001 5.32868 23.0887 5.34716 22.8784C5.38497 22.6191 5.63884 22.3383 5.62804 22.1006C5.6169 21.9602 5.55997 21.8274 5.466 21.7225L5.33096 21.5659C5.33096 21.5659 5.8279 21.2202 5.8225 19.8428H5.8495L6.09797 20.5396L6.26542 20.7448L6.9082 21.944L7.73463 22.7488L8.96077 23.5698L9.72239 24.3908L9.79801 26.6163L8.79333 27.918L8.63128 28.2151C7.32784 27.5586 6.13281 26.7061 5.08789 25.6872H5.09329Z" fill="#E5CB7A"/>
<path fill-rule="evenodd" clip-rule="evenodd" d="M8.15137 27.8208C8.17264 27.6417 8.26152 27.4775 8.39984 27.3617C8.43456 27.4086 8.45347 27.4654 8.45385 27.5238C8.5623 27.3511 8.70588 27.2032 8.87525 27.0896C9.04463 26.9761 9.236 26.8995 9.43693 26.8648C9.61225 26.8456 9.77942 26.7805 9.92165 26.6762C10.0639 26.5719 10.1761 26.432 10.2472 26.2706L11.6299 25.012L13.218 23.5536L15.1247 22.873L16.043 22.6462C16.0608 22.7153 16.0608 22.7878 16.043 22.8568C16.3526 22.8221 16.6572 22.7514 16.9504 22.6462C17.1071 22.5868 17.2529 22.5652 17.3339 22.6462C17.4338 22.7979 17.4812 22.9781 17.469 23.1593C17.658 23.1161 17.8741 22.9379 18.0469 22.9541C18.3224 22.9541 18.5871 23.3106 18.8518 23.3106C19.1164 23.3106 19.3919 23.0783 19.6458 22.9001C19.8024 22.792 20.0239 22.6624 20.1535 22.5706C20.456 22.3491 23.6375 21.3768 23.6375 21.3768L24.7556 21.447L24.9339 22.6462L24.8474 25.7629L24.815 25.7953L19.7376 28.4474L12.7156 29.5277C11.1392 29.2683 9.61791 28.7441 8.21619 27.9775L8.18378 27.8208H8.15137Z" fill="#D8C173"/>
<path fill-rule="evenodd" clip-rule="evenodd" d="M5.52051 26.087C5.61773 25.8817 5.70956 25.7035 5.72577 25.644C5.72577 25.7683 5.75817 26.0438 5.80679 26.3408L5.52051 26.087Z" fill="#F1D789"/>
<path fill-rule="evenodd" clip-rule="evenodd" d="M10.6572 29.0361L11.5701 28.7877H11.6457C11.6612 28.8008 11.6732 28.8175 11.6807 28.8363C11.6883 28.8551 11.6911 28.8755 11.6889 28.8957C11.8023 28.8309 11.8996 28.8417 11.9698 28.7985C12.0076 28.8741 12.04 29.1334 12.2021 29.1658C12.3016 29.1685 12.4007 29.1513 12.4935 29.1151C12.5862 29.0789 12.6708 29.0245 12.7422 28.9551C12.9088 28.8046 13.0897 28.6707 13.2824 28.5554C13.3364 28.6634 13.3904 28.7715 13.4336 28.8795C13.6335 28.7175 13.9738 28.0585 14.5139 28.0693C14.6619 27.7252 14.9056 27.4308 15.2161 27.2212C15.5361 26.9716 15.9421 26.8589 16.345 26.9079C16.4924 26.7173 16.676 26.5576 16.8852 26.438C16.9533 26.4714 17.0281 26.4888 17.1039 26.4888C17.1798 26.4888 17.2546 26.4714 17.3227 26.438C17.5334 26.3408 17.771 25.9627 18.0843 25.8979C18.2533 25.8772 18.4243 25.9133 18.5704 26.0005C19.0328 25.538 19.5498 25.1335 20.1099 24.796C20.1099 24.7203 20.0397 24.4503 20.7743 23.8399C20.8175 23.8777 20.7743 23.9803 20.8175 23.9857C20.97 23.923 21.1121 23.8374 21.2388 23.7319C21.4874 23.5294 21.7639 23.3638 22.0598 23.2403C22.3302 23.1847 22.6116 23.2269 22.8538 23.3592C22.887 23.3326 22.9258 23.3142 22.9673 23.3051C23.0425 23.2962 23.1167 23.2799 23.1887 23.2565C23.2199 23.4352 23.2199 23.618 23.1887 23.7967C23.2644 23.8386 23.344 23.873 23.4264 23.8993C23.3682 24.062 23.2719 24.2083 23.1455 24.326C23.2698 24.3854 23.286 24.4557 23.4696 24.5205C23.378 24.6424 23.295 24.7706 23.2211 24.904C23.1671 25.0174 22.9781 25.4927 22.8917 25.671C22.8127 25.8669 22.7226 26.0581 22.6216 26.2436C22.4906 26.4167 22.3461 26.5793 22.1895 26.7297C22.3353 26.6757 22.9241 26.4974 23.1725 26.4326L22.3623 27.6372C20.6262 28.6783 18.688 29.3373 16.677 29.5702C14.6661 29.8031 12.6286 29.6044 10.7004 28.9875L10.6572 29.0361Z" fill="#E0CD81"/>
<path fill-rule="evenodd" clip-rule="evenodd" d="M7.77832 13.1827C7.69251 13.18 7.60682 13.1909 7.52445 13.2151C7.48123 13.2421 7.73511 13.3015 7.81073 13.334C7.93447 13.3903 8.03676 13.485 8.10241 13.604C8.59205 13.8703 9.09915 14.1031 9.62023 14.3008L10.6627 14.2468L11.0246 13.7499L10.3386 13.1503L10.8032 11.7351L10.182 11.8431L8.64256 12.7452L7.87554 13.0423L7.76751 13.1827H7.77832Z" fill="#DFC57C"/>
<path fill-rule="evenodd" clip-rule="evenodd" d="M10.0684 13.6527C10.0842 13.6771 10.1058 13.6972 10.1312 13.7113C10.1566 13.7255 10.1851 13.7331 10.2142 13.7337C10.3038 13.7237 10.3945 13.733 10.4802 13.761C10.5659 13.7889 10.6447 13.8349 10.7111 13.8958C10.8462 14.0686 11.2513 14.625 11.2513 14.625L12.1695 14.9545L12.229 13.8742L11.2297 13.1774L10.0846 13.5987V13.6527H10.0684Z" fill="#E5CC7C"/>
<path fill-rule="evenodd" clip-rule="evenodd" d="M9.89034 14.0524C10.0166 14.0622 10.1435 14.0457 10.263 14.0038C10.4737 13.9282 10.8032 13.7607 10.9706 13.8255C11.1381 13.8903 11.1381 14.1982 11.365 14.4467C11.5054 14.6033 11.7593 14.5979 11.9051 14.7654C12.0509 14.9328 12.5425 14.8572 12.5425 14.8572L12.7261 15.8673L11.9807 16.8126L11.7323 18.0063H10.7168L9.79311 17.639L9.33398 16.5317L9.56625 15.4136L9.89034 14.0524Z" fill="#D2C281"/>
<path fill-rule="evenodd" clip-rule="evenodd" d="M11.8506 14.101H11.9262C11.8955 14.1267 11.873 14.1609 11.8615 14.1993C11.8499 14.2377 11.8499 14.2786 11.8614 14.317C11.8884 14.4521 11.964 14.6249 11.8992 14.733C11.9509 14.7907 11.9896 14.8588 12.0126 14.9328C12.0558 15.0517 12.0666 15.1597 12.3367 15.1813C12.2964 15.2021 12.2599 15.2294 12.2287 15.2623C12.3355 15.3541 12.43 15.4594 12.5096 15.5756C12.6301 15.5569 12.7493 15.5298 12.8661 15.4946L12.9201 15.527L13.0335 15.4784C13.0335 15.4784 12.9255 15.4406 13.0011 15.1813C13.0767 14.922 13.1415 14.9652 13.1469 14.949C13.1734 14.8316 13.1914 14.7125 13.201 14.5925C13.2337 14.4249 13.2554 14.2553 13.2658 14.0848L13.1902 13.2367L12.7526 12.9721L12.4231 12.6426L12.0883 13.2746L11.8668 13.496V14.0362L11.8938 14.0956L11.8506 14.101Z" fill="#E2C270"/>
<path fill-rule="evenodd" clip-rule="evenodd" d="M12.8984 13.3934C12.9444 13.5201 12.9806 13.6501 13.0065 13.7823C13.0116 13.7501 13.0116 13.7173 13.0065 13.6851C13.0065 13.6851 13.0713 14.02 13.0821 14.1551C13.0821 14.1551 13.1307 14.1551 13.1361 14.1551C13.1676 14.3024 13.1838 14.4527 13.1847 14.6034C13.2836 14.4351 13.4229 14.294 13.5898 14.1929C13.6873 14.1232 13.8005 14.0787 13.9193 14.0632C14.1084 14.0632 14.2434 14.1821 14.4595 14.1821C14.9512 14.0881 15.4217 13.905 15.8477 13.6419C16.0837 13.5863 16.3061 13.4834 16.5012 13.3394C16.6369 13.2164 16.7518 13.0723 16.8415 12.9127C17.009 12.6264 17.1818 12.3726 17.3817 12.3455C17.3009 12.3536 17.2194 12.3536 17.1386 12.3455C17.1847 12.3013 17.2334 12.2598 17.2845 12.2213C17.378 12.1226 17.5053 12.0628 17.641 12.0539C17.9164 12.0539 18.0515 12.0971 18.2081 12.0971C18.2927 12.0962 18.3766 12.0816 18.4566 12.0539C18.6208 12.1464 18.8089 12.1878 18.9967 12.1727C19.2639 12.1752 19.5307 12.1915 19.7962 12.2213C19.9906 12.2213 20.6334 12.1727 20.8171 12.1781C20.9367 12.1806 21.0545 12.2082 21.1628 12.2591L20.5686 10.5306L18.408 8.66711L17.1332 9.56377L15.1941 11.5731L13.3036 12.2699L12.9038 12.7182V13.3934H12.8984Z" fill="#CCB360"/>
<path fill-rule="evenodd" clip-rule="evenodd" d="M17.1497 12.3834L17.2847 12.2753C17.3811 12.1815 17.5072 12.1242 17.6412 12.1133C17.9167 12.1133 18.0572 12.1565 18.2138 12.1565C18.2966 12.1553 18.3787 12.1407 18.4569 12.1133C18.6223 12.2022 18.8098 12.2416 18.997 12.2267C19.3643 12.2267 19.6074 12.2645 19.8018 12.2807C19.9963 12.2969 20.6337 12.2267 20.8173 12.2321C20.9387 12.2391 21.0577 12.2684 21.1684 12.3185L20.8984 11.5407L20.5851 10.9466L19.6884 9.96889L18.6081 9.33151L18.2408 9.22888L17.2847 9.81765L16.4043 12.0971V12.5778L16.9715 12.8425C17.1173 12.6048 17.2739 12.4104 17.4198 12.3888C17.3424 12.3931 17.2649 12.3931 17.1875 12.3888L17.1497 12.3834Z" fill="#D5B457"/>
<path fill-rule="evenodd" clip-rule="evenodd" d="M17.1391 12.567C17.0527 12.567 16.9825 12.567 16.9609 12.4914C16.8907 12.2915 16.8312 12.2591 16.7718 12.2591C16.7124 12.2591 16.626 12.3887 16.5774 12.4049C16.5288 12.4211 16.4693 12.2537 16.4693 12.2537L16.4153 12.2267C16.22 12.3567 16.0389 12.5069 15.8752 12.675C15.6538 12.9429 15.4018 13.184 15.1244 13.3934C14.8226 13.4554 14.5179 13.5023 14.2115 13.5339C14.0535 13.5707 13.9058 13.6427 13.7794 13.7445C13.747 13.7769 13.8658 13.8093 13.882 13.8417C13.8982 13.8741 13.693 13.8417 13.6768 13.8904C13.6916 13.9708 13.717 14.0489 13.7524 14.1226C13.8042 14.0957 13.8614 14.0809 13.9198 14.0794C14.1089 14.0794 14.2439 14.1982 14.46 14.1982C14.952 14.1052 15.4226 13.9221 15.8482 13.6581C16.0839 13.6043 16.3062 13.5032 16.5017 13.361C16.6374 13.238 16.7523 13.0939 16.842 12.9343C16.9222 12.7968 17.0144 12.6666 17.1175 12.5454L17.1391 12.567Z" fill="#D2B257"/>
<path fill-rule="evenodd" clip-rule="evenodd" d="M9.40942 24.58C9.28961 24.3354 9.12255 24.1169 8.91789 23.9372C8.78825 23.8022 8.71263 23.6941 8.6262 23.6185C8.47458 23.4829 8.31198 23.36 8.14007 23.2512C7.81058 23.0081 7.45408 23.0081 7.1732 22.711C6.81903 22.2728 6.54144 21.7779 6.35217 21.2472C6.13071 20.6585 6.07129 20.4748 6.07129 20.4532C6.07129 20.4316 6.13071 20.3236 6.21173 20.3398C6.29275 20.356 6.28735 20.5072 6.30355 20.545C6.34558 20.6032 6.39065 20.6591 6.43859 20.7125C6.59449 20.8651 6.71602 21.0493 6.79509 21.2526C6.78034 21.1101 6.75323 20.9691 6.71407 20.8313C6.71407 20.8313 7.14079 21.1014 7.50269 21.3715C7.74198 21.5129 7.95416 21.6958 8.12927 21.9116C8.27329 22.1847 8.43196 22.4497 8.6046 22.7056C9.18175 22.9643 9.77542 23.1845 10.3817 23.3646L11.1703 23.9534L11.5592 24.8068L11.2567 25.2876L10.668 25.4172L9.72271 24.9905L9.42023 24.58H9.40942Z" fill="#D2B159"/>
<path fill-rule="evenodd" clip-rule="evenodd" d="M7.28711 21.6253C7.47008 21.8778 7.70372 22.0894 7.9731 22.2465C8.52321 22.5435 9.11234 22.7617 9.72319 22.8946C10.0588 22.9831 10.4028 23.0357 10.7495 23.0513C11.4764 23.0004 12.1986 22.8957 12.9101 22.738C13.3765 22.7034 13.8403 22.6384 14.2983 22.5435C14.8366 22.4116 15.3584 22.2195 15.8539 21.971C16.232 21.7927 16.5777 21.6631 16.8586 21.4957C17.1721 21.2605 17.5153 21.0679 17.8795 20.9231C17.8495 21.0363 17.7973 21.1423 17.7259 21.2351C17.6545 21.3278 17.5653 21.4054 17.4636 21.4632H17.8795C17.8795 21.4632 17.6472 21.6037 17.2367 21.9116C16.9828 22.106 16.6479 22.4517 16.3076 22.6462C16.0862 22.7866 15.8431 22.8838 15.6865 22.9703C15.3919 23.1132 15.125 23.3071 14.8978 23.5428H14.9951C14.8083 23.5714 14.6265 23.6259 14.4549 23.7049C14.3622 23.6959 14.2686 23.7051 14.1794 23.7319C14.066 23.7697 13.9148 23.8507 13.7635 23.8939C13.6697 23.9329 13.5671 23.946 13.4664 23.9317L13.5043 24.002C13.5043 24.002 13.218 24.002 13.1207 24.002H13.0721C13.0247 24.03 12.9739 24.0518 12.9209 24.0668H12.8345C12.8345 24.0668 12.9371 24.2612 12.9857 24.3531L12.4239 24.8068C12.4398 24.8341 12.4525 24.8631 12.4618 24.8932C12.4618 24.9472 12.4888 25.0228 12.505 25.0607C12.522 25.0926 12.5439 25.1218 12.5698 25.1471L12.3915 25.1849C12.2658 25.2235 12.1377 25.2542 12.008 25.2767H11.8514C11.8923 25.3554 11.9081 25.4448 11.8965 25.5327C11.8849 25.6206 11.8465 25.7029 11.7866 25.7683C11.5867 26.0059 11.5273 26.0383 11.4679 26.1896L11.3436 26.1464C11.2713 26.1186 11.2065 26.0742 11.1546 26.0167C11.1361 26.0938 11.1127 26.1696 11.0844 26.2436C11.0168 26.3865 10.9608 26.5346 10.9169 26.6865C10.8521 26.6163 10.7279 26.4704 10.5604 26.4975C10.393 26.5245 10.2633 26.7567 10.2309 26.8215C10.2309 26.7837 10.2309 26.7513 10.1931 26.8215C10.1225 27.242 9.90645 27.6243 9.58275 27.9018C9.58275 27.783 9.58275 27.5345 9.58275 27.4481C9.45346 27.5707 9.29846 27.663 9.12902 27.7182C8.78333 27.8694 8.83734 28.0207 8.83734 28.0207C8.83079 27.8436 8.88618 27.6698 8.99399 27.5291C9.18304 27.2753 9.29647 27.1564 9.29647 27.1348C9.29307 27.1161 9.28358 27.099 9.26946 27.0862C9.26946 27.0862 9.18304 26.9944 9.18304 26.9674C9.26991 26.9315 9.34435 26.8709 9.39715 26.7931C9.44995 26.7154 9.4788 26.6239 9.48012 26.5299C9.46979 26.35 9.39941 26.1788 9.28027 26.0437C9.28027 26.0437 9.3937 25.9411 9.3775 25.9141C9.36129 25.8871 9.21005 25.7845 9.18844 25.725C9.19164 25.6878 9.20076 25.6514 9.21545 25.617C9.22465 25.5743 9.22465 25.5301 9.21545 25.4874C9.19549 25.4019 9.16271 25.32 9.11822 25.2443H9.25866C9.22639 25.1731 9.20106 25.0989 9.18304 25.0228C9.18304 24.9472 9.12903 24.7582 9.10742 24.7204C9.15566 24.7288 9.20502 24.7288 9.25326 24.7204C9.25326 24.6825 9.16143 24.6231 9.20465 24.5745C9.2593 24.5908 9.30687 24.6251 9.33968 24.6717C9.31234 24.5597 9.24988 24.4594 9.16143 24.3855C9.21793 24.362 9.27851 24.3499 9.33968 24.3499C9.40086 24.3499 9.46144 24.362 9.51793 24.3855C9.59966 24.4339 9.66538 24.5053 9.70699 24.5907L9.92305 24.7528C10.1157 24.9234 10.3346 25.062 10.5712 25.1633C10.6884 25.1915 10.8106 25.1915 10.9277 25.1633C10.9809 25.1512 11.0318 25.1312 11.079 25.1039H11.133L11.0412 24.9526H11.133C11.133 24.9526 11.16 24.8878 11.0304 24.7636C11.0304 24.7312 11.0952 24.715 11.0952 24.6663C11.0434 24.6501 10.9981 24.6179 10.9655 24.5745C10.9655 24.5745 11.025 24.5043 11.0628 24.4881C11.1006 24.4719 10.9385 24.3369 10.8953 24.3206C10.9362 24.3077 10.9759 24.2915 11.0142 24.272C10.9211 24.2489 10.8306 24.2163 10.7441 24.1748C10.6759 24.115 10.6017 24.0625 10.5226 24.0182C10.4632 23.9912 10.3552 23.9804 10.312 23.9317C10.3622 23.9371 10.4129 23.9371 10.4632 23.9317H10.5334C10.5334 23.9317 10.5334 23.8777 10.6198 23.8669C10.6671 23.8608 10.7128 23.8462 10.7549 23.8237C10.6805 23.812 10.6121 23.7759 10.5604 23.7211C10.4928 23.6439 10.4101 23.5814 10.3174 23.5374C10.2525 23.5374 10.1391 23.5752 10.0689 23.5698C10.0179 23.568 9.96964 23.5467 9.93385 23.5104C9.55495 23.4771 9.19337 23.3365 8.89136 23.1053C8.56095 22.9149 8.26211 22.6744 8.00551 22.3923C7.94719 22.3708 7.89111 22.3437 7.83806 22.3113C7.6058 22.1925 7.29791 21.9386 7.29791 21.6091L7.28711 21.6253Z" fill="#C2A44D"/>
<path fill-rule="evenodd" clip-rule="evenodd" d="M16.2046 7.05746C16.2585 7.07838 16.3066 7.11169 16.3451 7.15469C16.3838 7.201 16.4128 7.25467 16.4303 7.31247C16.4478 7.37027 16.4534 7.431 16.4469 7.49103C16.4403 7.55106 16.4217 7.60915 16.3922 7.66181C16.3626 7.71446 16.3227 7.76061 16.2749 7.79747C16.3469 7.83247 16.4277 7.84561 16.5071 7.83528C16.3571 7.98383 16.2506 8.17064 16.1992 8.37543C16.1918 8.4157 16.1966 8.45727 16.2129 8.49481C16.2293 8.53235 16.2565 8.56414 16.2911 8.58609C16.1859 8.7243 16.129 8.89317 16.129 9.06682C16.2015 8.98441 16.281 8.9085 16.3667 8.83996C16.5571 8.69237 16.7555 8.55533 16.9609 8.42944C16.9527 8.47045 16.9527 8.51267 16.9609 8.55368C16.9609 8.55368 17.2741 8.29981 17.5334 8.41324C17.6523 8.46725 17.5982 8.6347 17.5982 8.6347C17.6457 8.61829 17.6966 8.61464 17.7459 8.62412C17.7952 8.6336 17.8411 8.65587 17.8791 8.68872C18.0096 8.86078 18.1287 9.04122 18.2356 9.22887C18.2734 9.28288 18.3653 9.38551 18.4625 9.54215C18.6072 9.75629 18.7302 9.98427 18.8298 10.2227C18.8298 10.0985 18.8676 9.90406 19.2295 10.0283C19.6789 10.2049 20.0583 10.5236 20.3098 10.9357C20.6501 11.4759 20.7365 12.0485 20.9094 12.2699C21.0807 12.4851 21.2057 12.7334 21.2767 12.9991C21.2751 13.6591 21.3771 14.3153 21.5792 14.9437C21.6818 14.5386 21.8384 13.6311 21.8384 13.6311L21.9248 12.8371L22.0221 10.3632L19.4402 8.20258L17.4254 6.73877L16.1074 6.86841L16.1938 7.05206L16.2046 7.05746Z" fill="#CAA13E"/>
<path fill-rule="evenodd" clip-rule="evenodd" d="M21.0119 10.7629C21.0119 10.7629 20.9741 10.5252 20.3691 10.1147C19.7642 9.70415 19.2888 9.70956 18.8513 9.36926C18.5164 9.09918 18.1707 8.48341 17.9384 8.28896C17.783 8.05639 17.6951 7.78527 17.6846 7.50574L18.43 6.87916L19.5373 5.25871L20.4718 4.21082L20.9201 4.82119L21.5467 5.55579L21.8923 7.025L22.022 9.18561L21.0119 10.7629Z" fill="#B59544"/>
<path fill-rule="evenodd" clip-rule="evenodd" d="M21.7625 13.3178C21.78 12.991 21.7398 12.6637 21.6436 12.3509C21.4816 11.854 21.1359 10.9681 20.9738 10.6386C20.9036 10.2713 20.9738 10.2443 21.0279 10.2011C21.1521 10.1204 21.2585 10.0149 21.3402 9.89134C21.422 9.76775 21.4775 9.62866 21.5032 9.48271C21.5322 9.34131 21.6053 9.21277 21.7121 9.11568C21.8189 9.01858 21.9538 8.95796 22.0974 8.94256L22.3782 8.7373L22.7942 9.7852L23.1615 10.7359L23.2749 11.4597L23.3613 12.0808L23.1615 13.388L22.1784 14.2739L21.7625 13.3178Z" fill="#C89D3A"/>
<path fill-rule="evenodd" clip-rule="evenodd" d="M8.04797 27.9018L8.10199 27.8532C8.11307 27.8308 8.12571 27.8091 8.1398 27.7884C8.20378 27.7651 8.27159 27.7541 8.33965 27.756C8.43957 27.79 8.54276 27.8135 8.64754 27.8262C8.87539 27.7602 9.11305 27.7346 9.34974 27.7506C9.83047 27.837 9.94931 28.1719 10.2302 28.3556C10.2909 28.3955 10.359 28.4228 10.4304 28.4358C10.5019 28.4487 10.5753 28.4472 10.6461 28.4312H10.7163C10.7163 28.4312 10.8135 28.3286 10.8622 28.334C10.9108 28.3394 10.9702 28.415 11.0296 28.4204C11.2089 28.3998 11.3893 28.389 11.5698 28.388C11.6108 28.3999 11.6481 28.422 11.6784 28.4522C11.7086 28.4824 11.7307 28.5198 11.7426 28.5608C11.7579 28.6074 11.7599 28.6574 11.7485 28.705C11.737 28.7527 11.7126 28.7963 11.6778 28.8309C11.5411 28.9315 11.4301 29.0629 11.3537 29.2144L11.4617 29.3062C10.2619 28.9975 9.10713 28.5345 8.02637 27.9288L8.04797 27.9018Z" fill="#CEB052"/>
<path fill-rule="evenodd" clip-rule="evenodd" d="M20.9736 23.0513C21.1563 22.8085 21.3258 22.556 21.4814 22.2951C21.611 22.0358 21.0655 18.7733 21.0655 18.7733L22.1458 15.1759V14.0037C22.1685 13.4834 22.2281 12.9654 22.324 12.4535C22.4753 12.7236 22.9452 13.0477 23.0478 13.2205C23.1645 12.6389 23.2242 12.0474 23.2261 11.4542C23.3594 11.9589 23.4622 12.4712 23.5339 12.9883L23.75 13.9227L24.0309 14.9166L24.3442 15.9699L24.5224 16.7045L24.6305 16.8827L24.7223 17.1852L24.8087 17.5147L25.0518 18.2925L25.1976 18.9245L25.311 20.0804C25.3348 20.1692 25.3528 20.2594 25.3651 20.3505C25.3723 20.4242 25.3723 20.4983 25.3651 20.572C25.3845 20.7224 25.3918 20.8741 25.3867 21.0257C25.3926 21.1134 25.3803 21.2014 25.3505 21.2841C25.3208 21.3669 25.2742 21.4426 25.2138 21.5064C25.0767 21.8104 24.9927 22.1356 24.9654 22.4679L24.6953 22.2897C24.7242 22.1296 24.6995 21.9644 24.6251 21.8197C24.5764 21.7318 24.5008 21.6618 24.4094 21.62C24.318 21.5782 24.2157 21.5668 24.1173 21.5875C23.9407 21.6085 23.7689 21.6596 23.6096 21.7387C23.4637 21.8984 23.3007 22.0415 23.1234 22.1654C22.8563 22.2756 22.574 22.3448 22.2862 22.3707C22.0366 22.448 21.8026 22.5687 21.5948 22.7272C21.4021 22.8511 21.1998 22.9594 20.9898 23.0513H20.9736Z" fill="#CCA847"/>
<path fill-rule="evenodd" clip-rule="evenodd" d="M20.9736 28.3556H21.0168C22.7428 27.5472 24.2893 26.4011 25.5649 24.9851C25.5649 24.4936 25.5325 23.9912 25.5109 23.8022C25.4677 23.4079 25.5109 23.0081 25.5109 22.7705C25.5109 22.5328 25.3705 21.5929 25.311 21.3445C25.2839 21.2019 25.2097 21.0726 25.1004 20.9772C25.0296 21.1672 24.9806 21.3648 24.9545 21.5659C24.9545 21.6794 24.9275 21.9548 24.9275 22.0251C24.9275 22.0953 24.9275 21.9765 24.9275 21.9602C24.9079 22.0211 24.8845 22.0806 24.8573 22.1385C24.8573 22.1385 24.8573 22.0413 24.8573 22.0143C24.8573 21.9873 24.8141 22.0143 24.8195 21.944C24.8138 21.9083 24.8138 21.8718 24.8195 21.836C24.754 21.9528 24.7118 22.0812 24.6953 22.2141C24.6413 22.4842 24.6413 22.4896 24.6197 22.5166C24.598 22.5436 24.5062 22.6408 24.5008 22.6787C24.4954 22.7165 24.5926 22.8083 24.598 22.8461C24.6035 22.8839 24.5116 23.1864 24.4846 23.3268C24.4576 23.4673 24.4846 23.7319 24.436 23.867C24.3874 24.002 24.3874 24.0668 24.3064 24.1155L24.4252 24.1479C24.4524 24.2643 24.456 24.3851 24.4355 24.5029C24.4151 24.6208 24.3712 24.7333 24.3064 24.8339C24.2495 24.9216 24.1882 25.0063 24.1227 25.0877C23.9778 25.2277 23.8749 25.4055 23.8256 25.6009C23.8226 25.5613 23.8226 25.5216 23.8256 25.482C23.8256 25.482 23.5772 25.7791 23.4691 25.9466C23.3611 26.114 23.1396 26.1518 23.0856 26.2004C23.06 26.2327 23.0423 26.2705 23.0338 26.3108C23.0254 26.3511 23.0265 26.3929 23.037 26.4327C22.9884 26.4327 22.8966 26.4597 22.8372 26.6488C22.8009 26.7583 22.7234 26.8494 22.6211 26.9026C22.5188 26.9528 22.4095 26.9874 22.297 27.0053C22.3618 27.0053 22.3834 27.0053 22.4104 27.0431C22.2945 27.1528 22.1635 27.2455 22.0215 27.3185C21.8766 27.4124 21.7636 27.548 21.6974 27.7075C21.6786 27.756 21.6472 27.7987 21.6063 27.8309C21.5655 27.8632 21.5168 27.884 21.4652 27.8911C21.5138 27.8911 21.584 27.9883 21.6218 28.0099C21.5055 28.0256 21.3974 28.0787 21.3139 28.1612C21.1465 28.3016 21.0871 28.3394 21.0114 28.3556H20.9736Z" fill="#C39D3C"/>
<path fill-rule="evenodd" clip-rule="evenodd" d="M17.5928 29.4791C17.6876 29.4145 17.789 29.3602 17.8953 29.3171C18.2012 29.2203 18.5134 29.1445 18.8297 29.0902C18.9791 29.0293 19.1325 28.9788 19.2889 28.939V29.0632C18.7374 29.2341 18.1765 29.373 17.609 29.4791H17.5928Z" fill="#D2BA6B"/>
<path fill-rule="evenodd" clip-rule="evenodd" d="M24.5768 19.5187C24.5338 19.7555 24.4612 19.986 24.3608 20.2047C24.2203 20.4694 24.0745 20.8367 24.0745 20.8367C24.0665 20.7541 24.0665 20.6708 24.0745 20.5882C23.8262 20.7269 23.5863 20.8802 23.3561 21.0473C23.2249 21.1571 23.1054 21.2802 22.9996 21.4146C23.0975 21.1599 23.1822 20.9003 23.2535 20.6368C22.758 21.025 22.2855 21.4416 21.8383 21.8846L20.5149 22.9649C20.3625 23.0474 20.2056 23.1213 20.045 23.1863C19.8181 23.2782 19.548 23.3646 19.3482 23.4402C19.4062 23.2938 19.4946 23.1612 19.6074 23.0513C19.8244 22.8399 20.0067 22.5956 20.1476 22.3275C20.2098 22.1733 20.2098 22.001 20.1476 21.8468C20.0828 21.8468 19.9315 21.8468 19.8289 21.8954C19.7502 21.928 19.6786 21.9757 19.6182 22.0358C19.6727 21.7409 19.754 21.4516 19.8613 21.1716C19.7371 21.1716 19.521 21.2148 19.521 21.2148C19.735 20.8786 20.0119 20.587 20.3366 20.3559C20.1789 20.3881 20.025 20.437 19.8775 20.5018C19.575 20.626 19.2455 20.8151 18.9971 20.9123C19.6441 20.0079 20.2098 19.0481 20.6877 18.0441C21.2603 16.7585 21.4764 16.4236 21.606 15.7377C21.6519 15.3053 21.6736 14.8707 21.6708 14.4359C21.7064 14.0625 21.7172 13.6872 21.7032 13.3124C22.1889 13.8203 22.4531 14.5003 22.4378 15.2029C22.3894 16.4897 21.9998 17.7406 21.3089 18.8273C21.4548 18.8705 21.8491 18.9191 22.211 18.2494C22.4208 17.888 22.6014 17.5105 22.7511 17.1204C22.757 17.1833 22.757 17.2466 22.7511 17.3095C23.1105 16.8508 23.3882 16.3337 23.5722 15.7809C23.711 16.2262 23.6977 16.7051 23.5343 17.1421C23.4586 17.4457 23.279 17.7132 23.0266 17.8983C23.1527 17.8671 23.273 17.816 23.3831 17.747C23.4155 17.8388 23.3831 17.9361 23.4695 17.9739C23.5559 18.0117 23.6154 18.0711 23.6262 18.1305C23.7029 18.0329 23.7699 17.928 23.826 17.8172C23.7859 18.3036 23.8022 18.793 23.8746 19.2756C23.989 19.2841 24.1027 19.2519 24.1956 19.1847C24.2885 19.1175 24.3547 19.0196 24.3824 18.9083C24.3014 19.1712 24.2921 19.4509 24.3554 19.7186C24.4271 19.6649 24.4907 19.6012 24.5444 19.5295L24.5768 19.5187Z" fill="#C0993A"/>
<path fill-rule="evenodd" clip-rule="evenodd" d="M18.2684 6.13919C18.1076 6.19779 17.9371 6.22528 17.766 6.22021C17.4905 6.22021 17.5662 6.11218 17.134 6.11218C16.4697 6.11218 14.147 6.49569 13.7365 6.49029C13.4718 6.49029 14.6331 6.60372 14.6331 6.60372L17.5932 6.64693L18.1873 6.59832L18.4088 6.14999L18.2684 6.13919Z" fill="#A88F33"/>
<path fill-rule="evenodd" clip-rule="evenodd" d="M10.5977 11.9242C10.3986 12.084 10.2174 12.2651 10.0576 12.4643C9.93161 12.6566 9.78881 12.8374 9.63086 13.0045C9.67208 13.0101 9.71387 13.0101 9.75509 13.0045C9.75911 13.0138 9.76117 13.024 9.76117 13.0342C9.76117 13.0444 9.75911 13.0545 9.75509 13.0639C9.78067 13.0606 9.80664 13.0633 9.831 13.0717C9.85536 13.0802 9.87745 13.0941 9.89553 13.1125C9.86623 13.1286 9.84057 13.1506 9.82016 13.1771C9.79975 13.2036 9.78503 13.234 9.77692 13.2665C9.7688 13.2989 9.76748 13.3327 9.77302 13.3657C9.77856 13.3987 9.79084 13.4302 9.80911 13.4582C9.84111 13.4986 9.88115 13.532 9.92671 13.5562C9.97227 13.5803 10.0224 13.5948 10.0738 13.5986C10.0738 13.5986 10.0306 13.7175 10.2034 13.7067C10.5267 13.6446 10.8531 13.5995 11.1811 13.5716C11.2734 13.5795 11.3621 13.6109 11.4387 13.6629C11.5153 13.715 11.5773 13.7858 11.6186 13.8687C11.7645 14.101 11.8887 14.1388 11.8887 14.1388C11.947 13.9651 11.9691 13.7812 11.9535 13.5986C12.0231 13.4267 12.0615 13.2438 12.0669 13.0585L11.9427 12.1294L11.4026 11.4326L10.6896 11.8323L10.6355 11.9674L10.5977 11.9242Z" fill="#E3C571"/>
<path d="M11.8244 12.6048C11.8225 12.6027 11.8206 12.6006 11.8187 12.5985C11.8185 12.5843 11.8204 12.57 11.8244 12.5562C11.8207 12.5722 11.8207 12.5888 11.8244 12.6048Z" fill="#D8B65B"/>
<path fill-rule="evenodd" clip-rule="evenodd" d="M18.4465 9.29906C18.3315 9.3328 18.2209 9.37994 18.117 9.4395C17.8685 9.56913 17.701 9.60695 17.6038 9.796C17.5499 9.90063 17.5152 10.014 17.5012 10.1309C17.5868 10.0918 17.6753 10.0593 17.7659 10.0337C17.8685 10.0337 17.9819 10.0337 17.9711 10.0337C17.9602 10.0635 17.9437 10.091 17.9225 10.1147C17.9225 10.1147 18.117 10.1147 18.1116 10.2011C18.1086 10.2891 18.0825 10.3748 18.0359 10.4496C18.0035 10.4982 17.8523 10.5684 17.8361 10.6224C17.8199 10.6764 17.8361 10.7413 17.8361 10.8331C17.7626 11.05 17.6386 11.2462 17.4742 11.4056C17.3262 11.5705 17.1975 11.7517 17.0907 11.9458C17.0135 11.7994 16.9467 11.6478 16.8908 11.4921L16.5883 11.6595L15.9888 9.57994V9.4395C16.0277 9.38542 16.0519 9.32213 16.059 9.25585C15.9672 9.22344 15.9564 9.20183 15.8375 9.0884C15.7209 8.94751 15.5801 8.82861 15.4216 8.7373C15.4029 8.69582 15.3735 8.66 15.3365 8.63345C15.2996 8.6069 15.2562 8.59056 15.2109 8.58606L14.9787 8.53204C15.0356 8.51714 15.0865 8.48508 15.1245 8.44022C15.0058 8.46704 14.8843 8.47973 14.7626 8.47803C14.6531 8.46594 14.5426 8.46594 14.4331 8.47803C14.3251 8.47803 14.1955 8.54285 14.1469 8.3754C14.0928 8.33219 13.9794 8.3754 13.8822 8.51044C13.785 8.64548 13.7471 8.76971 13.5635 8.82373C13.5485 8.90732 13.5193 8.98772 13.4771 9.06139C13.3997 9.16983 13.3149 9.27272 13.2232 9.36928C13.0449 9.58534 13.072 9.90943 12.7857 10.1957C12.4994 10.482 12.8343 9.4611 12.8343 9.4611L13.2988 8.3808L14.5844 7.07904L16.6207 6.9386L16.8206 8.0189L17.8145 8.3592L18.4465 9.32067V9.29906Z" fill="#D3AE4D"/>
<path fill-rule="evenodd" clip-rule="evenodd" d="M18.7706 9.53129L17.9118 8.29435L17.3122 7.83522C17.3122 7.83522 16.8855 7.0466 16.8531 7.01959C16.628 6.98079 16.4007 6.95554 16.1725 6.94397L16.2211 7.0628C16.276 7.08158 16.3247 7.11524 16.3616 7.16003C16.4003 7.20635 16.4293 7.26002 16.4468 7.31781C16.4643 7.37561 16.4699 7.43635 16.4634 7.49638C16.4568 7.55641 16.4382 7.61449 16.4086 7.66715C16.3791 7.71981 16.3392 7.76595 16.2913 7.80281C16.3633 7.83812 16.4442 7.85128 16.5236 7.84062C16.3736 7.98917 16.2671 8.17598 16.2157 8.38077C16.2083 8.42104 16.213 8.46262 16.2294 8.50016C16.2458 8.5377 16.273 8.56948 16.3076 8.59143C16.2024 8.72964 16.1455 8.89851 16.1455 9.07217C16.2166 8.9868 16.2962 8.90897 16.3832 8.8399C16.5668 8.69946 16.8099 8.53742 16.9773 8.43479C16.9692 8.4758 16.9692 8.51801 16.9773 8.55902C16.9773 8.55902 17.2852 8.30515 17.5499 8.41858C17.6687 8.4726 17.6147 8.64004 17.6147 8.64004C17.6622 8.62363 17.7131 8.61998 17.7624 8.62946C17.8117 8.63894 17.8576 8.66122 17.8956 8.69406C18.0261 8.86613 18.1452 9.04657 18.2521 9.23421C18.2899 9.28823 18.3817 9.39085 18.479 9.5475C18.6187 9.76001 18.7363 9.98625 18.8301 10.2227C18.8301 10.1255 18.8301 9.99042 19.0245 9.99042L18.7706 9.5367V9.53129Z" fill="#CAA13E"/>
<path fill-rule="evenodd" clip-rule="evenodd" d="M5.94135 13.0369C5.90185 12.8919 5.90185 12.739 5.94135 12.594C6.03468 12.3134 6.09805 12.0237 6.13041 11.7297C6.17346 11.3935 6.27203 11.0668 6.42209 10.7629L7.1999 10.4064L7.74006 10.5576L7.9021 11.2922L7.20531 11.6757C7.16889 11.8009 7.08573 11.9073 6.97304 11.9728C6.77859 12.1024 6.50851 12.2051 6.43289 12.3401C6.39551 12.4211 6.36829 12.5063 6.35187 12.594C6.29526 12.5837 6.23704 12.5866 6.18175 12.6025C6.12646 12.6184 6.07561 12.6469 6.03318 12.6858C5.9877 12.7328 5.95265 12.7888 5.93031 12.8502C5.90797 12.9117 5.89885 12.9771 5.90354 13.0423L5.94135 13.0369Z" fill="#F4EFC8"/>
<path fill-rule="evenodd" clip-rule="evenodd" d="M7.49715 12.8424C7.4477 12.8808 7.40869 12.9309 7.38372 12.9883C7.27285 12.6817 7.21619 12.3582 7.21628 12.0322C7.21628 11.6163 7.18387 11.4921 7.28109 11.3732C7.37832 11.2544 7.75102 11.0762 7.69701 10.8331C7.64299 10.59 7.42153 10.482 7.15686 10.5522C6.96781 10.6008 6.82196 11.0113 6.61671 11.2166C6.41145 11.4219 6.28181 11.3462 6.2332 11.4327C6.18459 11.5191 6.2332 11.6595 6.2332 11.7297C6.18934 11.8412 6.13124 11.9465 6.06035 12.043C5.75979 12.3783 5.53502 12.7744 5.40137 13.2043C5.40539 13.0401 5.42896 12.8769 5.47159 12.7182L5.40137 12.6588L5.63903 11.8702L5.79568 11.222L6.14137 10.1417L6.75715 9.03438L7.35131 8.37L7.96709 8.41321L8.04271 9.34227L8.39381 11.087L9.18243 11.9998L7.98869 12.7992L7.51876 12.8424H7.49715Z" fill="#EBCC73"/>
<path fill-rule="evenodd" clip-rule="evenodd" d="M7.86452 13.1719C7.86452 13.1719 7.7673 13.1989 7.72949 13.1719C7.69168 13.1449 7.65386 13.1287 7.67007 13.1071C7.68627 13.0855 7.74569 13.0423 7.74569 13.0207C7.74643 13.0121 7.74548 13.0036 7.74289 12.9954C7.7403 12.9873 7.73612 12.9797 7.7306 12.9732C7.72507 12.9667 7.71831 12.9613 7.71071 12.9574C7.7031 12.9535 7.6948 12.9511 7.68627 12.9504C7.62686 12.9504 7.61065 12.9774 7.61065 12.9774C7.58213 12.9544 7.54896 12.9378 7.51343 12.9288H7.59445C7.52655 12.9016 7.45593 12.8817 7.38379 12.8694C7.44321 12.8316 7.56204 12.729 7.63766 12.729C7.71328 12.729 7.7673 12.729 7.75109 12.675C7.73827 12.6455 7.71973 12.6189 7.69655 12.5966C7.67337 12.5744 7.64601 12.5569 7.61605 12.5453C7.61605 12.5183 7.65386 12.4751 7.61605 12.3563C7.59666 12.3216 7.58647 12.2826 7.58647 12.2428C7.58647 12.2031 7.59666 12.1641 7.61605 12.1294C7.61605 12.0916 7.69708 12.0268 7.72408 11.9836C7.75109 11.9404 7.7781 11.8863 7.82671 11.8593C7.88382 11.8275 7.94344 11.8004 8.00496 11.7783C8.09139 11.7513 8.16161 11.7135 8.21022 11.7513C8.22085 11.7632 8.22673 11.7786 8.22673 11.7945C8.22673 11.8105 8.22085 11.8258 8.21022 11.8377C8.31235 11.796 8.42678 11.796 8.52891 11.8377C8.7042 11.8965 8.88528 11.9364 9.06906 11.9566L9.1987 12.2212L8.32905 12.9666L7.97255 13.1449H7.90233L7.86452 13.1719Z" fill="#E5C66B"/>
<path fill-rule="evenodd" clip-rule="evenodd" d="M9.07414 11.9566C8.95929 12.0306 8.84924 12.1118 8.74464 12.1997C8.77705 12.1997 8.84187 12.2267 8.81486 12.2645C8.78786 12.3023 8.60961 12.4266 8.51238 12.5454C8.42264 12.6519 8.34475 12.7678 8.28011 12.8911C8.16491 13.0105 8.02723 13.106 7.875 13.172C8.10186 13.172 8.47457 12.9235 8.64201 12.9235C8.63897 12.9424 8.63982 12.9617 8.64449 12.9802C8.64917 12.9987 8.65758 13.0161 8.66921 13.0313C8.68084 13.0465 8.69545 13.0591 8.71213 13.0684C8.72882 13.0778 8.74723 13.0836 8.76625 13.0855C8.99315 13.1124 9.22198 13.0547 9.40903 12.9235C9.73852 12.7236 9.63049 12.5724 9.77093 12.4752C10.0356 12.3023 10.1382 12.1457 10.2841 12.0485C10.3521 11.9989 10.4266 11.959 10.5055 11.9296C10.5055 11.9296 10.5055 11.8594 10.5542 11.8648C10.5659 11.8672 10.577 11.8724 10.5864 11.8799C10.5958 11.8874 10.6032 11.897 10.6082 11.908C10.7817 11.7907 10.9791 11.7132 11.1861 11.6812C11.1951 11.6828 11.2042 11.6828 11.2131 11.6812C11.2131 11.6812 11.2131 11.6812 11.2401 11.6812C11.2671 11.6812 11.2726 11.7784 11.2942 11.8162C11.3158 11.854 11.4508 11.5623 11.4508 11.5623L11.6939 10.8655V10.1849L11.5048 10.2227L10.0464 10.8331L9.18217 11.7406L9.08494 11.9566H9.07414Z" fill="#E6BD62"/>
<path fill-rule="evenodd" clip-rule="evenodd" d="M13.218 8.81292C13.2963 8.79464 13.3711 8.76362 13.4394 8.72109C13.4122 8.84514 13.3608 8.96261 13.2882 9.06679C13.1967 9.19426 13.1172 9.32987 13.0505 9.4719C12.9921 9.67924 12.9218 9.88304 12.8399 10.0823C12.8848 10.0622 12.9319 10.0477 12.9803 10.0391C12.9238 10.0901 12.8763 10.1504 12.8399 10.2173C12.7844 10.3736 12.6827 10.5092 12.5482 10.6062C12.3053 10.7202 12.0842 10.8755 11.8946 11.0653C11.6515 11.33 11.3977 11.6649 11.2734 11.7837C11.3544 11.6323 11.4144 11.4706 11.4517 11.303C11.4548 11.1224 11.4675 10.9421 11.4895 10.7629C11.515 10.5173 11.5963 10.2808 11.7272 10.0715C11.9436 9.56811 12.1241 9.05008 12.2673 8.52124L12.9965 8.28357L13.218 8.82372V8.81292Z" fill="#B6933F"/>
<path fill-rule="evenodd" clip-rule="evenodd" d="M12.6877 8.36463C12.5676 8.54879 12.4782 8.7513 12.4231 8.96419C12.4034 9.09667 12.3908 9.23009 12.3853 9.36391C12.3638 9.44716 12.3638 9.53452 12.3853 9.61778C12.4606 9.49572 12.5644 9.39378 12.6877 9.32069C12.8596 9.23094 13.0208 9.12223 13.1685 8.9966C13.2781 8.82756 13.415 8.67789 13.5736 8.55368C13.4953 8.5333 13.416 8.51707 13.3359 8.50507C13.5315 8.34446 13.7372 8.19652 13.9517 8.06214C14.1547 7.87388 14.3862 7.71892 14.6377 7.60301C14.528 7.61114 14.4179 7.61114 14.3082 7.60301C14.3568 7.50038 14.5243 7.45177 14.6917 7.28432C14.8592 7.11688 14.5891 6.86841 14.5891 6.86841L13.3089 7.64623L12.6877 8.37543V8.36463Z" fill="#C49937"/>
<path fill-rule="evenodd" clip-rule="evenodd" d="M9.21484 7.78668L9.24725 7.55442L9.61456 6.97106L9.99266 5.93937V4.52957L9.96566 3.71394L10.0251 3.17919L10.0737 3.00635L10.1223 2.94153L10.4356 3.10357L10.8677 3.69234L10.9109 4.82666L10.4896 6.61456L9.29047 7.92172L9.21484 7.78668Z" fill="#DFC068"/>
<path fill-rule="evenodd" clip-rule="evenodd" d="M10.171 2.87671C10.171 2.87671 9.97651 2.87671 9.9387 3.68153C9.90089 4.48636 9.87388 4.89687 9.84687 5.30199C9.8185 5.5921 9.77523 5.88056 9.71724 6.16623C9.70419 6.42187 9.64945 6.67365 9.55519 6.91164C9.47214 7.12793 9.34525 7.32471 9.18249 7.4896C8.96336 7.66518 8.71706 7.80384 8.45328 7.90012C8.15611 7.92965 7.86389 7.99681 7.58364 8.09997C7.45024 8.15301 7.32761 8.22988 7.22174 8.32684C6.82561 8.70278 6.49838 9.14518 6.25487 9.634C5.86795 10.6855 5.57865 11.7704 5.39062 12.8749L5.48785 12.7129C5.52514 12.5014 5.60409 12.2994 5.72012 12.1187C5.93078 11.7406 5.87136 11.3139 6.16304 10.5901C6.28848 10.2668 6.43277 9.95118 6.59516 9.6448C6.8234 9.19441 7.14796 8.79977 7.54583 8.48888C7.89074 8.27049 8.27682 8.12525 8.68015 8.06216L9.33373 7.63004C9.33373 7.63004 9.44716 7.40858 9.5984 7.15471C9.87924 6.76177 10.0642 6.30856 10.1386 5.83134C10.1482 5.19006 10.1085 4.54898 10.0197 3.9138C10.0197 3.41146 10.0197 3.03875 10.144 2.94693C10.2682 2.8551 10.144 2.89291 10.144 2.89291L10.171 2.87671Z" fill="#A88F33"/>
<path fill-rule="evenodd" clip-rule="evenodd" d="M10.1712 6.68472C10.3433 6.25431 10.4841 5.81204 10.5925 5.36135C10.5925 5.23171 10.6627 5.10748 10.6735 5.00485C10.7487 4.62139 10.7487 4.22699 10.6735 3.84353C10.5796 3.60471 10.4402 3.38641 10.263 3.20075C10.1442 3.0279 10.0902 2.96308 10.1172 2.92527C10.1431 2.89511 10.1756 2.8712 10.212 2.8553C10.2485 2.8394 10.2881 2.83193 10.3278 2.83344C10.4256 2.836 10.5217 2.85894 10.6101 2.9008C10.6984 2.94265 10.7771 3.0025 10.841 3.07651C11.0039 3.37102 11.117 3.6904 11.1759 4.02178L11.3433 4.99405L11.743 6.21479L10.1874 6.69012L10.1712 6.68472Z" fill="#C99E3D"/>
<path fill-rule="evenodd" clip-rule="evenodd" d="M12.8771 5.95011C12.8277 5.96422 12.7753 5.96422 12.7259 5.95011C12.7303 5.98998 12.7236 6.03029 12.7064 6.06654C12.6892 6.1028 12.6623 6.13355 12.6286 6.15537C12.2771 6.14442 11.9252 6.15705 11.5753 6.19318C11.4239 6.15146 11.2879 6.06633 11.1842 5.94827C11.0806 5.83021 11.0137 5.68439 10.992 5.52879C10.9702 5.10055 10.9702 4.67147 10.992 4.24323C10.9217 3.74089 10.8029 3.62206 10.8029 3.46001C10.8029 3.29797 10.7759 3.25476 10.7759 3.15213C10.731 3.14704 10.6857 3.14704 10.6409 3.15213C10.6433 3.08985 10.6284 3.02811 10.5977 2.97388C10.7713 3.01739 10.9299 3.10696 11.0568 3.23315C11.1514 3.3083 11.2272 3.40447 11.2782 3.51403C11.46 3.66757 11.6151 3.85008 11.7374 4.05418C11.8616 4.30265 12.1101 5.13448 12.1641 5.23711C12.1994 5.32049 12.2487 5.39722 12.3099 5.46397C12.4504 5.63682 12.6556 5.9285 12.8879 5.97712L12.8771 5.95011Z" fill="#B58634"/>
<path fill-rule="evenodd" clip-rule="evenodd" d="M11.3057 3.49783C11.4509 3.73691 11.5825 3.98397 11.7 4.23784C11.7975 4.52343 11.9338 4.79424 12.1051 5.04267C12.0079 4.76179 11.8404 4.20543 11.7378 4.01098C11.6192 3.81194 11.4738 3.63018 11.3057 3.47083V3.49783Z" fill="#A88F33"/>
<path fill-rule="evenodd" clip-rule="evenodd" d="M9.65293 7.48959C9.40849 7.5644 9.17301 7.66583 8.95073 7.79208L8.51861 7.99734C8.17986 8.15524 7.82954 8.28706 7.47072 8.39165L7.50313 8.43486C7.50429 8.49563 7.52514 8.55439 7.56255 8.6023C7.52474 8.64012 7.02239 8.96961 7.18444 10.0715C7.27627 10.0391 7.3951 9.99049 7.4113 9.99049C7.42751 9.99049 7.44371 10.0715 7.48152 10.0715C7.53999 10.0568 7.59494 10.0306 7.64316 9.99446C7.69139 9.95829 7.73193 9.91287 7.7624 9.86086C7.71436 10.2864 7.83671 10.7136 8.1027 11.0492C8.17832 10.9628 8.36197 10.6819 8.36197 10.6819V10.5901C8.37631 10.386 8.41623 10.1846 8.4808 9.99049C8.55017 9.80763 8.65272 9.63916 8.78329 9.49355L9.82038 8.01354L9.66373 7.47339L9.65293 7.48959Z" fill="#E6C367"/>
<path fill-rule="evenodd" clip-rule="evenodd" d="M8.68039 9.68261C8.63493 9.71801 8.58379 9.7454 8.52915 9.76364C8.5121 9.68163 8.51243 9.59697 8.53011 9.5151C8.54778 9.43323 8.58242 9.35597 8.63177 9.2883C8.86494 9.03464 9.07634 8.7618 9.26375 8.47268C9.33221 8.0489 9.55311 7.66472 9.88492 7.39237C10.4683 6.85222 10.6952 6.69018 10.6952 6.69018L11.635 6.21484L12.7963 6.67397L12.2184 8.9264L11.7701 10.0067L9.99836 9.67181L8.68039 9.68261Z" fill="#DCBA5A"/>
<path fill-rule="evenodd" clip-rule="evenodd" d="M9.36035 9.05603L9.58181 8.78056V8.60231C9.77609 8.53427 9.95052 8.41922 10.0896 8.26741C10.3542 7.99734 10.7215 7.48419 11.0456 7.5166C11.3697 7.54901 11.3967 8.2134 11.4129 8.40245C11.4289 8.68615 11.4687 8.96802 11.5318 9.24509C11.602 9.47195 10.7431 10.3254 10.7431 10.3254L10.1598 10.7629L9.36035 9.06144V9.05603Z" fill="#E9CE77"/>
<path fill-rule="evenodd" clip-rule="evenodd" d="M10.041 11.357C10.041 11.357 10.2247 11.0762 10.0896 11.0167C10.1526 10.8915 10.2267 10.7722 10.3111 10.6602C10.4197 10.4545 10.5664 10.2712 10.7432 10.1201C11.0054 9.92672 11.2122 9.66779 11.3428 9.36929C11.3742 9.23273 11.3923 9.09343 11.3968 8.95337L11.5102 9.03439C11.6113 9.10643 11.6902 9.20533 11.7379 9.31989C11.7856 9.43445 11.8003 9.56009 11.7803 9.68257C11.7765 9.89732 11.7088 10.1061 11.5858 10.2821C11.5055 10.3624 11.4208 10.4382 11.332 10.509C11.2185 10.5846 11.1753 10.6765 10.9809 10.6819L11.0511 10.644C10.9427 10.6319 10.8336 10.6587 10.7432 10.7197C10.6352 10.8169 10.4083 11.114 10.2949 11.2058L10.0572 11.3624L10.041 11.357Z" fill="#CDAE50"/>
<path fill-rule="evenodd" clip-rule="evenodd" d="M18.1169 6.63606C17.8299 6.52512 17.5274 6.45952 17.2203 6.44161C16.7125 6.44161 15.9671 6.44161 15.2379 6.44161C14.5087 6.44161 13.7363 6.17153 12.7478 6.12292C12.5858 6.02569 12.1699 5.58277 10.8789 6.50103C10.9545 6.50103 11.8188 6.30657 12.1159 6.67928C12.2209 6.84943 12.2904 7.0391 12.3201 7.23684C12.3498 7.43458 12.3391 7.6363 12.2887 7.8298C12.2131 8.16469 11.9592 8.65623 11.8566 8.99653C11.754 9.33682 11.781 9.53668 11.7053 9.75814C11.6297 9.9796 11.4731 10.12 11.5703 10.3955C11.6945 10.3145 11.7594 10.3145 11.97 9.85537C12.1807 9.39624 12.1375 9.04514 12.5102 8.64543C12.8497 8.24879 13.2279 7.88691 13.6391 7.56513C14.2063 7.24948 14.8387 7.06916 15.4871 7.03824C16.1355 7.00732 16.7823 7.12664 17.3769 7.38688C17.809 7.34366 18.1385 6.62526 18.1385 6.62526L18.1169 6.63606Z" fill="#D2A83E"/>
<path fill-rule="evenodd" clip-rule="evenodd" d="M11.6028 6.30659C11.6049 6.28864 11.6049 6.27052 11.6028 6.25258C11.585 6.21778 11.5633 6.18515 11.538 6.15535C11.3261 6.11621 11.1106 6.09991 10.8952 6.10673C10.5171 6.14455 10.1768 6.61448 10.0148 6.85214C9.85337 7.14154 9.65946 7.41156 9.43681 7.65697C9.44069 7.64849 9.4427 7.63928 9.4427 7.62996C9.4427 7.62064 9.44069 7.61143 9.43681 7.60295C9.43681 7.60295 9.43681 7.60295 9.43681 7.64617C9.43681 7.68938 9.4098 7.68398 9.43681 7.69478L9.46922 7.72719C9.7698 7.58638 10.0425 7.39241 10.274 7.15463C10.5824 6.84927 10.9381 6.59573 11.3273 6.40382C11.4301 6.36086 11.5368 6.32829 11.646 6.30659H11.6028Z" fill="#C29637"/>
<path fill-rule="evenodd" clip-rule="evenodd" d="M19.8937 4.48096L19.7154 4.68621C19.4994 4.91308 19.2185 5.17235 18.9808 5.43702C18.7432 5.7017 18.4947 5.88535 18.203 6.21484C17.9113 6.54433 17.5818 6.91164 17.4954 7.01967C17.4187 7.13049 17.3705 7.25849 17.355 7.39237C17.3279 7.37012 17.299 7.35024 17.2686 7.33296C17.2888 7.36922 17.3123 7.40357 17.3388 7.43558L17.544 7.69486C17.6038 7.77724 17.6461 7.87099 17.6683 7.97033C17.7007 7.97033 17.8843 8.01355 18.122 7.63004C18.3597 7.24653 18.6621 6.82521 18.6621 6.82521L19.1483 6.10681L19.4454 5.49104L19.8343 4.82125L19.8937 4.49176V4.48096Z" fill="#AC8132"/>
<path fill-rule="evenodd" clip-rule="evenodd" d="M20.3907 3.99475C20.2435 4.11105 20.1062 4.23933 19.9802 4.37826C19.8668 4.5187 19.5967 4.91841 19.5967 4.91841H19.6939L20.1854 4.48089L20.3799 4.14059V4.02716L20.3907 3.99475Z" fill="#A88F33"/>
<path fill-rule="evenodd" clip-rule="evenodd" d="M20.2986 23.2836C20.2969 23.1681 20.335 23.0556 20.4066 22.9649C20.7122 22.7114 20.9483 22.3842 21.0926 22.0143C21.2154 21.7535 21.3201 21.4846 21.4059 21.2094C21.1585 21.4266 20.8822 21.6084 20.5848 21.7496C20.6605 21.5983 20.7037 21.4957 20.7361 21.4147C20.7685 21.3337 20.52 21.3391 20.5038 21.3175C20.601 21.2202 20.6551 20.9826 20.8495 20.8259C21.044 20.6693 21.5679 20.2858 21.9298 20.0103C22.3587 19.6649 22.7449 19.2696 23.0803 18.8328C23.1091 18.8709 23.1327 18.9127 23.1506 18.957C23.1506 18.957 22.7941 19.4215 22.6104 19.7132C22.5225 19.827 22.4699 19.9641 22.4592 20.1075L22.7941 19.9671C22.7941 19.9671 22.8913 20.3236 22.4538 20.8691C22.6428 20.7989 22.7184 20.8421 22.8319 20.7827C22.5409 20.9417 22.3025 21.1819 22.1459 21.4741C21.9091 21.9782 21.5346 22.4052 21.0656 22.7056C20.7858 22.8818 20.517 23.0748 20.2607 23.2836H20.2986Z" fill="#A67A2E"/>
<path fill-rule="evenodd" clip-rule="evenodd" d="M18.9862 6.88995C18.8743 7.12446 18.7961 7.37359 18.7539 7.62996C18.7539 7.70558 18.7539 7.765 18.7539 7.85682C18.7639 8.10731 18.7402 8.35801 18.6837 8.60223C18.6693 8.55845 18.6493 8.5167 18.6243 8.478C18.5864 8.58063 18.5216 8.89932 18.4676 9.01815C18.414 8.79901 18.3886 8.57393 18.392 8.34836C18.392 8.03507 18.392 7.97026 18.392 7.90544C18.392 8.00266 18.311 8.1323 18.2894 8.21332C18.2516 8.1485 18.2083 8.06208 18.1597 7.99186C18.1318 8.04675 18.0993 8.09916 18.0625 8.1485C18.0625 8.1161 18.0625 8.04047 18.0625 7.93244C18.0625 7.82441 18.0625 7.64076 18.0625 7.60835C18.1303 7.40582 18.243 7.22119 18.392 7.0682C18.6328 6.76338 18.8342 6.42946 18.9916 6.07432L19.4021 5.21008H19.6505L19.2886 6.04732C19.2886 6.04732 19.0672 6.50104 18.9537 6.66849C18.8403 6.83594 18.5972 7.31667 18.4892 7.50573C18.5702 7.4031 18.6351 7.34908 18.7107 7.25185C18.8137 7.13742 18.9093 7.01654 18.997 6.88995H18.9862Z" fill="#8C6228"/>
<path fill-rule="evenodd" clip-rule="evenodd" d="M20.3965 3.9624C20.3536 4.08865 20.2877 4.20586 20.2021 4.3081C20.0508 4.48635 19.7267 4.72942 19.5701 4.91847C19.433 5.10301 19.3359 5.31403 19.2847 5.53813C19.2336 5.76223 19.2296 5.99451 19.273 6.22023C19.3543 5.96963 19.4826 5.73682 19.6511 5.53424C19.8895 5.26028 20.0978 4.96148 20.2723 4.64299C20.3451 4.49299 20.3942 4.33266 20.4181 4.16766L20.4667 4.10824L20.4343 3.97321H20.3911L20.3965 3.9624Z" fill="#CBA94C"/>
<path fill-rule="evenodd" clip-rule="evenodd" d="M25.3119 20.0589C25.2527 19.896 25.2093 19.7278 25.1823 19.5566C25.1823 19.3189 25.2309 19.2703 25.1444 19.0164C25.0904 18.849 24.9932 18.8706 24.9662 18.849C24.9371 18.7123 24.9245 18.5727 24.9284 18.4331C24.9469 18.3023 24.9469 18.1695 24.9284 18.0388C24.8906 18.0064 24.869 17.9848 24.815 17.8065C24.7827 17.6959 24.743 17.5877 24.6961 17.4824C24.6691 17.4284 24.5827 17.3798 24.5827 17.3258C24.5827 17.2718 24.6799 17.1637 24.6799 17.1313C24.6799 17.0989 24.5989 17.1313 24.5827 17.1043C24.5665 17.0773 24.6421 16.899 24.5827 16.8774C24.5233 16.8558 24.4855 16.9639 24.4639 16.9369C24.4423 16.9099 24.4098 16.6182 24.3666 16.4291C24.3234 16.2401 24.2802 16.105 24.2802 16.051C24.2802 15.997 23.9453 15.0517 23.8643 14.8249C23.7996 14.6317 23.7455 14.4352 23.7022 14.2361C23.6752 14.1227 23.659 13.8904 23.6482 13.9174C23.6374 13.9444 23.6482 14.0579 23.6212 14.0525C23.5942 14.047 23.5456 13.6365 23.524 13.5663C23.4656 13.4208 23.4186 13.2709 23.3836 13.118C23.3836 12.9559 23.3025 12.5292 23.2701 12.2429C23.2377 11.9567 23.2269 11.8432 23.2269 11.7406C23.2329 11.5599 23.2221 11.3791 23.1945 11.2005C23.1472 10.8969 23.0713 10.5984 22.9676 10.3092C22.8056 9.89869 22.3735 8.8562 22.2979 8.59692C22.2979 8.53211 22.3789 8.59692 22.3789 8.59692C22.3789 8.59692 22.5895 9.13707 22.7462 9.53138C22.8396 9.80608 22.9497 10.0749 23.0757 10.3362C23.2652 10.6694 23.3882 11.0363 23.4376 11.4165C23.5402 12.0701 23.5726 12.6751 23.6374 13.0802C23.6666 13.281 23.71 13.4796 23.7671 13.6743C23.8319 13.8958 23.9345 14.1227 24.0641 14.4738C24.1655 14.717 24.2468 14.9681 24.3072 15.2246C24.3612 15.4893 24.3612 15.6945 24.3936 15.8295C24.426 15.9646 24.4639 16.1698 24.5665 16.4993C24.6691 16.8288 24.8204 17.2555 24.923 17.5202C25.0711 17.9091 25.1761 18.313 25.2363 18.7248C25.2932 19.1692 25.3257 19.6164 25.3335 20.0643L25.3119 20.0589Z" fill="#A88F33"/>
<path fill-rule="evenodd" clip-rule="evenodd" d="M20.4065 3.92993V3.96234C20.4065 3.96234 20.4389 3.96234 20.4335 4.02176C20.4281 4.08117 20.4335 4.15679 20.4335 4.22161C20.4335 4.28643 20.3957 4.37286 20.3903 4.42687C20.3987 4.62618 20.348 4.82353 20.2444 4.99403C20.2012 5.08586 20.1688 5.16148 20.1472 5.21549C20.1166 5.29273 20.0727 5.36402 20.0176 5.42615C20.104 5.37754 20.4119 5.18848 20.5577 5.21549C20.4109 5.29706 20.2852 5.41172 20.1904 5.55039C20.2849 5.56916 20.3822 5.56916 20.4767 5.55039C20.7497 5.48513 21.0282 5.44535 21.3085 5.43155C21.6002 5.43155 21.4868 5.08586 21.4868 5.08586L21.1519 4.35125L20.5253 3.90833H20.4281L20.4065 3.92993Z" fill="#BE9C44"/>
<path fill-rule="evenodd" clip-rule="evenodd" d="M22.0547 9.42324C21.7983 9.05731 21.659 8.62226 21.655 8.17549C21.583 7.37821 21.5542 6.57762 21.5686 5.77722L21.3363 5.23707C21.3192 5.05742 21.262 4.88389 21.1688 4.72933C21.05 4.58889 20.8177 4.35662 20.7097 4.24319C20.6017 4.12976 20.4828 3.97311 20.4072 3.95151C20.4891 3.80915 20.6112 3.6942 20.7583 3.62115C20.9054 3.5481 21.0708 3.52021 21.2337 3.54099C21.4109 3.51947 21.5905 3.55302 21.748 3.63709C21.9055 3.72116 22.0333 3.85169 22.1141 4.01093C22.3793 4.54586 22.5371 5.12758 22.5786 5.7232C22.6568 6.20348 22.6929 6.68966 22.6867 7.17621C22.6514 7.56376 22.5882 7.94826 22.4976 8.32673C22.4338 8.71395 22.2863 9.08261 22.0655 9.40704L22.0547 9.42324Z" fill="#A17C34"/>
<path fill-rule="evenodd" clip-rule="evenodd" d="M21.1685 10.2497C21.2621 10.2537 21.3552 10.2332 21.4386 10.1903C21.564 10.203 21.6906 10.184 21.8067 10.1349C21.9228 10.0858 22.0247 10.0083 22.1029 9.90942C22.124 9.98311 22.1301 10.0603 22.1209 10.1364C22.1116 10.2124 22.0871 10.2859 22.0489 10.3523C22.0998 10.3134 22.154 10.2791 22.211 10.2497C22.2511 10.6168 22.1549 10.9859 21.9409 11.2868C22.0274 11.2111 22.1392 11.1706 22.2542 11.1734C22.304 11.4393 22.2661 11.7141 22.1462 11.9566C22.1083 12.0006 22.059 12.0335 22.0038 12.0516C21.9486 12.0697 21.8895 12.0723 21.8329 12.0592V11.9566C21.8329 11.8918 21.8005 11.827 21.8329 11.7837C21.7408 11.7407 21.6568 11.6823 21.5844 11.6109C21.3362 11.4039 21.1557 11.1273 21.0659 10.8169C21.0566 10.7424 21.0745 10.6671 21.1161 10.6046C21.1577 10.5422 21.2204 10.4967 21.2927 10.4766C21.2748 10.4563 21.2586 10.4346 21.2441 10.4118C21.2305 10.3531 21.2047 10.2979 21.1685 10.2497Z" fill="#8C6228"/>
<path fill-rule="evenodd" clip-rule="evenodd" d="M19.2944 7.19793C19.2944 7.19793 19.2944 7.19793 19.2188 7.25735C19.2188 7.18173 19.2458 7.10611 19.2512 7.03589C19.2805 6.97024 19.3207 6.90999 19.37 6.85764C19.3322 6.92786 19.3052 6.99267 19.3052 6.99267C19.3623 6.89175 19.4374 6.80206 19.5266 6.728C19.6185 6.65238 19.7319 6.61997 19.7805 6.54975C19.8047 6.52118 19.823 6.48815 19.8345 6.45252C19.9494 6.36676 20.0512 6.26488 20.137 6.15004C20.137 6.11763 20.1964 6.08522 20.218 6.05821C20.3047 6.02309 20.3894 5.98342 20.4719 5.93938C20.5907 5.87456 20.7258 5.78274 20.8068 5.74492C20.8878 5.70711 21.1417 5.68011 21.2227 5.56667C21.2821 5.56667 21.3469 5.36682 21.3361 5.21558C21.5143 5.31402 21.6695 5.4492 21.7915 5.61216C21.9135 5.77512 21.9995 5.96215 22.0437 6.16084C22.0926 6.65376 22.0336 7.15141 21.8709 7.61925C21.8404 7.87274 21.7674 8.11928 21.6548 8.34845C21.5036 8.54831 21.0175 8.82919 20.8986 8.96423C20.7798 9.09926 20.4935 9.36934 20.5043 9.58C20.5151 9.79066 20.7096 9.81767 20.7474 9.84467C20.7852 9.87168 20.7906 9.91489 20.8662 9.89329C20.9418 9.87168 20.9742 9.83927 21.0066 9.83927C21.0391 9.83927 21.0445 9.83927 21.0607 9.83927H21.0931C21.0931 9.83927 21.0931 10.0607 20.5529 10.1256L20.4287 10.1526C20.4953 10.1308 20.5536 10.0894 20.5961 10.0337C20.5205 10.0337 20.3099 10.0067 20.2612 9.99051C20.2934 9.93629 20.3335 9.88714 20.3801 9.84467C20.4179 9.81226 20.3801 9.80146 20.3369 9.81767C20.2729 9.8584 20.2132 9.90545 20.1586 9.95811C20.0931 10.0261 20.0227 10.0893 19.948 10.1472C19.9282 10.076 19.9258 10.0011 19.9408 9.92874C19.9559 9.85641 19.9879 9.7887 20.0344 9.73124C20.0344 9.73124 19.9534 9.82307 19.8993 9.80686C19.8831 9.71939 19.8831 9.62966 19.8993 9.54219C19.9454 9.4329 20.0073 9.33099 20.083 9.2397L20.8446 7.87852L21.0661 6.85764L19.316 7.19793H19.2944Z" fill="#92723A"/>
<path fill-rule="evenodd" clip-rule="evenodd" d="M19.2565 7.25726C19.2565 7.25726 19.2132 7.28427 19.2997 7.33828C19.2751 7.3795 19.248 7.41918 19.2186 7.45712C19.1808 7.50573 19.1322 7.53814 19.116 7.57595C19.0874 7.63446 19.0656 7.69608 19.0512 7.7596C19.0494 7.90563 19.0103 8.04878 18.9378 8.17552C18.9 8.22953 18.8621 8.32136 18.8297 8.38077C18.7809 8.45777 18.7393 8.53914 18.7055 8.62384C18.683 8.727 18.6686 8.83174 18.6623 8.93713L18.7379 8.85071C18.7083 8.91209 18.6721 8.97005 18.6299 9.02355C18.6299 9.02355 18.7433 8.93713 18.8892 8.8129C19.1631 8.56273 19.4597 8.33851 19.775 8.14311C19.681 8.16815 19.5854 8.1862 19.4887 8.19712C19.5481 8.1323 20.0937 7.49493 20.38 7.43011C20.385 7.41814 20.3876 7.40529 20.3876 7.3923C20.3876 7.37931 20.385 7.36645 20.38 7.35449H20.1369L19.64 7.45712L19.5643 7.07361L19.2349 7.27887L19.2565 7.25726Z" fill="#B18E3E"/>
<path fill-rule="evenodd" clip-rule="evenodd" d="M20.0446 9.43955C19.9887 9.50631 19.9465 9.58339 19.9203 9.66642C19.8731 9.61843 19.8331 9.56385 19.8015 9.50437C19.7595 9.40289 19.6795 9.32182 19.5786 9.27844C19.4777 9.23505 19.3639 9.23278 19.2614 9.27211C19.2531 9.19671 19.2531 9.12064 19.2614 9.04524C19.4085 8.96007 19.5371 8.84618 19.6395 8.71035C19.766 8.5719 19.865 8.41057 19.9311 8.23502L20.1742 8.06757C20.3308 7.95954 20.5145 7.8137 20.5469 7.65165C20.4018 7.71945 20.2424 7.75096 20.0824 7.74348C20.1742 7.70027 20.3092 7.65706 20.293 7.47881L20.3579 7.43559H20.2768C20.2768 7.43559 20.2768 7.39238 20.2228 7.40859C20.1688 7.42479 20.1742 7.40859 20.1688 7.43559C20.1314 7.42788 20.0928 7.42788 20.0554 7.43559C19.9927 7.48942 19.9259 7.53818 19.8555 7.58143L19.8987 7.51121C19.8289 7.51796 19.7601 7.53245 19.6935 7.55443C19.5075 7.62384 19.327 7.70688 19.1533 7.8029C19.1533 7.77049 19.1803 7.75428 19.1911 7.74888H19.2343C19.2343 7.74888 19.2343 7.70027 19.2343 7.68406C19.2876 7.56889 19.3508 7.45864 19.4234 7.35457C19.4789 7.27013 19.514 7.17399 19.526 7.07369L19.8987 6.89004L20.9412 6.64697L21.6164 6.69018L21.5354 7.16012L21.1357 7.97574L20.79 8.72115L20.4011 9.18028L20.0392 9.43955H20.0446Z" fill="#543E26"/>
<path fill-rule="evenodd" clip-rule="evenodd" d="M21.7413 7.41395C21.573 7.61898 21.3927 7.81378 21.2012 7.99731C21.2714 7.84067 21.7413 6.91701 21.8872 6.65774C21.8493 6.63073 21.8007 6.63073 21.9142 6.177C21.8169 6.40387 21.7845 6.5227 21.7035 6.58752C21.6225 6.65234 21.6117 6.62533 21.5577 6.62533C21.5632 6.60591 21.5632 6.58533 21.5577 6.56591C21.5577 6.56591 21.212 6.5227 20.9797 6.5227C20.6516 6.55429 20.3297 6.6325 20.0236 6.75496C19.8912 6.7914 19.7613 6.83651 19.6347 6.89C19.5591 6.94942 19.5213 7.01964 19.4835 7.03584C19.4457 7.05205 19.316 7.09526 19.2836 7.13847C19.2561 7.17652 19.2308 7.21621 19.208 7.2573C19.208 7.2573 19.208 7.28431 19.208 7.2573L19.4133 7.14387C19.5537 7.06285 19.7212 6.97643 19.84 6.92241C20.0596 6.84055 20.2916 6.79671 20.526 6.79277C20.7038 6.74912 20.8842 6.71665 21.0661 6.69555C21.246 6.68554 21.4264 6.68554 21.6063 6.69555C21.6063 6.69555 21.5523 6.74956 21.5685 6.85219C21.5847 6.95482 21.5685 6.91161 21.5199 6.98183C21.4442 7.18168 21.3092 7.52198 21.2282 7.67862C21.1471 7.83527 21.0013 8.09994 20.9419 8.21877C20.8512 8.42752 20.7427 8.6281 20.6178 8.81834C20.4882 8.98579 20.4179 9.08842 20.3801 9.12623C20.3423 9.16404 20.0452 9.3801 20.0668 9.45572C20.3094 9.36717 20.5277 9.22285 20.7042 9.0344C20.85 8.82504 21.0106 8.62647 21.185 8.44024C21.3768 8.27524 21.5252 8.06564 21.6171 7.82986C21.6562 7.68315 21.7086 7.54031 21.7737 7.40314L21.7413 7.41395Z" fill="#806031"/>
<path fill-rule="evenodd" clip-rule="evenodd" d="M12.9641 11.1788C12.9366 11.302 12.877 11.4157 12.7912 11.5083C12.6724 11.6164 12.4617 11.7082 12.4347 11.8864C12.4077 12.0647 12.6508 12.1565 12.6508 12.1565C12.5784 12.271 12.5323 12.4002 12.5157 12.5346C12.5048 12.655 12.5048 12.7761 12.5157 12.8965C12.4947 12.907 12.4776 12.9241 12.4671 12.9451C12.4772 13.043 12.5234 13.1335 12.5968 13.199C12.7156 13.2962 12.8182 13.3502 12.8776 13.3286C12.8807 13.3483 12.8807 13.3684 12.8776 13.3881C12.8776 13.3881 12.9695 13.1612 13.0289 12.9613C13.0883 12.7615 13.1423 12.7885 13.1693 12.513C13.2402 12.2482 13.3533 11.9965 13.5042 11.7676L13.6879 11.3625L13.3908 11.1356L12.9749 11.1788H12.9641Z" fill="#B6903C"/>
<path fill-rule="evenodd" clip-rule="evenodd" d="M13.5039 11.5731C13.4421 11.6345 13.3861 11.7014 13.3365 11.773C13.2554 11.881 13.196 11.9782 13.0826 12.0214C12.9692 12.0647 12.8935 12.0593 12.9043 12.1727C12.9151 12.2861 13.0178 12.3401 13.0772 12.3941C13.1157 12.4289 13.1444 12.4731 13.1605 12.5224C13.1766 12.5716 13.1796 12.6243 13.169 12.675C13.2419 12.6412 13.2997 12.5816 13.3311 12.5076C13.3905 12.3725 13.8118 11.5785 13.8118 11.5785H13.5039V11.5731Z" fill="#685026"/>
<path fill-rule="evenodd" clip-rule="evenodd" d="M15.1675 9.73116C15.1883 9.67729 15.1883 9.61759 15.1675 9.56371C15.1296 9.49349 14.9136 9.46649 14.8002 9.38546C14.7516 9.34009 14.6931 9.3067 14.6293 9.28794C14.5655 9.26919 14.4983 9.26559 14.4329 9.27743C14.4329 9.23962 14.5193 9.1478 14.4653 9.13159C14.3541 9.14004 14.2475 9.17932 14.1574 9.24502C14.0885 9.28064 14.0217 9.32032 13.9575 9.36386C13.9575 9.39086 13.8927 9.44488 13.8711 9.42327C13.8495 9.40167 13.8333 9.36386 13.7901 9.38546C13.6773 9.46616 13.5803 9.56685 13.5038 9.68255C13.4253 9.88887 13.2995 10.0739 13.1365 10.2227C12.888 10.4658 12.7854 10.6224 12.8556 10.7088C12.9258 10.7953 12.9636 10.7358 12.9744 10.8115C12.988 10.8865 12.988 10.9633 12.9744 11.0383C12.9474 11.168 12.8988 11.2868 12.9744 11.3084C13.1419 11.3624 13.3039 11.2598 13.3417 11.3084C13.3796 11.357 13.2985 11.6109 13.4714 11.6541C13.5876 11.6799 13.7092 11.6667 13.8171 11.6163L14.4545 11.2706L15.0648 10.9519L15.3781 10.3307L15.2107 9.79058L15.1783 9.73656L15.1675 9.73116Z" fill="#D4B968"/>
<path fill-rule="evenodd" clip-rule="evenodd" d="M14.5837 11.2112C14.5537 11.1641 14.54 11.1083 14.5449 11.0527C14.5498 10.997 14.5729 10.9445 14.6107 10.9033C14.7403 10.7629 14.924 10.7035 14.9996 10.6116L14.9456 10.5738C14.9946 10.4879 15.0679 10.4184 15.1562 10.374C15.1198 10.3377 15.0722 10.3148 15.0212 10.3092C14.9024 10.3092 14.8267 10.3848 14.7187 10.3848C14.6107 10.3848 14.5999 10.3308 14.5999 10.3308C14.5999 10.3308 14.7781 10.3308 14.7619 10.2335C14.7457 10.1363 14.7133 10.1471 14.7133 10.1471C14.8594 10.0919 14.9974 10.0174 15.1238 9.92565C15.1832 9.85003 15.1724 9.7582 15.1886 9.72579C15.2048 9.69338 15.4695 9.59616 15.5667 9.65017C15.664 9.70419 15.5937 9.85003 15.5937 9.85003C15.7606 9.72498 15.9096 9.57778 16.0367 9.4125C16.1717 9.4125 16.2311 9.32068 16.3284 9.32068C16.4256 9.32068 16.6308 9.48272 16.6686 9.86083C16.7017 10.0811 16.7017 10.305 16.6686 10.5252C16.6587 10.7956 16.6841 11.0662 16.7443 11.33C16.7875 11.4975 16.8847 11.4813 16.8847 11.4813C16.8699 11.5339 16.8398 11.5809 16.7983 11.6163C16.7434 11.699 16.7204 11.7988 16.7335 11.8972C16.7436 11.9411 16.7562 11.9844 16.7713 12.0268C16.7306 12.0715 16.6978 12.1226 16.674 12.1781C16.6606 12.2084 16.6386 12.2342 16.6108 12.2524C16.5831 12.2706 16.5506 12.2805 16.5174 12.2807H16.4094C16.3596 12.2917 16.3079 12.2917 16.2581 12.2807C16.2095 12.2807 16.1771 12.2429 16.1933 12.0863C16.2095 11.9296 15.5937 11.5461 15.5937 11.5461L14.5837 11.2112Z" fill="#CCA849"/>
<path fill-rule="evenodd" clip-rule="evenodd" d="M13.4121 12.7452C13.4121 12.7452 13.6336 13.0369 14.541 13.0369C14.7663 13.0504 14.9923 13.0285 15.2108 12.9721C15.5374 12.8598 15.8244 12.6553 16.0372 12.3833C16.3721 11.9944 16.2965 11.8432 16.2965 11.8432L16.1021 11.8162L15.4809 11.9026L13.6336 12.6858L13.4121 12.7668V12.7452Z" fill="#585136"/>
<path fill-rule="evenodd" clip-rule="evenodd" d="M14.0869 12.8209C14.0869 12.8209 13.3037 12.9937 13.3037 12.4968C13.3646 12.0742 13.5801 11.6892 13.9087 11.4165C14.0434 11.3364 14.1865 11.2712 14.3354 11.222H15.0592L15.1996 11.5893L15.124 12.3834L14.0437 12.8263L14.0869 12.8209Z" fill="#252211"/>
<path fill-rule="evenodd" clip-rule="evenodd" d="M14.8164 11.3678C14.8164 11.3678 14.6652 11.2274 14.3195 11.4164C14.1474 11.5093 14.0002 11.6422 13.8902 11.8039C13.7803 11.9656 13.7107 12.1513 13.6875 12.3455C13.6875 12.6588 13.9414 12.8856 14.3681 12.8856C14.5728 12.8992 14.7784 12.8828 14.9785 12.837C14.9515 12.81 14.8272 12.6534 14.8272 12.6534V11.3516L14.8164 11.3678Z" fill="#C3B378"/>
<path fill-rule="evenodd" clip-rule="evenodd" d="M14.6649 11.4435C14.6649 11.4435 14.6271 11.4164 14.5191 11.4759C14.4044 11.5534 14.2977 11.6421 14.2004 11.7405C14.1448 11.7693 14.0923 11.8037 14.0438 11.8432C13.8925 12.0214 13.7683 12.3131 13.8385 12.4589C13.9087 12.6048 14.1518 12.7722 14.7676 12.6588L14.6541 11.4272L14.6649 11.4435Z" fill="#E6D89C"/>
<path fill-rule="evenodd" clip-rule="evenodd" d="M14.4651 11.7459C14.399 11.8648 14.3655 11.9989 14.3679 12.1348C14.3649 12.2215 14.3796 12.3079 14.4109 12.3887C14.4422 12.4696 14.4896 12.5433 14.5502 12.6053C14.6107 12.6674 14.6832 12.7166 14.7633 12.7499C14.8433 12.7832 14.9293 12.8 15.016 12.7992C15.4103 12.8262 15.6696 12.2591 15.9559 12.0106C16.0515 11.9191 16.1716 11.8572 16.3016 11.8324C16.0613 11.6112 15.7879 11.429 15.4914 11.2922C14.908 10.9789 14.2544 10.9357 13.9033 11.4164C14.1417 11.3784 14.3778 11.3279 14.6109 11.2652L14.8756 11.3516L14.4651 11.7567V11.7459Z" fill="#252211"/>
<path fill-rule="evenodd" clip-rule="evenodd" d="M15.2267 12.0646C15.2267 12.0268 15.1996 11.9782 15.2699 11.9674C15.3401 11.9566 15.3725 11.9674 15.3941 12.016C15.4157 12.0646 15.4427 12.1132 15.3941 12.1348C15.36 12.1424 15.3244 12.1398 15.2917 12.1273C15.2591 12.1149 15.2308 12.093 15.2104 12.0646H15.2267ZM15.124 11.7189C15.124 11.7189 15.1618 11.6055 15.2375 11.6217C15.3131 11.6379 15.2969 11.7243 15.2861 11.7513C15.2717 11.7699 15.2526 11.7843 15.2307 11.7929C15.2088 11.8014 15.185 11.8039 15.1618 11.8C15.1509 11.7963 15.1416 11.7888 15.1357 11.7789C15.1298 11.769 15.1275 11.7573 15.1294 11.7459L15.124 11.7189Z" fill="#6F674D"/>
<path fill-rule="evenodd" clip-rule="evenodd" d="M8.54492 11.8756C8.66601 11.9637 8.81113 12.0127 8.96084 12.0161C9.20847 11.9658 9.43147 11.8324 9.59281 11.638C9.67384 11.5515 9.73865 11.4597 9.80887 11.3895C9.85755 11.3503 9.90274 11.3069 9.94391 11.2599C9.98172 11.2112 10.0249 11.1194 10.0465 11.0924C9.98121 11.1525 9.91072 11.2067 9.83588 11.2545C9.73662 11.3179 9.63175 11.3722 9.52259 11.4165C9.45778 11.4435 8.77719 11.8 8.77719 11.8L8.54492 11.8756Z" fill="#AC924C"/>
<path fill-rule="evenodd" clip-rule="evenodd" d="M8.83691 10.0823C8.93453 10.0267 9.04023 9.98658 9.1502 9.9635C9.34843 9.92435 9.54855 9.8955 9.74977 9.87708L10.0793 10.0229L10.2143 10.5199L9.97123 11.06L9.66335 11.2491L9.31765 10.7089L8.83691 10.1201V10.0823Z" fill="#9F8E57"/>
<path fill-rule="evenodd" clip-rule="evenodd" d="M8.40445 10.5252L8.29102 10.6116C8.31809 10.5422 8.33624 10.4696 8.34503 10.3955C8.39792 10.1131 8.51225 9.8457 8.67992 9.61232C8.73286 9.53519 8.79251 9.46289 8.85817 9.39626C8.8431 9.38866 8.82645 9.3847 8.80956 9.3847C8.79268 9.3847 8.77603 9.38866 8.76095 9.39626C8.85005 9.26266 8.96369 9.14719 9.09584 9.05596C9.25248 8.95873 9.3119 8.92632 9.47395 9.00735C9.63599 9.08837 9.6792 9.12618 9.79804 9.12078C9.88488 9.10514 9.96335 9.05921 10.0195 8.99114C10.0195 8.99114 10.0465 9.06676 9.95468 9.24501C9.82519 9.43921 9.67683 9.62014 9.51176 9.78517L8.77175 10.2929L8.40445 10.4982V10.5252Z" fill="#EAC970"/>
<path fill-rule="evenodd" clip-rule="evenodd" d="M8.9502 10.0229C8.9502 10.0229 9.49035 10.0931 9.64699 9.94729C9.64699 9.94729 9.674 9.94729 9.674 9.97429C9.674 9.97429 9.674 10.0013 9.674 9.97429H9.72261H9.79283H9.84144C9.8386 9.9975 9.82701 10.0188 9.80904 10.0337C9.80904 10.0337 9.85765 10.0337 9.85765 10.0607C9.85765 10.0877 9.85765 10.1363 9.83064 10.1471C9.80789 10.155 9.78318 10.155 9.76042 10.1471C9.7602 10.1941 9.77131 10.2404 9.79283 10.2822C9.81841 10.3363 9.8603 10.381 9.91262 10.4101C9.96494 10.4392 10.0251 10.4511 10.0845 10.4442C10.0845 10.4442 10.1547 10.6171 9.84685 10.9844C9.80904 11.0384 9.76582 11.1086 9.71181 11.1734C9.68999 11.2181 9.67367 11.2653 9.66319 11.3139C9.81165 11.2543 9.9468 11.1658 10.0608 11.0536C10.1749 10.9414 10.2655 10.8077 10.3276 10.6603C10.4637 10.2332 10.5151 9.78368 10.4788 9.33692C10.4803 9.24581 10.4618 9.15549 10.4248 9.07224C10.4071 9.04244 10.3827 9.01711 10.3537 8.99818C10.3246 8.97926 10.2916 8.96725 10.2572 8.96307C10.2227 8.9589 10.1878 8.96268 10.1551 8.97411C10.1223 8.98554 10.0927 9.00433 10.0683 9.02903C9.88868 9.26629 9.68604 9.48522 9.46334 9.68261C9.30767 9.81472 9.1351 9.92553 8.9502 10.0121V10.0229Z" fill="#D7BC6B"/>
<path fill-rule="evenodd" clip-rule="evenodd" d="M8.3131 10.6765C8.22558 10.7501 8.16954 10.8545 8.15645 10.9681C8.1228 11.1762 8.16089 11.3895 8.26448 11.5731C8.30724 11.6647 8.37207 11.7442 8.45315 11.8045C8.53422 11.8649 8.62902 11.9041 8.72901 11.9188C8.7973 11.9177 8.86489 11.9049 8.92887 11.881C9.02453 11.8348 9.11505 11.7787 9.19895 11.7135C9.31778 11.6217 9.41501 11.5461 9.4042 11.5353C9.3934 11.5245 8.6696 10.9411 8.6696 10.9411L8.40492 10.644L8.3131 10.6765Z" fill="#585136"/>
<path fill-rule="evenodd" clip-rule="evenodd" d="M8.97711 11.6433C9.05628 11.637 9.13339 11.6149 9.20397 11.5785C9.2904 11.5245 8.70703 10.9465 8.70703 10.9465L8.75024 11.5731L8.97711 11.6433Z" fill="#453A25"/>
<path fill-rule="evenodd" clip-rule="evenodd" d="M8.35566 10.6333C8.32657 10.6884 8.30305 10.7463 8.28544 10.8061C8.27903 11.0128 8.29716 11.2195 8.33945 11.4219C8.36364 11.5086 8.41396 11.5857 8.48355 11.6427C8.55315 11.6997 8.63863 11.7339 8.72836 11.7406C8.83614 11.7363 8.94071 11.7026 9.03084 11.6434C9.03084 11.6164 8.84719 11.5948 8.79858 11.5029C8.76808 11.4106 8.75347 11.3138 8.75537 11.2167C8.73613 11.1533 8.73613 11.0856 8.75537 11.0222C8.80264 10.936 8.82857 10.8396 8.83099 10.7413L9.06866 10.3092H8.76077L8.39347 10.5361L8.35566 10.6333Z" fill="#84754B"/>
<path fill-rule="evenodd" clip-rule="evenodd" d="M8.26953 10.7628C8.38895 10.5987 8.5441 10.4639 8.72326 10.3685C8.82171 10.3246 8.93204 10.3151 9.03655 10.3415L8.91231 10.6656L8.72866 10.8654V10.9681C8.72129 11.0496 8.73041 11.1318 8.75547 11.2098C8.78052 11.2877 8.821 11.3598 8.8745 11.4218C8.92083 11.4813 8.98093 11.5286 9.04963 11.5596C9.11833 11.5907 9.19355 11.6046 9.26881 11.6C9.3624 11.5884 9.45089 11.5508 9.52435 11.4917C9.59781 11.4325 9.65335 11.3541 9.68473 11.2652C9.75895 11.1274 9.79781 10.9733 9.79781 10.8168C9.79781 10.6603 9.75895 10.5063 9.68473 10.3685C9.61799 10.2647 9.52599 10.1795 9.41735 10.1209C9.30871 10.0623 9.18697 10.0323 9.06355 10.0336C8.86751 10.0452 8.68147 10.1241 8.53683 10.257C8.39218 10.3898 8.29777 10.5685 8.26953 10.7628Z" fill="#252211"/>
<path fill-rule="evenodd" clip-rule="evenodd" d="M14.4328 11.8432C14.341 11.8 14.4328 11.5461 14.5139 11.4705C14.6235 11.365 14.7671 11.3018 14.919 11.2922C14.9892 11.2922 15.0594 11.33 15.0486 11.3787C14.9946 11.5047 14.9044 11.6119 14.7893 11.6865C14.6327 11.8432 14.5301 11.8918 14.4328 11.8432Z" fill="#F7F7E7"/>
<path fill-rule="evenodd" clip-rule="evenodd" d="M9.577 10.4712C9.61395 10.4705 9.65014 10.4817 9.68028 10.5031C9.71042 10.5245 9.73291 10.555 9.74445 10.5901C9.74445 10.6657 9.70123 10.8223 9.577 10.8223C9.45276 10.8223 9.42036 10.6981 9.42036 10.6603C9.41327 10.6319 9.41327 10.6022 9.42036 10.5739C9.42355 10.5566 9.4302 10.5403 9.43989 10.5257C9.44959 10.5111 9.46213 10.4987 9.47677 10.4891C9.4914 10.4795 9.50783 10.473 9.52506 10.4699C9.54228 10.4668 9.55995 10.4673 9.577 10.4712Z" fill="#F8F6DE"/>
<path fill-rule="evenodd" clip-rule="evenodd" d="M8.6425 10.5251C8.53749 10.5799 8.45103 10.6644 8.39403 10.7682C8.34017 10.8884 8.32325 11.0219 8.34542 11.1517C8.37067 11.2448 8.40885 11.3339 8.45885 11.4164C8.47501 11.4397 8.49583 11.4595 8.52001 11.4743C8.54418 11.4892 8.57117 11.4989 8.59929 11.5028C8.6328 11.4839 8.66147 11.4575 8.68302 11.4256C8.70458 11.3938 8.71845 11.3573 8.72352 11.3192C8.71937 11.1512 8.74875 10.9841 8.80995 10.8276C8.88016 10.6764 8.6425 10.5251 8.6425 10.5251Z" fill="#D4C38B"/>
<path fill-rule="evenodd" clip-rule="evenodd" d="M8.64205 10.5144C8.64205 10.5144 8.56643 10.5576 8.57723 10.59C8.58803 10.6224 8.69066 10.6332 8.72847 10.7088C8.75935 10.7648 8.76894 10.83 8.75548 10.8925C8.78747 10.8778 8.8167 10.8577 8.8419 10.8331C8.89592 10.7736 8.96074 10.6872 9.01475 10.6872C9.06877 10.6872 9.09037 10.6872 9.12278 10.6872C9.15519 10.6872 9.23081 10.6872 9.23621 10.6116C9.24161 10.536 9.13358 10.4766 9.06877 10.4874C9.00395 10.4982 9.10117 10.3685 9.06877 10.3199C9.03636 10.2713 8.8473 10.3577 8.80949 10.3793L8.66365 10.4928L8.64205 10.5144Z" fill="#E2D59D"/>
<path fill-rule="evenodd" clip-rule="evenodd" d="M12.5099 15.6242L12.8718 15.5216L12.969 15.5918C12.969 15.5918 13.0447 15.7485 13.1581 15.7647C13.1203 15.8457 13.0285 15.9105 13.0339 15.9645C13.0407 16.002 13.0597 16.0362 13.0879 16.0618C12.9966 16.2486 12.9782 16.4627 13.0361 16.6624C13.094 16.862 13.2241 17.033 13.4012 17.1421L12.9528 17.3311C13.0583 17.346 13.1595 17.3828 13.2499 17.4391C13.287 17.4814 13.3287 17.5195 13.3742 17.5526C13.4336 17.5904 13.4714 17.639 13.4606 17.6606C13.4498 17.6822 13.2769 17.5634 13.2553 17.6606C13.2337 17.7578 12.6558 17.6984 12.6558 17.6984L11.6835 17.8875C11.6928 17.8531 11.6916 17.8167 11.6801 17.783C11.6685 17.7493 11.6471 17.7198 11.6187 17.6984C11.4998 17.5904 11.354 17.6984 11.1974 17.585C11.0407 17.4716 10.9867 17.2501 10.9219 17.1799C11.0907 17.0973 11.2744 17.0495 11.462 17.0394C11.4469 17.0156 11.4367 16.989 11.4321 16.9612C11.4274 16.9333 11.4284 16.9048 11.435 16.8774C11.462 16.791 11.5809 16.7369 11.5485 16.6343C11.6025 16.6343 11.6241 16.6343 11.7591 16.4561C11.8941 16.2778 11.959 16.2508 12.0562 16.24C12.1534 16.2292 12.2128 16.24 12.3911 16.0726C12.5693 15.9051 12.4775 15.8511 12.4775 15.8511C12.4775 15.8511 12.5585 15.8241 12.5315 15.6566L12.5099 15.6242Z" fill="#CBAC5A"/>
<path fill-rule="evenodd" clip-rule="evenodd" d="M11.4508 15.6674C11.4508 15.6674 11.4508 15.6296 11.6021 15.6674C11.7533 15.7052 12.5635 15.5864 12.7904 15.5756C13.2671 15.5563 13.7445 15.5816 14.2164 15.6512C14.6053 15.7376 14.9996 15.8349 15.1941 15.8835C15.3885 15.9321 15.4425 15.9537 15.4371 15.9807C15.4317 16.0077 15.3885 16.0293 15.3669 16.0185C15.3453 16.0077 14.7025 15.8186 14.5081 15.7808C14.0972 15.6941 13.6799 15.6417 13.2603 15.6242C13.0006 15.6176 12.7408 15.6285 12.4825 15.6566C12.1745 15.6974 11.8642 15.7191 11.5535 15.7214C11.413 15.7214 11.44 15.7214 11.4508 15.6782V15.6674Z" fill="#D6BC6F"/>
<path fill-rule="evenodd" clip-rule="evenodd" d="M13.4009 17.5688C13.6713 17.7129 13.9044 17.9182 14.0814 18.1684C14.1012 18.1975 14.1147 18.2304 14.1213 18.2649C14.1279 18.2995 14.1274 18.335 14.1198 18.3694C14.1123 18.4038 14.0978 18.4362 14.0772 18.4648C14.0567 18.4934 14.0306 18.5175 14.0004 18.5357C14.0004 18.5357 14.2867 18.5357 14.2489 18.6923C14.0199 18.9118 13.7476 19.081 13.4495 19.1892C13.3071 19.2687 13.1516 19.3218 12.9903 19.3459C12.8391 19.3459 12.4232 19.2973 12.3422 19.4161C12.3118 19.4525 12.293 19.4971 12.2882 19.5443C12.2833 19.5915 12.2927 19.639 12.3152 19.6808C12.3872 19.7031 12.4615 19.7176 12.5366 19.724C12.5366 19.724 12.4934 19.8374 12.0883 19.8482C11.6832 19.859 11.5805 19.8914 11.5481 19.9346C11.5157 19.9779 11.6238 19.9346 11.8128 19.9833C12.0019 20.0319 12.2611 20.0319 12.2611 20.0319C12.1692 20.0935 12.0667 20.1375 11.9587 20.1615C11.6983 20.2088 11.4419 20.2756 11.1916 20.3614C11.2479 20.408 11.3119 20.4446 11.3807 20.4694C11.2866 20.4892 11.1957 20.5219 11.1106 20.5666L11.197 20.6206C11.1029 20.7354 10.9939 20.8372 10.8729 20.9231C10.5535 21.101 10.2001 21.2096 9.83586 21.2418C9.24709 21.0852 9.17687 20.4424 9.03103 20.3938C8.88519 20.3452 8.71234 20.4694 8.52329 20.3938C8.59168 20.3389 8.66596 20.2918 8.74475 20.2533C8.64753 20.2047 8.14518 19.886 8.14518 19.886C8.09117 19.7726 8.03175 19.6646 7.96693 19.5511C7.90212 19.4377 7.72927 19.1622 7.62124 18.9678C7.50044 18.6586 7.34649 18.3634 7.16211 18.0873C7.19992 18.0441 7.32956 18.0495 7.32956 18.0495L9.09585 18.6329L12.2341 18.7247L13.0498 17.558L13.3955 17.5958L13.4009 17.5688Z" fill="#DFC677"/>
<path fill-rule="evenodd" clip-rule="evenodd" d="M8.75586 19.3459C8.77212 19.3695 8.79454 19.3882 8.82068 19.3999C8.8973 19.4451 8.96805 19.4995 9.03134 19.562C9.05834 19.5296 9.11776 19.4593 9.22579 19.562C9.33382 19.6646 9.46346 19.5944 9.54448 19.616C9.6255 19.6376 9.63631 19.6592 9.63631 19.6592C9.68367 19.6224 9.73653 19.5932 9.79295 19.5728L10.0198 19.5079C10.0923 19.4873 10.1664 19.4728 10.2413 19.4647C10.2953 19.5025 10.4843 19.7078 11.2568 19.4053C12.0292 19.1028 12.148 19.092 12.2722 19.1352C12.2722 19.1352 12.2722 19.0542 12.4829 19.0596C12.4455 18.9399 12.3929 18.8256 12.3263 18.7193L11.4674 18.4222H11.0029L9.59309 18.6815L8.81528 19.1244L8.75586 19.3513V19.3459Z" fill="#C4A859"/>
<path fill-rule="evenodd" clip-rule="evenodd" d="M8.28613 18.8651C8.31837 18.9792 8.39398 19.0761 8.49679 19.1352C8.59108 19.1971 8.67649 19.2716 8.75066 19.3566C8.77439 19.3257 8.79604 19.2932 8.81548 19.2594C8.84789 19.2054 8.8695 19.146 8.91811 19.1298C8.96672 19.1136 9.2368 19.1622 9.28541 19.1298C9.33403 19.0974 9.28541 19.0325 9.35563 19.0325C9.42585 19.0325 9.52308 19.0974 9.56089 19.0974C9.60723 19.1068 9.65499 19.1068 9.70133 19.0974C9.71156 18.9763 9.76529 18.8631 9.85257 18.7787C9.90987 18.7423 9.97494 18.7199 10.0425 18.7133C10.1101 18.7067 10.1782 18.7162 10.2415 18.7409C10.2415 18.7787 10.2415 18.8705 10.3387 18.8759C10.4025 18.8594 10.4694 18.8594 10.5332 18.8759C10.6196 18.8759 10.7222 18.8759 10.7654 19.0109C10.8086 19.0109 10.9059 19.0109 10.8789 18.8489C10.957 18.7945 11.0232 18.7246 11.0733 18.6436C11.0733 18.6112 11.1381 18.568 11.1705 18.514C11.228 18.5063 11.2864 18.5115 11.3415 18.5293C11.3966 18.547 11.4471 18.5769 11.4892 18.6166C11.4576 18.6345 11.4315 18.6606 11.4136 18.6922C11.4505 18.728 11.4831 18.7679 11.5108 18.8111C11.5486 18.8543 11.5703 18.9137 11.6189 18.9299C11.6675 18.9461 11.8889 18.9299 12.0726 18.9299C12.2133 18.9376 12.3503 18.9783 12.4723 19.0487C12.4723 19.0487 12.4723 19.0487 12.5533 19.0487C12.6344 19.0487 12.6614 19.0487 12.5965 18.9839C12.6344 18.9839 12.6722 19.0379 12.71 18.9839C12.7287 18.9556 12.7534 18.9318 12.7823 18.914C12.8112 18.8963 12.8437 18.8851 12.8774 18.8813C12.98 18.8813 13.0179 18.8813 13.0557 18.7787C13.0935 18.676 12.926 18.649 12.926 18.649C12.926 18.649 13.0125 18.568 13.1043 18.4654C13.2396 18.36 13.3379 18.2143 13.3852 18.0495C13.3929 18.0096 13.3923 17.9686 13.3836 17.9289C13.3748 17.8893 13.358 17.8519 13.3342 17.819C13.3104 17.7861 13.2802 17.7584 13.2453 17.7376C13.2103 17.7169 13.1716 17.7035 13.1313 17.6984L11.6459 18.1521L9.83637 18.0657L8.28613 18.8651Z" fill="#927D49"/>
<path fill-rule="evenodd" clip-rule="evenodd" d="M6.95181 14.5709C6.91423 14.6341 6.88859 14.7037 6.87618 14.7762C6.84918 14.9166 6.87619 14.9004 6.83297 15.003C6.68191 15.474 6.61071 15.9669 6.62231 16.4614C6.73575 16.8017 6.9302 16.9314 7.04903 17.2068C7.07421 17.2556 7.09587 17.3062 7.11385 17.3581C7.15166 17.5363 7.11385 17.6768 7.16787 17.855C7.19447 17.9314 7.23679 18.0013 7.2921 18.0603C7.43794 18.2115 7.67021 18.352 7.77284 18.4546C7.87547 18.5572 8.11853 18.9083 8.37781 18.9407C8.55381 18.945 8.727 18.896 8.87475 18.8003C8.99765 18.6984 9.12565 18.6029 9.25825 18.514C9.36157 18.4676 9.47053 18.4349 9.58234 18.4168C9.75922 18.3748 9.94231 18.3656 10.1225 18.3898C10.389 18.469 10.6619 18.525 10.9381 18.5572C11.1206 18.5545 11.3021 18.5291 11.4783 18.4816C11.824 18.379 12.2453 18.2061 12.5208 18.1251C12.6828 18.0819 12.8124 18.0657 12.9475 18.0387C13.1516 18.0116 13.3412 17.9187 13.4876 17.774C13.4174 17.6876 13.3256 17.5579 12.8395 17.5633C12.3288 17.6397 11.8261 17.7627 11.3378 17.9306C11.076 18.0038 10.7975 17.9905 10.5438 17.8928C10.1981 17.7632 10.1873 17.6822 10.1873 17.6822C9.91904 17.4513 9.73951 17.1343 9.67957 16.7855C9.60488 16.5155 9.60144 16.2308 9.6696 15.9591C9.73777 15.6874 9.87519 15.438 10.0685 15.2353C10.0975 15.208 10.1195 15.1741 10.1327 15.1365C10.1458 15.0989 10.1497 15.0587 10.1441 15.0192C10.2875 14.8248 10.3548 14.5846 10.3332 14.344C10.2575 14.0199 9.75519 14.0902 9.75519 14.0902L6.99502 14.5709H6.95181Z" fill="#6E6342"/>
<path fill-rule="evenodd" clip-rule="evenodd" d="M7.36807 15.6512C7.34572 15.6906 7.33627 15.7359 7.34106 15.7809C7.34106 15.8457 7.34106 15.9321 7.56252 16.1266C7.61041 16.1706 7.64714 16.2254 7.66968 16.2865C7.69222 16.3475 7.69992 16.4131 7.69216 16.4777C7.80233 16.4767 7.91033 16.4469 8.00544 16.3913C8.18369 16.3048 8.24311 16.4561 8.24311 16.4561C8.29536 16.4285 8.35202 16.4102 8.41056 16.4021C8.46399 16.3974 8.51568 16.3808 8.5618 16.3534C8.68157 16.4755 8.8158 16.5826 8.96151 16.6721C9.12896 16.7586 9.22619 16.8234 9.30721 16.7586C9.33557 16.7321 9.35686 16.699 9.36912 16.6622C9.38139 16.6254 9.38424 16.5861 9.37743 16.5479C9.35962 16.5036 9.33601 16.4618 9.30721 16.4237C9.25319 16.348 9.16677 16.2562 9.16137 16.1806C9.16137 16.0131 9.291 15.8187 9.25859 15.7701C9.22619 15.7215 9.12356 15.7053 8.85348 15.8025C8.35402 15.813 7.85516 15.7622 7.36807 15.6512Z" fill="#39331F"/>
<path fill-rule="evenodd" clip-rule="evenodd" d="M8.00538 16.737C8.00538 16.737 7.86494 16.6073 7.91355 15.9699C7.97285 15.9646 8.0325 15.9646 8.0918 15.9699C8.13699 16.2286 8.10699 16.4948 8.00538 16.737Z" fill="#292311"/>
<path fill-rule="evenodd" clip-rule="evenodd" d="M7.02159 14.0848C7.03912 14.07 7.05538 14.0538 7.0702 14.0362C6.98448 14.1896 6.93244 14.3595 6.91754 14.5346C6.90264 14.7097 6.92522 14.886 6.98377 15.0517C7.05402 15.3213 7.20593 15.5626 7.41867 15.7424C7.63142 15.9223 7.89459 16.032 8.17211 16.0564C8.40935 16.0584 8.64296 15.998 8.8496 15.8814C9.05623 15.7649 9.22865 15.5961 9.34964 15.392C9.48467 15.2299 9.63592 15.0301 9.76555 14.8897C9.89519 14.7492 10.1221 14.6142 10.1221 14.4035C10.1221 13.9768 9.68453 13.7877 9.04175 13.5933C8.5505 13.4215 8.0177 13.4083 7.51852 13.5555C7.3999 13.6015 7.29341 13.6741 7.20726 13.7678C7.12111 13.8614 7.05759 13.9736 7.02159 14.0956V14.0848Z" fill="#252211"/>
<path fill-rule="evenodd" clip-rule="evenodd" d="M9.08496 16.926H9.13357C9.13357 16.926 9.13357 16.7315 9.2254 16.7369C9.25718 16.7467 9.28468 16.767 9.30335 16.7945C9.32201 16.822 9.33072 16.855 9.32803 16.8882C9.32812 16.9012 9.32544 16.9141 9.32016 16.926C9.31489 16.9379 9.30714 16.9486 9.29743 16.9572C9.28773 16.9659 9.27629 16.9724 9.26387 16.9764C9.25145 16.9803 9.23833 16.9815 9.2254 16.98C9.17641 16.9833 9.12754 16.972 9.08496 16.9476V16.926Z" fill="#3F3824"/>
<path fill-rule="evenodd" clip-rule="evenodd" d="M8.86914 16.1104C8.86914 16.1104 8.91775 16.1104 8.97717 16.1536C9.08442 16.1352 9.19401 16.1352 9.30126 16.1536C9.33491 16.173 9.36285 16.2009 9.38229 16.2346C9.25761 16.2608 9.12885 16.2608 9.00418 16.2346C8.86914 16.2022 8.86914 16.1104 8.86914 16.1104Z" fill="#2D2815"/>
<path fill-rule="evenodd" clip-rule="evenodd" d="M9.94997 16.1644C9.87263 16.0986 9.7796 16.054 9.6799 16.0348C9.6799 16.0348 9.65289 16.0348 9.63128 16.0348C9.60968 16.0348 9.63128 15.9916 9.63128 15.9916L9.55566 16.0348C9.55566 16.0348 9.55566 16.0348 9.58267 16.0834C9.60968 16.132 9.6799 16.1374 9.6961 16.186C9.71231 16.2346 9.6961 16.2508 9.6961 16.2563C9.7387 16.2666 9.78314 16.2666 9.82574 16.2563C9.86355 16.2292 9.94457 16.1914 9.93917 16.1752L9.94997 16.1644Z" fill="#82764F"/>
<path fill-rule="evenodd" clip-rule="evenodd" d="M8.72363 16.6397C8.73088 16.5937 8.75354 16.5516 8.78789 16.5202C8.82224 16.4888 8.86624 16.47 8.91269 16.4669C8.95872 16.4633 9.00446 16.4767 9.04128 16.5046C9.0781 16.5325 9.10344 16.5728 9.11254 16.6181L9.01531 16.7153C9.01531 16.7153 8.93969 16.6073 8.72363 16.6397Z" fill="#2D2816"/>
<path fill-rule="evenodd" clip-rule="evenodd" d="M9.78248 15.9214C9.70101 15.9928 9.59879 16.0364 9.4908 16.0456C9.4722 16.0248 9.46191 15.9979 9.46191 15.97C9.46191 15.9421 9.4722 15.9151 9.4908 15.8944C9.54481 15.8187 9.60423 15.7971 9.66365 15.8187C9.69118 15.8227 9.717 15.8345 9.73805 15.8527C9.75911 15.8709 9.77452 15.8947 9.78248 15.9214Z" fill="#574F35"/>
<path fill-rule="evenodd" clip-rule="evenodd" d="M10.1442 16.0401C10.1442 16.0131 10.1442 16.0077 10.1442 15.9969C10.1442 15.9861 10.2252 15.9645 10.236 15.9969C10.2468 16.0293 10.236 15.9969 10.236 16.0455C10.2418 16.0668 10.2418 16.0891 10.236 16.1103C10.2236 16.1213 10.209 16.1293 10.1931 16.134C10.1772 16.1387 10.1605 16.1398 10.1442 16.1374C10.1442 16.1374 10.1172 16.0995 10.1172 16.0887C10.1172 16.0779 10.1442 16.0509 10.1442 16.0401ZM10.5601 15.7755C10.5601 15.7755 10.6033 15.743 10.6249 15.743C10.6465 15.743 10.6627 15.7701 10.6681 15.7755C10.6681 15.7755 10.6735 15.7809 10.6681 15.7755C10.6681 15.7755 10.7006 15.8349 10.6681 15.8565C10.6611 15.8687 10.6508 15.8787 10.6384 15.8854C10.626 15.8921 10.612 15.8952 10.5979 15.8943C10.5811 15.8561 10.5684 15.8163 10.5601 15.7755Z" fill="#82764F"/>
<path fill-rule="evenodd" clip-rule="evenodd" d="M9.72266 16.0941C9.76979 16.1084 9.81253 16.1344 9.84689 16.1697L9.78748 16.2021C9.77886 16.1598 9.75598 16.1217 9.72266 16.0941Z" fill="#6E6342"/>
<path fill-rule="evenodd" clip-rule="evenodd" d="M9.6091 15.5594C9.6091 15.5594 9.64151 15.5216 9.67392 15.527C9.70633 15.5324 9.71173 15.527 9.74414 15.554C9.77655 15.581 9.78195 15.554 9.79275 15.554C9.80355 15.554 9.84677 15.554 9.85217 15.554C9.85217 15.554 9.85757 15.554 9.85217 15.554C9.84837 15.5465 9.84639 15.5381 9.84639 15.5297C9.84639 15.5212 9.84837 15.5129 9.85217 15.5054C9.86181 15.4991 9.87307 15.4958 9.88458 15.4958C9.89608 15.4958 9.90734 15.4991 9.91699 15.5054C9.91699 15.5054 9.94939 15.581 9.94399 15.5918C9.93859 15.6026 9.86297 15.6242 9.85217 15.5918C9.87202 15.6297 9.89752 15.6643 9.92779 15.6944C9.92779 15.6944 9.87377 15.7376 9.84677 15.7322C9.74584 15.6906 9.6527 15.6322 9.57129 15.5594H9.6091ZM9.92239 15.1597C9.92239 15.1597 9.92239 15.1597 9.92239 15.1273C9.92239 15.0949 9.85217 15.1273 9.85217 15.1597C9.86911 15.2563 9.90196 15.3494 9.94939 15.4352C10.0142 15.5216 10.052 15.5918 10.0952 15.608C10.0998 15.6128 10.1052 15.6165 10.1113 15.6191C10.1173 15.6217 10.1238 15.623 10.1303 15.623C10.1369 15.623 10.1434 15.6217 10.1494 15.6191C10.1555 15.6165 10.1609 15.6128 10.1655 15.608C10.179 15.504 10.179 15.3987 10.1655 15.2947C10.1757 15.1527 10.1757 15.0101 10.1655 14.868C10.1544 14.8601 10.1412 14.8558 10.1276 14.8558C10.1141 14.8558 10.1009 14.8601 10.0898 14.868C10.0384 14.9658 9.99325 15.0669 9.9548 15.1705L9.92239 15.1597Z" fill="#585136"/>
<path fill-rule="evenodd" clip-rule="evenodd" d="M9.7231 16.402C9.69707 16.3891 9.66842 16.3824 9.63938 16.3824C9.61034 16.3824 9.58169 16.3891 9.55566 16.402C9.48003 16.4344 9.48544 16.5802 9.48544 16.5802C9.50186 16.5897 9.52049 16.5947 9.53945 16.5947C9.55841 16.5947 9.57704 16.5897 9.59347 16.5802C9.65198 16.5453 9.6975 16.4922 9.7231 16.429V16.402Z" fill="#574F35"/>
<path fill-rule="evenodd" clip-rule="evenodd" d="M9.86893 16.5911C9.86893 16.5425 9.82031 16.5425 9.82031 16.5209C9.82284 16.5085 9.82963 16.4974 9.8395 16.4895C9.84937 16.4816 9.86169 16.4774 9.87433 16.4777C9.87433 16.4777 9.92294 16.5101 9.95535 16.5263C9.98776 16.5425 10.0256 16.5749 10.031 16.6127C10.0364 16.6505 9.98236 16.7477 9.92294 16.7477C9.86352 16.7477 9.87973 16.6397 9.86893 16.5911ZM10.3389 16.5263C10.3389 16.5263 10.2416 16.5587 10.247 16.5263C10.2516 16.5145 10.2598 16.5044 10.2705 16.4976C10.2812 16.4908 10.2938 16.4876 10.3064 16.4885C10.3236 16.4712 10.3469 16.4615 10.3713 16.4615H10.4037C10.4037 16.4615 10.4739 16.4344 10.4901 16.4615C10.5063 16.4885 10.4901 16.4615 10.4901 16.4993C10.5062 16.5198 10.5173 16.5439 10.5225 16.5695C10.5225 16.5695 10.4469 16.6343 10.3875 16.6235C10.3281 16.6127 10.3497 16.5371 10.3389 16.5263ZM10.906 16.4182C10.906 16.4182 10.906 16.4182 10.906 16.4561C10.8536 16.4878 10.7943 16.5063 10.7332 16.5101C10.6629 16.5101 10.5981 16.5101 10.5981 16.5101C10.5981 16.5101 10.6575 16.4398 10.69 16.429C10.6972 16.4186 10.7069 16.4102 10.7182 16.4046C10.7296 16.3989 10.7421 16.3962 10.7548 16.3966H10.9276C10.9546 16.3966 10.9816 16.3966 10.9654 16.4344C10.9492 16.4723 10.906 16.4344 10.906 16.4344V16.4182ZM11.0735 15.6674C11.0735 15.6674 11.0357 15.7485 10.9924 15.7485C10.9492 15.7485 10.9546 15.7485 10.9546 15.716C10.9546 15.6836 10.9924 15.6566 10.987 15.6458C10.9816 15.635 10.9492 15.6458 10.9546 15.6134C10.9596 15.5977 10.9698 15.5843 10.9836 15.5754C10.9975 15.5665 11.014 15.5628 11.0303 15.5648C11.0579 15.543 11.0923 15.5316 11.1275 15.5324C11.1707 15.5324 11.2031 15.5324 11.2031 15.5648C11.2031 15.5972 11.1545 15.6458 11.1383 15.6566C11.1342 15.6612 11.1292 15.6649 11.1237 15.6674C11.1181 15.67 11.112 15.6713 11.1059 15.6713C11.0997 15.6713 11.0937 15.67 11.0881 15.6674C11.0825 15.6649 11.0775 15.6612 11.0735 15.6566V15.6674ZM10.5333 17.1042C10.5333 17.1042 10.4847 17.1042 10.4847 17.1312C10.4847 17.1582 10.4847 17.1312 10.5171 17.1312C10.5171 17.1312 10.5171 17.1636 10.5603 17.1636C10.5893 17.1586 10.6169 17.1476 10.6413 17.1312C10.6738 17.1312 10.6954 17.1312 10.6954 17.0826C10.6928 17.0659 10.6842 17.0507 10.6713 17.0398C10.6584 17.0289 10.642 17.023 10.6251 17.0232H10.5711C10.5711 17.0232 10.5711 17.0232 10.5171 17.0232C10.4631 17.0232 10.4793 17.0502 10.5171 17.061C10.5549 17.0718 10.5171 17.0934 10.5171 17.0934L10.5333 17.1042ZM10.2578 17.3581C10.2578 17.3581 10.3227 17.3203 10.3389 17.3257C10.3674 17.357 10.3895 17.3938 10.4037 17.4337C10.4037 17.4337 10.3443 17.4769 10.3173 17.4769C10.2902 17.4769 10.2524 17.4337 10.2524 17.4283C10.2524 17.4229 10.2794 17.4283 10.2794 17.4283C10.2794 17.4283 10.2794 17.3851 10.2794 17.3743L10.2578 17.3581ZM10.0688 17.0016C10.0688 17.0016 10.0688 17.0016 10.0958 16.9746C10.1013 16.9706 10.1079 16.9685 10.1147 16.9685C10.1215 16.9685 10.1281 16.9706 10.1336 16.9746C10.138 16.9664 10.1442 16.9593 10.1517 16.9537C10.1591 16.9481 10.1677 16.9442 10.1768 16.9422C10.2038 16.9422 10.2254 16.9422 10.22 16.9422C10.2146 16.9422 10.247 17.007 10.247 17.034C10.247 17.061 10.247 17.0988 10.1714 17.1258C10.1196 17.1354 10.0665 17.1354 10.0148 17.1258C10.0076 17.1145 10.0037 17.1014 10.0037 17.088C10.0037 17.0746 10.0076 17.0615 10.0148 17.0502C10.0291 17.0224 10.0518 16.9998 10.0796 16.9854L10.0688 17.0016Z" fill="#82764F"/>
<path fill-rule="evenodd" clip-rule="evenodd" d="M10.1282 17.0178C10.1282 17.0178 10.085 17.0178 10.085 17.0556C10.085 17.0934 10.085 17.0556 10.085 17.088C10.085 17.1205 10.1336 17.088 10.1444 17.088C10.1552 17.088 10.1282 17.0286 10.1282 17.0178Z" fill="#6E6342"/>
<path fill-rule="evenodd" clip-rule="evenodd" d="M9.76584 16.9044C9.7982 16.902 9.8307 16.902 9.86306 16.9044C9.86306 16.9044 9.90627 16.9422 9.86306 16.9692C9.81985 16.9962 9.81445 17.0448 9.76584 17.034C9.71722 17.0232 9.6416 17.0016 9.6416 16.9746C9.64192 16.9429 9.65339 16.9123 9.67401 16.8882C9.67401 16.8882 9.71182 16.8882 9.74963 16.8882L9.76584 16.9044Z" fill="#585136"/>
<path fill-rule="evenodd" clip-rule="evenodd" d="M9.72311 16.926C9.68902 16.9548 9.65656 16.9855 9.62588 17.0179C9.59887 17.0449 9.48004 17.1961 9.44763 17.2285C9.45698 17.2068 9.46975 17.1868 9.48544 17.1691C9.43852 17.2005 9.40263 17.2459 9.38281 17.2987C9.38281 17.3906 9.55026 17.4392 9.67449 17.4716L9.84734 17.5202C9.7995 17.4502 9.75793 17.3761 9.72311 17.2987C9.67449 17.1853 9.65289 17.1745 9.6853 17.1205C9.71771 17.0665 9.74471 17.0341 9.74471 16.9908L9.72311 16.926Z" fill="#574F35"/>
<path fill-rule="evenodd" clip-rule="evenodd" d="M6.97363 17.1205H7.02225C7.28538 17.0347 7.56122 16.9945 7.83787 17.0017C8.13353 17.019 8.4267 17.066 8.71292 17.1421C9.20986 17.2771 9.83103 17.5364 10.2307 17.6822C10.3334 17.7255 10.4414 17.7957 10.517 17.8281C10.675 17.9008 10.8422 17.9517 11.014 17.9793C11.2354 17.985 11.4562 17.9539 11.6675 17.8875C11.943 17.8281 12.4184 17.7957 12.8343 17.7363C12.9679 17.7184 13.0998 17.6895 13.2286 17.6498C12.9066 17.907 12.5156 18.063 12.1051 18.0982C11.7842 18.1414 11.459 18.1414 11.1382 18.0982C10.9557 18.0814 10.775 18.0489 10.598 18.0009C10.4576 17.9577 10.1605 17.8497 9.80402 17.7579C9.55015 17.6931 9.26387 17.6444 8.94518 17.585C8.27554 17.4928 7.61685 17.3336 6.97903 17.1097L6.97363 17.1205Z" fill="#252211"/>
<path fill-rule="evenodd" clip-rule="evenodd" d="M6.07677 15.6242C5.88771 15.7862 5.68246 15.9429 5.4826 16.0941L4.86143 16.5478L4.25646 17.007C4.0512 17.1582 3.84594 17.2986 3.62988 17.4391C3.82434 17.277 4.02959 17.1258 4.22945 16.9746C4.42931 16.8233 4.66697 16.7045 4.86143 16.5316L5.461 16.0725C5.66625 15.9213 5.86611 15.7646 6.07137 15.6188L6.07677 15.6242ZM4.99647 17.3257C4.99647 17.3257 5.21253 17.142 5.4826 16.8935C5.76043 16.6157 6.0525 16.3525 6.35765 16.1049L5.01807 17.3203L4.99647 17.3257Z" fill="#CFB66C"/>
<path fill-rule="evenodd" clip-rule="evenodd" d="M5.01758 17.3203C5.12561 17.2122 5.23904 17.1096 5.35247 17.007L5.52532 16.8557L5.69277 16.6991L6.01146 16.3696C6.06547 16.3156 6.11949 16.2616 6.1789 16.2129C6.20871 16.1877 6.24134 16.1659 6.27613 16.1481C6.30593 16.1228 6.34098 16.1043 6.37876 16.0941C6.35175 16.1319 6.32474 16.1481 6.30314 16.1805C6.28153 16.2129 6.24912 16.2346 6.22212 16.2562L6.05467 16.4074L5.70897 16.7045C5.59554 16.8017 5.48751 16.9151 5.37408 17.0124C5.26065 17.1096 5.13641 17.223 5.01758 17.3203ZM6.48139 16.348C6.48139 16.348 5.67656 17.1204 5.51452 17.2446L6.48139 16.348Z" fill="#CFB66C"/>
<path fill-rule="evenodd" clip-rule="evenodd" d="M6.48146 16.348C6.40814 16.4294 6.33062 16.507 6.24919 16.5803L6.01153 16.8072C5.9305 16.8882 5.86028 16.9638 5.77926 17.0394C5.69824 17.115 5.61722 17.1853 5.52539 17.2555L5.75766 17.0232C5.83328 16.9476 5.9197 16.8828 6.00613 16.8017L6.23839 16.5749C6.3141 16.4938 6.39532 16.418 6.48146 16.348ZM6.51387 16.7693C6.44172 16.9725 6.35693 17.1709 6.26 17.3635C6.05474 17.7686 5.71985 18.2818 5.61722 18.541L6.48146 16.7693H6.51387Z" fill="#CFB66C"/>
<path fill-rule="evenodd" clip-rule="evenodd" d="M6.48161 16.7694C6.48035 16.8533 6.46197 16.936 6.4276 17.0125C6.40078 17.0904 6.36828 17.1662 6.33037 17.2393C6.29613 17.3159 6.25642 17.3899 6.21154 17.4608L6.0873 17.6769L5.84423 18.109C5.75781 18.2548 5.67679 18.4007 5.58496 18.5357C5.65121 18.3844 5.72513 18.2366 5.80642 18.0928C5.89285 17.9469 5.96847 17.8065 6.04409 17.6553C6.08275 17.5817 6.11702 17.506 6.14672 17.4284C6.18453 17.3528 6.22234 17.2772 6.24935 17.2069C6.27635 17.1367 6.31416 17.0557 6.35198 16.9855C6.38997 16.9104 6.4333 16.8382 6.48161 16.7694Z" fill="#CFB66C"/>
<path fill-rule="evenodd" clip-rule="evenodd" d="M7.36775 18.7571C7.22136 18.9696 7.14575 19.2229 7.15169 19.4809C7.21651 19.2702 7.30294 18.9461 7.36775 18.7571ZM7.60002 19.0758C7.60002 19.0758 7.51359 19.94 7.44337 20.3667C7.5477 19.9443 7.6003 19.5108 7.60002 19.0758ZM9.18266 20.4153C9.02519 20.8552 8.90238 21.3067 8.81536 21.7657C8.89098 21.4632 9.04222 20.8475 9.18266 20.4153Z" fill="#DEC270"/>
<path fill-rule="evenodd" clip-rule="evenodd" d="M10.0254 18.6923C10.0254 18.6923 10.6088 19.6537 11.0463 20.4748C10.8666 19.802 10.5148 19.1877 10.0254 18.6923Z" fill="#CBAF59"/>
<path fill-rule="evenodd" clip-rule="evenodd" d="M11.5918 20.1075C11.9111 20.6731 12.1996 21.2555 12.456 21.8522C12.3985 21.1824 12.0898 20.5592 11.5918 20.1075Z" fill="#E3C677"/>
<path fill-rule="evenodd" clip-rule="evenodd" d="M16.2046 21.5226C16.3018 21.4632 16.4963 21.1337 16.6637 21.0527C16.8298 20.9971 16.9812 20.9047 17.1067 20.7826C17.2362 20.5873 17.4258 20.4394 17.6468 20.3613C18.1059 20.1615 17.7872 19.9076 17.7872 19.9076C17.8385 19.8577 17.8926 19.8108 17.9493 19.7671C18.0207 19.7292 18.081 19.6734 18.1246 19.6053C18.1681 19.5372 18.1933 19.459 18.1978 19.3782C18.1961 18.9951 18.0647 18.6239 17.8251 18.3249C18.0843 18.2709 18.5759 18.2331 18.9054 18.1575C19.097 18.1186 19.28 18.0454 19.4455 17.9414C19.3825 17.832 19.3563 17.7051 19.3709 17.5797C19.3855 17.4542 19.4401 17.3367 19.5265 17.2446C19.8401 16.9705 20.1097 16.6499 20.326 16.294C19.8304 16.1969 19.3168 16.2633 18.8621 16.483C18.9089 16.505 18.954 16.5302 18.9972 16.5586C18.7344 16.6277 18.4832 16.7351 18.2518 16.8773C17.9061 17.169 17.8629 17.4175 17.4848 17.5903C17.1067 17.7632 16.734 17.72 16.4045 17.8658C16.2352 17.9571 16.0759 18.0657 15.9291 18.1899C15.9561 18.2223 15.9291 18.2709 15.9723 18.3087C15.9399 18.3519 15.7725 18.6274 15.5996 18.6274C15.5996 18.6922 15.7617 18.7409 15.7617 18.7409C15.6465 18.8063 15.516 18.8398 15.3836 18.8381C15.5654 19.0494 15.7785 19.2315 16.0156 19.3782C15.9831 19.4377 15.8643 19.5295 15.9129 19.6429C15.9615 19.7563 16.1074 19.913 16.6583 20.0372C16.2994 20.0789 15.9369 20.0789 15.578 20.0372C15.3184 19.9787 15.049 19.9787 14.7894 20.0372C14.8164 20.0696 14.8974 20.0696 14.9623 20.1452C14.892 20.1452 14.4221 20.0912 14.2817 20.2965C14.122 20.5273 14.044 20.8049 14.0602 21.0851C14.0083 21.1035 13.9656 21.1415 13.9414 21.191C13.9172 21.2405 13.9133 21.2975 13.9306 21.3498C13.9738 21.501 14.1898 21.5496 14.3303 21.6469C14.4707 21.7441 14.4761 21.7819 14.6112 21.7603C14.7462 21.7387 14.9893 21.5658 15.1243 21.5658C15.2017 21.57 15.2749 21.6027 15.3296 21.6577C15.3296 21.6577 15.6536 21.501 15.6807 21.528C15.7077 21.555 15.6807 21.7441 15.7185 21.7765C15.8926 21.7112 16.0578 21.6241 16.21 21.5172L16.2046 21.5226Z" fill="#ECD592"/>
<path fill-rule="evenodd" clip-rule="evenodd" d="M23.254 11.8108C22.8105 10.6716 22.1003 9.65521 21.183 8.84696C20.2658 8.03872 19.1681 7.46213 17.9821 7.16553H7.28711L7.32492 11.1572H9.48552V20.0697H7.32492V24.0507H17.6904C20.1967 24.0507 22.2061 21.5336 22.2061 21.5336C25.447 16.9639 23.254 11.8108 23.254 11.8108ZM17.7444 18.8652C17.7444 18.8652 16.9288 20.0427 16.0376 20.0427H14.2659L14.2227 11.1843H16.5021C16.5021 11.1843 17.5554 11.4057 18.2954 13.4961C18.2954 13.4637 19.2731 16.4723 17.7444 18.8652Z" fill="white" fill-opacity="0.8"/>
</g>
<defs>
<clipPath id="clip0_0_2580">
<rect width="30" height="30" fill="white" transform="translate(0 0.5)"/>
</clipPath>
</defs>
</svg>
