<svg width="30" height="31" viewBox="0 0 30 31" fill="none" xmlns="http://www.w3.org/2000/svg">
<g clip-path="url(#clip0_0_2804)">
<path d="M15 30.5C23.2843 30.5 30 23.7843 30 15.5C30 7.21573 23.2843 0.5 15 0.5C6.71573 0.5 0 7.21573 0 15.5C0 23.7843 6.71573 30.5 15 30.5Z" fill="#E6007A"/>
<path d="M15.69 7.0625C12.2147 7.0625 9.375 9.88625 9.375 13.3775C9.375 14.0797 9.49125 14.765 9.70875 15.4325C9.78574 15.6529 9.94618 15.8342 10.1555 15.9375C10.3649 16.0408 10.6064 16.0577 10.8281 15.9847C11.0483 15.9075 11.2294 15.747 11.3325 15.5377C11.4356 15.3283 11.4524 15.0869 11.3794 14.8653C11.1961 14.3449 11.1112 13.7949 11.1291 13.2434C11.1956 10.8884 13.1006 8.94969 15.4566 8.83344C16.0737 8.80101 16.6909 8.89446 17.2708 9.10811C17.8507 9.32175 18.381 9.65112 18.8296 10.0762C19.2781 10.5012 19.6355 11.0131 19.8801 11.5806C20.1246 12.1482 20.2511 12.7595 20.2519 13.3775C20.2505 14.5397 19.8052 15.6574 19.0071 16.5022C18.209 17.3471 17.1184 17.8551 15.9581 17.9225C15.9581 17.9225 15.0722 17.9722 14.6381 18.0397C14.4206 18.0725 14.2538 18.1063 14.1366 18.1231C14.0859 18.14 14.0363 18.0894 14.0522 18.0388L14.2031 17.3047L15.0216 13.5284C15.0693 13.3026 15.0259 13.0672 14.9009 12.8732C14.7759 12.6792 14.5794 12.5424 14.3541 12.4925C14.1281 12.4448 13.8925 12.4883 13.6985 12.6135C13.5045 12.7387 13.3678 12.9354 13.3181 13.1609C13.3181 13.1609 11.3466 22.3503 11.3297 22.4506C11.282 22.6765 11.3255 22.9122 11.4507 23.1062C11.5759 23.3002 11.7726 23.4369 11.9981 23.4866C12.224 23.5342 12.4597 23.4908 12.6537 23.3656C12.8477 23.2404 12.9844 23.0436 13.0341 22.8181C13.05 22.7178 13.3181 21.4981 13.3181 21.4981C13.413 21.051 13.6437 20.644 13.9786 20.3329C14.3136 20.0218 14.7364 19.8217 15.1894 19.76C15.5171 19.7241 15.8456 19.6963 16.1747 19.6766C17.7609 19.5529 19.2422 18.8358 20.3231 17.6683C21.4039 16.5007 22.0049 14.9685 22.0059 13.3775C22.0059 9.88625 19.1653 7.0625 15.69 7.0625ZM16.1409 21.5984C16.0049 21.5691 15.8644 21.567 15.7276 21.5924C15.5907 21.6177 15.4603 21.67 15.3438 21.7461C15.2273 21.8222 15.1271 21.9207 15.0489 22.0359C14.9707 22.151 14.9162 22.2805 14.8884 22.4169C14.7713 22.985 15.1228 23.5531 15.7069 23.6703C15.843 23.6998 15.9837 23.7019 16.1207 23.6766C16.2577 23.6512 16.3883 23.5989 16.5049 23.5227C16.6215 23.4465 16.7218 23.3478 16.8 23.2325C16.8782 23.1172 16.9327 22.9875 16.9603 22.8509C17.0766 22.2669 16.7259 21.7147 16.1409 21.5984Z" fill="white"/>
</g>
<defs>
<clipPath id="clip0_0_2804">
<rect width="30" height="30" fill="white" transform="translate(0 0.5)"/>
</clipPath>
</defs>
</svg>
