<svg width="10" height="10" viewBox="0 0 10 10" fill="none" xmlns="http://www.w3.org/2000/svg">
<g clip-path="url(#clip0_0_3463)">
<path d="M9.98048 7.4212C9.96654 7.09506 9.74809 6.91495 9.45988 6.92164C9.1743 6.92825 8.98593 7.11155 8.95911 7.44491C8.93944 7.68981 8.95629 7.93732 8.95085 8.18356C8.93723 8.8015 8.80013 8.94428 8.16722 8.95647C7.55757 8.96822 6.94749 8.96032 6.3376 8.96037C4.92856 8.96048 3.51948 8.9615 2.11042 8.95959C1.14003 8.95829 1.05593 8.87646 1.0513 7.95565C1.05046 7.79146 1.05893 7.62626 1.04348 7.46331C1.0106 7.11651 0.844033 6.93607 0.562021 6.9205C0.257608 6.90368 0.0357324 7.10571 0.0124574 7.46293C-0.00883011 7.79012 0.00313239 8.11954 0.00534489 8.44794C0.0125574 9.5111 0.49512 9.98816 1.58471 9.99424C2.72032 10.0006 3.85601 9.99565 4.99167 9.99591C5.32816 9.99618 5.66467 9.99629 6.00115 9.99617C6.86342 9.99587 7.7259 10.0076 8.58785 9.99148C9.3478 9.9773 9.90351 9.54823 9.96768 8.89748C10.0158 8.40921 10.0015 7.91265 9.98048 7.4212ZM1.16266 4.15188C2.24685 5.2107 3.33118 6.26939 4.41551 7.32809C4.46006 7.3716 4.50544 7.4143 4.54969 7.45808C4.72417 7.63074 4.92772 7.72806 5.17431 7.63688C5.25475 7.60713 5.31454 7.56229 5.36566 7.51142C5.39941 7.48861 5.43249 7.46352 5.46252 7.43502C6.01997 6.90593 8.39544 4.57988 8.94423 4.04209C9.00318 3.98432 9.05983 3.92223 9.10632 3.85478C9.25552 3.6382 9.23508 3.42604 9.05812 3.23653C8.8771 3.0427 8.64914 3.03456 8.42445 3.1424C8.31537 3.19476 8.22552 3.29097 8.1367 3.37696C7.76732 3.73454 6.4313 5.03739 5.53672 5.91187C5.53719 4.54599 5.53734 3.18013 5.53706 1.81424C5.53699 1.40411 5.55039 0.99324 5.52955 0.584088C5.51016 0.204013 5.32117 0.0101192 5.01689 0.00038298C4.70476 -0.00960939 4.51539 0.175987 4.47284 0.55072C4.45671 0.692699 4.46522 0.837509 4.46515 0.981038C4.46465 1.88332 4.46488 2.78562 4.46488 3.68792C4.46487 4.36265 4.46488 5.03737 4.46488 5.71211C4.4169 5.73284 4.36892 5.75355 4.32093 5.77428C4.04305 5.50407 3.76482 5.23413 3.4873 4.96357C2.90765 4.39836 2.33552 3.82559 1.7457 3.2707C1.4794 3.02016 1.17071 3.01605 0.958674 3.21299C0.730136 3.42526 0.738186 3.67798 0.987086 3.97547C1.04002 4.03872 1.10327 4.09386 1.16266 4.15188Z" fill="white" fill-opacity="0.5"/>
</g>
<defs>
<clipPath id="clip0_0_3463">
<rect width="10" height="10" fill="white"/>
</clipPath>
</defs>
</svg>
