<svg width="4" height="16" viewBox="0 0 4 16" fill="none" xmlns="http://www.w3.org/2000/svg">
<path d="M0.941683 0.276892C0.304659 0.526706 0.00488281 0.98886 0.00488281 1.71332C0.0111281 2.43778 0.323395 2.91242 0.947928 3.14975C1.37261 3.30588 1.68488 3.30588 2.10956 3.14975C2.73409 2.91242 3.04636 2.43778 3.05261 1.71332C3.05261 0.995106 2.74034 0.514215 2.10956 0.276892C1.69112 0.120759 1.34138 0.120759 0.941683 0.276892Z" fill="white"/>
<path d="M1.14133 6.49793C0.735388 6.57912 0.341932 6.89138 0.135836 7.28484C-0.0452787 7.63458 -0.0452787 8.37153 0.135836 8.72127C0.298215 9.03353 0.616727 9.32706 0.904012 9.44573C1.23501 9.57688 1.94698 9.54565 2.24676 9.38952C2.79635 9.10848 3.04616 8.6713 3.04616 8.00305C3.04616 7.32856 2.79635 6.89763 2.22178 6.6041C2.00944 6.49168 1.43487 6.43547 1.14133 6.49793Z" fill="white"/>
<path d="M0.941683 12.8499C0.304659 13.0997 0.00488281 13.5619 0.00488281 14.2863C0.0111281 15.0108 0.323395 15.4854 0.947928 15.7227C1.37261 15.8789 1.68488 15.8789 2.10956 15.7227C2.73409 15.4854 3.04636 15.0108 3.05261 14.2863C3.05261 13.5681 2.74034 13.0872 2.10956 12.8499C1.69112 12.6938 1.34138 12.6938 0.941683 12.8499Z" fill="white"/>
</svg>
