<svg width="82" height="77" viewBox="0 0 82 77" fill="none" xmlns="http://www.w3.org/2000/svg">
<g opacity="0.6">
<path opacity="0.5" d="M51.8462 13.2037L63.941 56.6819C64.3363 58.1839 63.4667 59.6859 61.9648 60.0811L19.3561 71.3855C17.8541 71.7807 16.3521 70.9112 15.9569 69.4092L1.0952 13.2827C0.699952 11.7807 1.5695 10.2788 3.0715 9.88351L33.9015 1.74121L51.8462 13.2037Z" fill="#2E333D" stroke="#494E59" stroke-width="0.8" stroke-miterlimit="10"/>
<path d="M80.7826 24.4565L73.5098 69.0415C73.2727 70.5435 71.7707 71.5711 70.2687 71.2549L26.9486 63.666C25.4466 63.4288 24.4189 61.9269 24.6561 60.4249L34.6956 3.2707C34.9328 1.7688 36.4348 0.741102 37.9367 1.0573L69.3992 6.5909L80.7826 24.4565Z" fill="#2E333D" stroke="#494E59" stroke-width="0.8" stroke-miterlimit="10"/>
<path d="M57.3832 29.1288L36.5927 25.4924C36.1184 25.4134 35.8022 24.9391 35.8813 24.4648C35.9603 23.9905 36.4346 23.6743 36.9089 23.7533L57.6994 27.3897C58.1738 27.4687 58.49 27.943 58.4109 28.4173C58.3319 28.8126 57.8575 29.2079 57.3832 29.1288Z" fill="#494E59"/>
<path d="M38.9995 12.7412L41.2633 15.8385C41.5635 16.2492 42.1241 16.3691 42.5659 16.1172L47.7189 13.1796C48.1579 12.9293 48.7147 13.0459 49.0164 13.4513L52.4137 18.0165C52.72 18.4281 53.2881 18.5411 53.7286 18.278L62.9995 12.7412" stroke="#494E59" stroke-width="1.5" stroke-linecap="round"/>
<path d="M43.7073 31.8167L35.7231 30.3938C35.2488 30.3148 34.9326 29.8405 35.0116 29.3661C35.0907 28.8918 35.565 28.5756 36.0393 28.6547L43.9444 30.0776C44.4187 30.1567 44.735 30.631 44.6559 31.1053C44.5769 31.5796 44.1025 31.8958 43.7073 31.8167Z" fill="#494E59"/>
<path d="M69.3202 6.59106L67.1858 18.844C66.8696 20.5832 68.1344 22.2432 69.8735 22.5594L80.7826 24.4567" fill="#494E59"/>
<path d="M78.6572 76C78.1082 76 77.5593 75.7781 77.1201 75.2788L67.9529 66.0139L67.6235 66.2358C64.6592 68.4549 61.2009 69.62 57.6877 69.62C53.4609 69.62 49.2341 67.9001 46.1051 64.9043C42.8115 61.742 41 57.4702 41 52.81C41 43.5451 48.4656 36 57.6328 36C63.8907 36 69.3801 39.3287 72.3444 44.9875C75.2537 50.5908 74.8695 57.1373 71.3014 62.4078L71.0818 62.7406L80.304 72.061C81.2372 73.0042 81.0176 73.9473 80.8529 74.4466C80.4138 75.3343 79.5355 76 78.6572 76ZM57.6328 40.6047C50.9358 40.6047 45.5562 46.0971 45.5562 52.81C45.5562 60.466 51.7592 65.0707 57.7975 65.0707C61.4754 65.0707 64.8239 63.4064 67.1844 60.4105C70.0937 56.749 70.5878 51.8114 68.5567 47.5395C66.4707 43.2677 62.2988 40.6047 57.6328 40.6047Z" fill="#4B5161" stroke="#7E889D" stroke-width="0.5" stroke-miterlimit="10"/>
</g>
</svg>
