<svg xmlns="http://www.w3.org/2000/svg" xmlns:xlink="http://www.w3.org/1999/xlink" width="20" height="20" viewBox="0 0 20 20" version="1.1">
    <title>eye-on</title>
    <g id="web登录注册" stroke="none" stroke-width="1" fill="none" fill-rule="evenodd">
        <g id="切图" transform="translate(-183.000000, -91.000000)">
            <g id="编组" transform="translate(183.000000, 91.000000)">
                <rect id="矩形" x="0" y="0" width="20" height="20"/>
                <g transform="translate(0.000000, 3.000000)" fill="#798383" fill-rule="nonzero">
                    <path d="M12.6644282,6.5 C12.6644282,6.54235782 12.6644282,6.58471564 12.660478,6.62707346 C12.6565278,6.66943128 12.6565278,6.7117891 12.6525775,6.75414692 C12.6486273,6.79650474 12.6446771,6.83886256 12.6367766,6.88122038 L12.6130753,7.00829384 C12.6051748,7.05065166 12.5933241,7.09300948 12.5854237,7.13151659 C12.573573,7.17387441 12.5617223,7.21238152 12.5498716,7.25473934 C12.5380209,7.29709716 12.52222,7.33560427 12.5103693,7.37411137 C12.4945684,7.41261848 12.4787675,7.4549763 12.4629666,7.49348341 C12.4471657,7.53199052 12.4274146,7.57049763 12.4116137,7.60900474 L12.3523603,7.72452607 C12.3326091,7.76303318 12.3089078,7.79768957 12.2891566,7.83619668 C12.2694055,7.87470379 12.2417539,7.90936019 12.2180525,7.94401659 C12.1943512,7.97867299 12.1706498,8.01332938 12.1429982,8.04798578 C12.1153466,8.08264218 12.0916453,8.11729858 12.0639937,8.14810427 C12.0363421,8.18276066 12.0086905,8.21356635 11.9770887,8.24437204 C11.9494371,8.27517773 11.9178353,8.30598341 11.8862335,8.3367891 C11.8546316,8.36759479 11.8230298,8.39454976 11.791428,8.42535545 C11.7598262,8.45231043 11.7242741,8.48311611 11.6926723,8.51007109 C11.6571203,8.53702607 11.6255185,8.56398104 11.5899664,8.58708531 C11.5544144,8.61404028 11.5188623,8.63714455 11.4833103,8.66024882 C11.4477582,8.68335308 11.408256,8.70645735 11.3727039,8.72956161 C11.3371519,8.75266588 11.2976496,8.77191943 11.2581473,8.79117299 L11.1396405,8.84893365 C11.1001383,8.8681872 11.060636,8.88359005 11.0211337,8.89899289 C10.9816314,8.91439573 10.9381789,8.92979858 10.8986767,8.94520142 C10.8591744,8.96060427 10.8157219,8.9721564 10.7762196,8.98370853 C10.7327671,8.99526066 10.6932649,9.0068128 10.6498124,9.01836493 C10.6063599,9.02991706 10.5668576,9.03761848 10.5234051,9.04531991 L10.3930476,9.06842417 C10.3495951,9.07612559 10.3061426,9.0799763 10.2626901,9.08382701 C10.2192376,9.08767773 10.1757851,9.09152844 10.1323326,9.09152844 C10.0888801,9.09537915 10.0454276,9.09537915 10.0019751,9.09537915 C9.95852262,9.09537915 9.91507012,9.09537915 9.87161762,9.09152844 C9.82816512,9.08767773 9.78471262,9.08767773 9.74126012,9.08382701 C9.69780762,9.0799763 9.65435513,9.07612559 9.61090263,9.06842417 L9.48054513,9.04531991 C9.43709263,9.03761848 9.39364013,9.02606635 9.35413786,9.01836493 C9.31068536,9.0068128 9.27118309,8.99526066 9.22773059,8.98370853 C9.1842781,8.9721564 9.14477582,8.95675355 9.10527355,8.94520142 C9.06577128,8.92979858 9.02231878,8.91439573 8.98281651,8.89899289 C8.94331424,8.88359005 8.90381197,8.86433649 8.8643097,8.84893365 L8.74580288,8.79117299 C8.70630061,8.77191943 8.67074857,8.74881517 8.6312463,8.72956161 C8.59174403,8.71030806 8.55619198,8.68335308 8.52063994,8.66024882 C8.48508789,8.63714455 8.44953585,8.61404028 8.4139838,8.58708531 C8.37843176,8.56013033 8.34287972,8.53702607 8.3112779,8.51007109 C8.27572585,8.48311611 8.24412404,8.45616114 8.21252222,8.42535545 C8.1809204,8.39840047 8.14931859,8.36759479 8.11771677,8.3367891 C8.08611495,8.30598341 8.05846336,8.27517773 8.02686154,8.24437204 C7.99920995,8.21356635 7.96760814,8.17890995 7.93995655,8.14810427 C7.91230496,8.11344787 7.88465337,8.08264218 7.860952,8.04798578 C7.83330041,8.01332938 7.80959905,7.97867299 7.78589769,7.94401659 C7.76219633,7.90936019 7.73849496,7.87085308 7.7147936,7.83619668 C7.69109224,7.80154028 7.6713411,7.76303318 7.65158997,7.72452607 L7.59233656,7.60900474 C7.57258542,7.57049763 7.55678452,7.53199052 7.54098361,7.49348341 C7.5251827,7.4549763 7.50938179,7.41261848 7.49358088,7.37411137 C7.47777997,7.33560427 7.46592929,7.29324645 7.45407861,7.25473934 C7.44222793,7.21238152 7.43037725,7.17387441 7.41852657,7.13151659 C7.40667588,7.08915877 7.39877543,7.05065166 7.39087498,7.00829384 L7.36717361,6.88122038 C7.35927316,6.83886256 7.35532293,6.79650474 7.3513727,6.75414692 C7.34742248,6.7117891 7.34347225,6.66943128 7.34347225,6.62707346 C7.33952202,6.58471564 7.33952202,6.54235782 7.33952202,6.5 C7.33952202,6.45764218 7.33952202,6.41528436 7.34347225,6.37292654 C7.34742248,6.33056872 7.34742248,6.2882109 7.3513727,6.24585308 C7.35532293,6.20349526 7.35927316,6.16113744 7.36717361,6.11877962 L7.39087498,5.99170616 C7.39877543,5.94934834 7.41062611,5.90699052 7.41852657,5.86848341 C7.43037725,5.82612559 7.44222793,5.78761848 7.45407861,5.74526066 C7.46592929,5.70290284 7.4817302,5.66439573 7.49358088,5.62588863 C7.50938179,5.58738152 7.5251827,5.5450237 7.54098361,5.50651659 C7.55678452,5.46800948 7.57653565,5.42950237 7.59233656,5.39099526 L7.65158997,5.27547393 C7.6713411,5.23696682 7.69504246,5.20231043 7.7147936,5.16380332 C7.73849496,5.12914692 7.76219633,5.09063981 7.78589769,5.05598341 C7.80959905,5.02132701 7.83330041,4.98667062 7.860952,4.95201422 C7.88860359,4.91735782 7.91230496,4.88270142 7.93995655,4.85189573 C7.96760814,4.81723934 7.99525973,4.78643365 8.02686154,4.75562796 C8.05451313,4.72482227 8.08611495,4.69401659 8.11771677,4.6632109 C8.14931859,4.63240521 8.1809204,4.60545024 8.21252222,4.57464455 C8.24412404,4.54768957 8.27967608,4.51688389 8.3112779,4.48992891 C8.34682994,4.46297393 8.37843176,4.43601896 8.4139838,4.41291469 C8.44953585,4.38595972 8.48508789,4.36285545 8.52063994,4.33975118 C8.55619198,4.31664692 8.59569425,4.29354265 8.6312463,4.27043839 C8.66679834,4.24733412 8.70630061,4.22808057 8.74580288,4.20882701 L8.8643097,4.15106635 C8.90381197,4.1318128 8.94331424,4.11640995 8.98281651,4.10100711 C9.02231878,4.08560427 9.06577128,4.07020142 9.10527355,4.05479858 C9.14477582,4.03939573 9.18822832,4.0278436 9.22773059,4.01629147 C9.27118309,4.00473934 9.31068536,3.9931872 9.35413786,3.98163507 C9.39759036,3.97008294 9.43709263,3.96238152 9.48054513,3.95468009 L9.61090263,3.93157583 C9.65435513,3.92387441 9.69780762,3.9200237 9.74126012,3.91617299 C9.78471262,3.91232227 9.82816512,3.90847156 9.87161762,3.90847156 C9.91507012,3.90462085 9.95852262,3.90462085 10.0019751,3.90462085 C10.0454276,3.90462085 10.0888801,3.90462085 10.1323326,3.90847156 C10.1757851,3.91232227 10.2192376,3.91232227 10.2626901,3.91617299 C10.3061426,3.9200237 10.3495951,3.92387441 10.3930476,3.93157583 L10.5234051,3.95468009 C10.5668576,3.96238152 10.6103101,3.97393365 10.6498124,3.98163507 C10.6932649,3.9931872 10.7327671,4.00473934 10.7762196,4.01629147 C10.8196721,4.0278436 10.8591744,4.04324645 10.8986767,4.05479858 C10.9381789,4.07020142 10.9816314,4.08560427 11.0211337,4.10100711 C11.060636,4.11640995 11.1001383,4.13566351 11.1396405,4.15106635 L11.2581473,4.20882701 C11.2976496,4.22808057 11.3332017,4.25118483 11.3727039,4.27043839 C11.408256,4.29354265 11.4477582,4.31664692 11.4833103,4.33975118 C11.5188623,4.36285545 11.5544144,4.38595972 11.5899664,4.41291469 C11.6255185,4.43986967 11.6610705,4.46297393 11.6926723,4.48992891 C11.7282244,4.51688389 11.7598262,4.54383886 11.791428,4.57464455 C11.8230298,4.60159953 11.8546316,4.63240521 11.8862335,4.6632109 C11.9178353,4.69401659 11.9454869,4.72482227 11.9770887,4.75562796 C12.0047403,4.78643365 12.0363421,4.82109005 12.0639937,4.85189573 C12.0916453,4.88655213 12.1192969,4.91735782 12.1429982,4.95201422 C12.1706498,4.98667062 12.1943512,5.02132701 12.2180525,5.05598341 C12.2417539,5.09063981 12.2654553,5.12914692 12.2891566,5.16380332 C12.312858,5.19845972 12.3326091,5.23696682 12.3523603,5.27547393 L12.4116137,5.39099526 C12.4313648,5.42950237 12.4471657,5.46800948 12.4629666,5.50651659 C12.4787675,5.5450237 12.4945684,5.58738152 12.5103693,5.62588863 C12.5261703,5.66439573 12.5380209,5.70675355 12.5498716,5.74526066 C12.5617223,5.78761848 12.573573,5.82612559 12.5854237,5.86848341 C12.5972743,5.91084123 12.6051748,5.94934834 12.6130753,5.99170616 L12.6367766,6.11877962 C12.6446771,6.16113744 12.6486273,6.20349526 12.6525775,6.24585308 C12.6565278,6.2882109 12.660478,6.33056872 12.660478,6.37292654 C12.6644282,6.41528436 12.6644282,6.45764218 12.6644282,6.5 Z" id="路径"/>
                    <path d="M9.99802489,10.3969194 C9.93087103,10.3969194 9.86766739,10.3969194 9.80051353,10.3930687 C9.73335967,10.389218 9.67015603,10.3853673 9.60300217,10.3776659 C9.53584831,10.3699645 9.47264468,10.362263 9.40944104,10.3545616 C9.34623741,10.3468602 9.27908355,10.3353081 9.21587991,10.3237559 C9.15267628,10.3122038 9.08947264,10.2968009 9.02626901,10.2813981 C8.96306538,10.2659953 8.89986174,10.2505924 8.83665811,10.2313389 C8.77345447,10.2120853 8.71025084,10.1928318 8.65099743,10.1697275 C8.59174403,10.1466232 8.52854039,10.123519 8.46928698,10.1004147 C8.41003358,10.0773104 8.35078017,10.0503555 8.29152676,10.0234005 C8.23227336,9.9964455 8.17301995,9.96563981 8.11771677,9.93868483 C8.05846336,9.90787915 8.00316018,9.87707346 7.947857,9.84626777 C7.89255382,9.81161137 7.83725064,9.78080569 7.78194746,9.74229858 C7.72664428,9.70764218 7.67529133,9.66913507 7.61998815,9.63062796 C7.5686352,9.59212085 7.51728224,9.55361374 7.46592929,9.51125592 C7.41457634,9.4688981 7.36717361,9.430391 7.31582066,9.38803318 C7.26841793,9.34567536 7.22101521,9.29946682 7.17361248,9.257109 C7.12620976,9.21090047 7.08275726,9.16469194 7.03930476,9.11848341 C6.99585226,9.07227488 6.95239976,9.02221564 6.91289749,8.9721564 C6.86944499,8.92209716 6.82994272,8.87203791 6.79044045,8.82197867 C6.75093818,8.77191943 6.71538613,8.71800948 6.67588386,8.66409953 C6.63638159,8.61018957 6.60477977,8.55627962 6.56922773,8.50236967 C6.53367569,8.44845972 6.50207387,8.39069905 6.47442228,8.3367891 C6.44282046,8.27902844 6.41516887,8.22511848 6.38751728,8.16735782 C6.35986569,8.10959716 6.3322141,8.05183649 6.30851274,7.99407583 C6.28481138,7.93631517 6.26111001,7.87470379 6.23740865,7.81694313 C6.21370729,7.75533175 6.19395615,7.69757109 6.17420502,7.63595972 C6.15445388,7.57434834 6.13865297,7.51273697 6.12285206,7.45112559 C6.10705116,7.38951422 6.09125025,7.32790284 6.07939957,7.26629147 C6.06754888,7.20468009 6.0556982,7.13921801 6.04779775,7.07760664 C6.03989729,7.01599526 6.03199684,6.95053318 6.02409639,6.8889218 C6.01619593,6.82731043 6.0122457,6.76184834 6.00829548,6.69638626 C6.00434525,6.63092417 6.00434525,6.5693128 6.00434525,6.50385071 C6.00434525,6.43838863 6.00434525,6.37677725 6.00829548,6.31131517 C6.0122457,6.24585308 6.01619593,6.18424171 6.02409639,6.11877962 C6.03199684,6.05716825 6.03989729,5.99170616 6.04779775,5.93009479 C6.0556982,5.86848341 6.06754888,5.80302133 6.07939957,5.74140995 C6.09125025,5.67979858 6.10705116,5.6181872 6.12285206,5.55657583 C6.13865297,5.49496445 6.15445388,5.43335308 6.17420502,5.37174171 C6.19395615,5.31013033 6.21370729,5.24851896 6.23740865,5.19075829 C6.26111001,5.12914692 6.28481138,5.07138626 6.30851274,5.01362559 C6.3322141,4.95586493 6.35986569,4.89810427 6.38751728,4.8403436 C6.41516887,4.78258294 6.44677069,4.72482227 6.47442228,4.67091232 C6.5060241,4.61315166 6.53762591,4.55924171 6.56922773,4.50533175 C6.60082955,4.4514218 6.63638159,4.39751185 6.67588386,4.3436019 C6.71538613,4.28969194 6.75093818,4.2396327 6.79044045,4.18572275 C6.82994272,4.13566351 6.86944499,4.08560427 6.91289749,4.03554502 C6.95634999,3.98548578 6.99585226,3.93927725 7.03930476,3.88921801 C7.08275726,3.84300948 7.13015998,3.79680095 7.17361248,3.75059242 C7.22101521,3.70438389 7.26841793,3.66202607 7.31582066,3.61966825 C7.36322339,3.57731043 7.41457634,3.53495261 7.46592929,3.4964455 C7.51728224,3.45408768 7.5686352,3.41558057 7.61998815,3.37707346 C7.6713411,3.33856635 7.72664428,3.30390995 7.78194746,3.26540284 C7.83725064,3.22689573 7.89255382,3.19609005 7.947857,3.16143365 C8.00316018,3.12677725 8.06241359,3.09597156 8.11771677,3.06901659 C8.17697018,3.0382109 8.23227336,3.01125592 8.29152676,2.98430095 C8.35078017,2.95734597 8.41003358,2.930391 8.46928698,2.90728673 C8.52854039,2.88418246 8.59174403,2.8610782 8.65099743,2.83797393 C8.71420107,2.81486967 8.77345447,2.79561611 8.83665811,2.77636256 C8.89986174,2.757109 8.96306538,2.74170616 9.02626901,2.72630332 C9.08947264,2.71090047 9.15267628,2.69549763 9.21587991,2.6839455 C9.27908355,2.67239336 9.34623741,2.66084123 9.40944104,2.65313981 C9.47264468,2.64543839 9.53979854,2.63773697 9.60300217,2.63003555 C9.66620581,2.62233412 9.73335967,2.61848341 9.80051353,2.6146327 C9.86766739,2.61078199 9.93087103,2.61078199 9.99802489,2.61078199 C10.0651787,2.61078199 10.1283824,2.61078199 10.1955362,2.6146327 C10.2626901,2.61848341 10.3258937,2.62233412 10.3930476,2.63003555 C10.4562512,2.63773697 10.5234051,2.64543839 10.5866087,2.65313981 C10.6498124,2.66084123 10.7169662,2.67239336 10.7801699,2.6839455 C10.8433735,2.69549763 10.9065771,2.71090047 10.9697808,2.72630332 C11.0329844,2.74170616 11.096188,2.757109 11.1593917,2.77636256 C11.2225953,2.79561611 11.2857989,2.81486967 11.3450523,2.83797393 C11.4043057,2.8610782 11.4675094,2.88418246 11.5267628,2.90728673 C11.5860162,2.930391 11.6452696,2.95734597 11.704523,2.98430095 C11.7637764,3.01125592 11.8230298,3.04206161 11.878333,3.06901659 C11.9375864,3.09982227 11.9928896,3.13062796 12.0481928,3.16143365 C12.103496,3.19609005 12.1587991,3.22689573 12.2141023,3.26540284 C12.2694055,3.30005924 12.3207584,3.33856635 12.3760616,3.37707346 C12.4274146,3.41558057 12.4787675,3.45408768 12.5301205,3.4964455 C12.5814734,3.53880332 12.6288762,3.57731043 12.6802291,3.61966825 C12.7276318,3.66202607 12.7750346,3.7082346 12.8224373,3.75059242 C12.86984,3.79680095 12.9132925,3.84300948 12.956745,3.88921801 C13.0001975,3.93542654 13.04365,3.98548578 13.0831523,4.03554502 C13.1266048,4.08560427 13.1661071,4.13566351 13.2056093,4.18572275 C13.2451116,4.23578199 13.2806636,4.28969194 13.3201659,4.3436019 L13.426822,4.50533175 C13.4623741,4.55924171 13.4939759,4.61700237 13.5216275,4.67091232 C13.5532293,4.72867299 13.5808809,4.78258294 13.6085325,4.8403436 C13.6361841,4.89810427 13.6638357,4.95586493 13.687537,5.01362559 C13.7112384,5.07138626 13.7349398,5.13299763 13.7586411,5.19075829 C13.7823425,5.24851896 13.8020936,5.31013033 13.8218448,5.37174171 C13.8415959,5.43335308 13.8573968,5.49496445 13.8731977,5.55657583 C13.8889986,5.6181872 13.9047995,5.67979858 13.9166502,5.74140995 C13.9285009,5.80302133 13.9403516,5.86848341 13.948252,5.93009479 C13.9561525,5.99170616 13.9640529,6.05716825 13.9719534,6.11877962 C13.9798538,6.180391 13.9838041,6.24585308 13.9877543,6.31131517 C13.9917045,6.37677725 13.9917045,6.43838863 13.9917045,6.50385071 C13.9917045,6.5693128 13.9917045,6.63092417 13.9877543,6.69638626 C13.9838041,6.76184834 13.9798538,6.82345972 13.9719534,6.8889218 C13.9640529,6.95053318 13.9561525,7.01599526 13.948252,7.07760664 C13.9403516,7.13921801 13.9285009,7.20468009 13.9127,7.26629147 C13.9008493,7.32790284 13.8850484,7.38951422 13.8692475,7.45112559 C13.8534466,7.51273697 13.8376457,7.57434834 13.8178945,7.63595972 C13.7981434,7.69757109 13.7783923,7.75918246 13.7546909,7.81694313 C13.7309895,7.8785545 13.7072882,7.93631517 13.6835868,7.99407583 C13.6598854,8.05183649 13.6322339,8.10959716 13.6045823,8.16735782 C13.5769307,8.22511848 13.5453289,8.28287915 13.5176773,8.3367891 C13.4860754,8.39454976 13.4544736,8.44845972 13.4189216,8.50236967 C13.3833695,8.55627962 13.3517677,8.61018957 13.3122655,8.66409953 C13.2767134,8.71800948 13.2372111,8.76806872 13.1977089,8.82197867 C13.1582066,8.87203791 13.1187043,8.92209716 13.0752518,8.9721564 C13.0317993,9.02221564 12.9922971,9.06842417 12.9488446,9.11848341 C12.9053921,9.16854265 12.8579893,9.21090047 12.8145368,9.257109 C12.7671341,9.30331754 12.7197314,9.34567536 12.6723287,9.38803318 C12.6249259,9.430391 12.573573,9.47274882 12.52222,9.51125592 C12.4708671,9.55361374 12.4195141,9.59212085 12.3681612,9.63062796 C12.3168082,9.66913507 12.261505,9.70379147 12.2062019,9.74229858 L12.0402923,9.84626777 C11.9849891,9.88092417 11.9257357,9.91172986 11.8704325,9.94253555 C11.8111791,9.97334123 11.755876,10.0002962 11.6966226,10.0272512 C11.6373691,10.0542062 11.5781157,10.0811611 11.5188623,10.1042654 C11.4596089,10.1273697 11.3964053,10.1504739 11.3371519,10.1735782 C11.2739483,10.1966825 11.2146948,10.215936 11.1514912,10.2351896 C11.0882876,10.2544431 11.0250839,10.269846 10.9618803,10.2852488 C10.8986767,10.3006517 10.835473,10.3160545 10.7722694,10.3276066 C10.7090658,10.3391588 10.6419119,10.3507109 10.5787083,10.362263 C10.5155046,10.3699645 10.4483508,10.3776659 10.3851471,10.3853673 C10.3219435,10.3930687 10.2547897,10.3969194 10.1876358,10.4007701 C10.1283824,10.3969194 10.0651787,10.3969194 9.99802489,10.3969194 L9.99802489,10.3969194 Z M15.7811574,1.8367891 C13.9601027,0.619964455 12.0086905,0 9.98617421,0 C8.16511949,0 6.39146751,0.527547393 4.71262098,1.56338863 C3.02192376,2.61078199 1.35887814,4.50918246 0,6.5 C1.10211337,8.28672986 2.60714991,10.123519 4.17539008,11.1786137 C5.97274343,12.387737 7.93205609,13 9.99012443,13 C12.0323919,13 13.9838041,12.387737 15.7930081,11.1824645 C17.3849496,10.1196682 18.9018369,8.28287915 20,6.50385071 C18.8978866,4.73637441 17.3770492,2.90343602 15.7811574,1.8367891 Z" id="形状"/>
                </g>
            </g>
        </g>
    </g>
</svg>