<svg xmlns="http://www.w3.org/2000/svg" xmlns:xlink="http://www.w3.org/1999/xlink" width="20" height="20" viewBox="0 0 20 20" version="1.1">
    <title>eye-off</title>
    <g id="web登录注册" stroke="none" stroke-width="1" fill="none" fill-rule="evenodd">
        <g id="切图" transform="translate(-151.000000, -91.000000)">
            <g id="编组" transform="translate(151.000000, 91.000000)">
                <rect id="矩形" x="0" y="0" width="20" height="20"/>
                <g id="闭眼" transform="translate(0.000000, 3.000000)" fill="#798383" fill-rule="nonzero">
                    <path d="M16.7682072,3.48004253 L13.9671438,6.41333937 L13.9671438,6.41334003 C13.984866,6.56620973 13.9936774,6.72007093 13.9935288,6.87406574 L13.9935288,6.87408043 C13.9870696,9.18530208 12.198834,11.0558021 9.99411715,11.057499 L9.99411694,11.057499 C9.84819056,11.0575667 9.70239491,11.0483353 9.5575379,11.0298559 L7.79959111,12.872763 L7.79959111,12.8727629 C8.52097481,13.0555163 9.26077273,13.146271 10.0029249,13.143138 C14.465284,13.143138 17.743904,9.38964013 20,6.92629886 L20,6.92629987 C19.0222782,5.6794366 17.9407712,4.52615203 16.7682402,3.48004253 L16.7682072,3.48004253 Z M15.9683269,0 L14.3070292,1.74155921 L14.3070299,1.74155959 C12.9802882,0.994873903 11.499922,0.59846717 9.99412373,0.586664045 C6.34045765,0.586664045 3.4925135,2.98245149 0,6.870996 C1.6524973,8.69548426 3.16143868,10.4032558 4.92235591,11.5796376 L3.82947095,12.7253226 L5.04540354,14 L17.1842806,1.27466275 L15.9683269,0 Z M6.00643367,6.87405864 L6.00643365,6.87404387 C6.00220325,4.56701077 7.78280636,2.69318137 9.98353183,2.68874882 C10.9031588,2.68690335 11.7950876,3.018561 12.5080439,3.62748199 L11.3360497,4.85608102 L11.3360496,4.85608098 C10.9478614,4.56840047 10.4841764,4.4138837 10.0087834,4.41378919 L10.0087834,4.41378919 C8.72735713,4.39208991 7.67177391,5.46348764 7.65107918,6.80682723 C7.64302571,7.32947908 7.79577965,7.84095071 8.08671159,8.26547444 L6.90007741,9.52173296 L6.90007713,9.52173296 C6.31453287,8.77615312 5.99539543,7.83981837 5.99763746,6.87407355 L6.00643367,6.87405864 Z" id="形状"/>
                </g>
            </g>
        </g>
    </g>
</svg>