<svg width="20" height="20" viewBox="0 0 20 20" fill="none" xmlns="http://www.w3.org/2000/svg">
<path d="M12.6647 9.49992C12.6647 9.54228 12.6647 9.58464 12.6608 9.62699C12.6568 9.66935 12.6568 9.71171 12.6529 9.75407C12.6489 9.79643 12.645 9.83878 12.6371 9.88114L12.6134 10.0082C12.6055 10.0506 12.5936 10.0929 12.5857 10.1314C12.5739 10.1738 12.562 10.2123 12.5502 10.2547C12.5383 10.297 12.5225 10.3355 12.5107 10.374C12.4949 10.4125 12.4791 10.4549 12.4633 10.4934C12.4475 10.5319 12.4277 10.5704 12.4119 10.6089L12.3527 10.7244C12.3329 10.763 12.3092 10.7976 12.2895 10.8361C12.2697 10.8746 12.2421 10.9093 12.2184 10.9439C12.1947 10.9786 12.171 11.0132 12.1433 11.0479C12.1157 11.0826 12.092 11.1172 12.0643 11.148C12.0367 11.1827 12.009 11.2135 11.9774 11.2443C11.9498 11.2751 11.9182 11.3059 11.8866 11.3367C11.855 11.3675 11.8234 11.3945 11.7917 11.4253C11.7601 11.4522 11.7246 11.483 11.693 11.51C11.6574 11.5369 11.6258 11.5639 11.5903 11.587C11.5547 11.614 11.5192 11.6371 11.4836 11.6602C11.4481 11.6833 11.4086 11.7064 11.373 11.7295C11.3375 11.7526 11.298 11.7718 11.2585 11.7911L11.14 11.8489C11.1005 11.8681 11.061 11.8835 11.0215 11.8989C10.982 11.9143 10.9385 11.9297 10.899 11.9451C10.8595 11.9605 10.816 11.9721 10.7765 11.9836C10.7331 11.9952 10.6936 12.0067 10.6501 12.0183C10.6067 12.0298 10.5672 12.0375 10.5237 12.0452L10.3934 12.0683C10.3499 12.076 10.3065 12.0799 10.263 12.0837C10.2196 12.0876 10.1761 12.0914 10.1327 12.0914C10.0892 12.0953 10.0457 12.0953 10.0023 12.0953C9.95884 12.0953 9.91539 12.0953 9.87194 12.0914C9.82849 12.0876 9.78503 12.0876 9.74158 12.0837C9.69813 12.0799 9.65468 12.076 9.61122 12.0683L9.48087 12.0452C9.43741 12.0375 9.39396 12.026 9.35446 12.0183C9.31101 12.0067 9.27151 11.9952 9.22805 11.9836C9.1846 11.9721 9.1451 11.9567 9.1056 11.9451C9.06609 11.9297 9.02264 11.9143 8.98314 11.8989C8.94364 11.8835 8.90413 11.8643 8.86463 11.8489L8.74612 11.7911C8.70662 11.7718 8.67107 11.7487 8.63157 11.7295C8.59207 11.7102 8.55651 11.6833 8.52096 11.6602C8.48541 11.6371 8.44986 11.614 8.41431 11.587C8.37875 11.5601 8.3432 11.5369 8.3116 11.51C8.27605 11.483 8.24445 11.4561 8.21284 11.4253C8.18124 11.3983 8.14964 11.3675 8.11804 11.3367C8.08644 11.3059 8.05878 11.2751 8.02718 11.2443C7.99953 11.2135 7.96793 11.1788 7.94028 11.148C7.91263 11.1134 7.88498 11.0826 7.86127 11.0479C7.83362 11.0132 7.80992 10.9786 7.78622 10.9439C7.76252 10.9093 7.73882 10.8708 7.71512 10.8361C7.69141 10.8015 7.67166 10.763 7.65191 10.7244L7.59266 10.6089C7.57291 10.5704 7.55711 10.5319 7.54131 10.4934C7.5255 10.4549 7.5097 10.4125 7.4939 10.374C7.4781 10.3355 7.46625 10.2932 7.4544 10.2547C7.44255 10.2123 7.4307 10.1738 7.41885 10.1314C7.407 10.0891 7.3991 10.0506 7.3912 10.0082L7.3675 9.88114C7.3596 9.83878 7.35564 9.79643 7.35169 9.75407C7.34774 9.71171 7.34379 9.66935 7.34379 9.62699C7.33984 9.58464 7.33984 9.54228 7.33984 9.49992C7.33984 9.45756 7.33984 9.4152 7.34379 9.37285C7.34774 9.33049 7.34774 9.28813 7.35169 9.24577C7.35564 9.20342 7.3596 9.16106 7.3675 9.1187L7.3912 8.99163C7.3991 8.94927 7.41095 8.90691 7.41885 8.8684C7.4307 8.82605 7.44255 8.78754 7.4544 8.74518C7.46625 8.70282 7.48205 8.66432 7.4939 8.62581C7.5097 8.5873 7.5255 8.54494 7.54131 8.50644C7.55711 8.46793 7.57686 8.42942 7.59266 8.39092L7.65191 8.27539C7.67166 8.23689 7.69536 8.20223 7.71512 8.16372C7.73882 8.12907 7.76252 8.09056 7.78622 8.0559C7.80992 8.02125 7.83362 7.98659 7.86127 7.95193C7.88893 7.91728 7.91263 7.88262 7.94028 7.85182C7.96793 7.81716 7.99558 7.78635 8.02718 7.75555C8.05483 7.72474 8.08644 7.69394 8.11804 7.66313C8.14964 7.63233 8.18124 7.60537 8.21284 7.57456C8.24445 7.54761 8.28 7.5168 8.3116 7.48985C8.34715 7.46289 8.37875 7.43594 8.41431 7.41283C8.44986 7.38588 8.48541 7.36278 8.52096 7.33967C8.55651 7.31657 8.59602 7.29346 8.63157 7.27036C8.66712 7.24725 8.70662 7.228 8.74612 7.20875L8.86463 7.15099C8.90413 7.13173 8.94364 7.11633 8.98314 7.10093C9.02264 7.08552 9.06609 7.07012 9.1056 7.05472C9.1451 7.03932 9.18855 7.02776 9.22805 7.01621C9.27151 7.00466 9.31101 6.99311 9.35446 6.98156C9.39791 6.97 9.43741 6.9623 9.48087 6.9546L9.61122 6.9315C9.65468 6.92379 9.69813 6.91994 9.74158 6.91609C9.78503 6.91224 9.82849 6.90839 9.87194 6.90839C9.91539 6.90454 9.95884 6.90454 10.0023 6.90454C10.0457 6.90454 10.0892 6.90454 10.1327 6.90839C10.1761 6.91224 10.2196 6.91224 10.263 6.91609C10.3065 6.91994 10.3499 6.92379 10.3934 6.9315L10.5237 6.9546C10.5672 6.9623 10.6106 6.97385 10.6501 6.98156C10.6936 6.99311 10.7331 7.00466 10.7765 7.01621C10.82 7.02776 10.8595 7.04317 10.899 7.05472C10.9385 7.07012 10.982 7.08552 11.0215 7.10093C11.061 7.11633 11.1005 7.13558 11.14 7.15099L11.2585 7.20875C11.298 7.228 11.3335 7.2511 11.373 7.27036C11.4086 7.29346 11.4481 7.31657 11.4836 7.33967C11.5192 7.36278 11.5547 7.38588 11.5903 7.41283C11.6258 7.43979 11.6614 7.46289 11.693 7.48985C11.7285 7.5168 11.7601 7.54376 11.7917 7.57456C11.8234 7.60152 11.855 7.63233 11.8866 7.66313C11.9182 7.69394 11.9458 7.72474 11.9774 7.75555C12.0051 7.78635 12.0367 7.82101 12.0643 7.85182C12.092 7.88647 12.1196 7.91728 12.1433 7.95193C12.171 7.98659 12.1947 8.02125 12.2184 8.0559C12.2421 8.09056 12.2658 8.12907 12.2895 8.16372C12.3132 8.19838 12.3329 8.23689 12.3527 8.27539L12.4119 8.39092C12.4317 8.42942 12.4475 8.46793 12.4633 8.50644C12.4791 8.54494 12.4949 8.5873 12.5107 8.62581C12.5265 8.66432 12.5383 8.70667 12.5502 8.74518C12.562 8.78754 12.5739 8.82605 12.5857 8.8684C12.5976 8.91076 12.6055 8.94927 12.6134 8.99163L12.6371 9.1187C12.645 9.16106 12.6489 9.20342 12.6529 9.24577C12.6568 9.28813 12.6608 9.33049 12.6608 9.37285C12.6647 9.4152 12.6647 9.45756 12.6647 9.49992Z" fill="white" fill-opacity="0.7"/>
<path d="M9.99802 13.3969C9.93087 13.3969 9.86767 13.3969 9.80051 13.3931C9.73336 13.3892 9.67016 13.3854 9.603 13.3777C9.53585 13.37 9.47264 13.3623 9.40944 13.3546C9.34624 13.3469 9.27908 13.3353 9.21588 13.3238C9.15268 13.3122 9.08947 13.2968 9.02627 13.2814C8.96307 13.266 8.89986 13.2506 8.83666 13.2313C8.77345 13.2121 8.71025 13.1928 8.651 13.1697C8.59174 13.1466 8.52854 13.1235 8.46929 13.1004C8.41003 13.0773 8.35078 13.0504 8.29153 13.0234C8.23227 12.9964 8.17302 12.9656 8.11772 12.9387C8.05846 12.9079 8.00316 12.8771 7.94786 12.8463C7.89255 12.8116 7.83725 12.7808 7.78195 12.7423C7.72664 12.7076 7.67529 12.6691 7.61999 12.6306C7.56863 12.5921 7.51728 12.5536 7.46593 12.5113C7.41458 12.4689 7.36717 12.4304 7.31582 12.388C7.26842 12.3457 7.22102 12.2995 7.17361 12.2571C7.12621 12.2109 7.08276 12.1647 7.0393 12.1185C6.99585 12.0723 6.9524 12.0222 6.9129 11.9722C6.86944 11.9221 6.82994 11.872 6.79044 11.822C6.75094 11.7719 6.71539 11.718 6.67588 11.6641C6.63638 11.6102 6.60478 11.5563 6.56923 11.5024C6.53368 11.4485 6.50207 11.3907 6.47442 11.3368C6.44282 11.279 6.41517 11.2251 6.38752 11.1674C6.35987 11.1096 6.33221 11.0518 6.30851 10.9941C6.28481 10.9363 6.26111 10.8747 6.23741 10.8169C6.21371 10.7553 6.19396 10.6976 6.1742 10.636C6.15445 10.5743 6.13865 10.5127 6.12285 10.4511C6.10705 10.3895 6.09125 10.3279 6.0794 10.2663C6.06755 10.2047 6.0557 10.1392 6.0478 10.0776C6.0399 10.016 6.032 9.95053 6.0241 9.88892C6.0162 9.82731 6.01225 9.76185 6.0083 9.69639C6.00435 9.63092 6.00435 9.56931 6.00435 9.50385C6.00435 9.43839 6.00435 9.37678 6.0083 9.31132C6.01225 9.24585 6.0162 9.18424 6.0241 9.11878C6.032 9.05717 6.0399 8.99171 6.0478 8.93009C6.0557 8.86848 6.06755 8.80302 6.0794 8.74141C6.09125 8.6798 6.10705 8.61819 6.12285 8.55658C6.13865 8.49496 6.15445 8.43335 6.1742 8.37174C6.19396 8.31013 6.21371 8.24852 6.23741 8.19076C6.26111 8.12915 6.28481 8.07139 6.30851 8.01363C6.33221 7.95586 6.35987 7.8981 6.38752 7.84034C6.41517 7.78258 6.44677 7.72482 6.47442 7.67091C6.50602 7.61315 6.53763 7.55924 6.56923 7.50533C6.60083 7.45142 6.63638 7.39751 6.67588 7.3436C6.71539 7.28969 6.75094 7.23963 6.79044 7.18572C6.82994 7.13566 6.86944 7.0856 6.9129 7.03554C6.95635 6.98549 6.99585 6.93928 7.0393 6.88922C7.08276 6.84301 7.13016 6.7968 7.17361 6.75059C7.22102 6.70438 7.26842 6.66203 7.31582 6.61967C7.36322 6.57731 7.41458 6.53495 7.46593 6.49645C7.51728 6.45409 7.56863 6.41558 7.61999 6.37707C7.67134 6.33857 7.72664 6.30391 7.78195 6.2654C7.83725 6.2269 7.89255 6.19609 7.94786 6.16143C8.00316 6.12678 8.06241 6.09597 8.11772 6.06902C8.17697 6.03821 8.23227 6.01126 8.29153 5.9843C8.35078 5.95735 8.41003 5.93039 8.46929 5.90729C8.52854 5.88418 8.59174 5.86108 8.651 5.83797C8.7142 5.81487 8.77345 5.79562 8.83666 5.77636C8.89986 5.75711 8.96307 5.74171 9.02627 5.7263C9.08947 5.7109 9.15268 5.6955 9.21588 5.68395C9.27908 5.67239 9.34624 5.66084 9.40944 5.65314C9.47264 5.64544 9.5398 5.63774 9.603 5.63004C9.66621 5.62233 9.73336 5.61848 9.80051 5.61463C9.86767 5.61078 9.93087 5.61078 9.99802 5.61078C10.0652 5.61078 10.1284 5.61078 10.1955 5.61463C10.2627 5.61848 10.3259 5.62233 10.393 5.63004C10.4563 5.63774 10.5234 5.64544 10.5866 5.65314C10.6498 5.66084 10.717 5.67239 10.7802 5.68395C10.8434 5.6955 10.9066 5.7109 10.9698 5.7263C11.033 5.74171 11.0962 5.75711 11.1594 5.77636C11.2226 5.79562 11.2858 5.81487 11.3451 5.83797C11.4043 5.86108 11.4675 5.88418 11.5268 5.90729C11.586 5.93039 11.6453 5.95735 11.7045 5.9843C11.7638 6.01126 11.823 6.04206 11.8783 6.06902C11.9376 6.09982 11.9929 6.13063 12.0482 6.16143C12.1035 6.19609 12.1588 6.2269 12.2141 6.2654C12.2694 6.30006 12.3208 6.33857 12.3761 6.37707C12.4274 6.41558 12.4788 6.45409 12.5301 6.49645C12.5815 6.5388 12.6289 6.57731 12.6802 6.61967C12.7276 6.66203 12.775 6.70823 12.8224 6.75059C12.8698 6.7968 12.9133 6.84301 12.9567 6.88922C13.0002 6.93543 13.0437 6.98549 13.0832 7.03554C13.1266 7.0856 13.1661 7.13566 13.2056 7.18572C13.2451 7.23578 13.2807 7.28969 13.3202 7.3436L13.4268 7.50533C13.4624 7.55924 13.494 7.617 13.5216 7.67091C13.5532 7.72867 13.5809 7.78258 13.6085 7.84034C13.6362 7.8981 13.6638 7.95586 13.6875 8.01363C13.7112 8.07139 13.7349 8.133 13.7586 8.19076C13.7823 8.24852 13.8021 8.31013 13.8218 8.37174C13.8416 8.43335 13.8574 8.49496 13.8732 8.55658C13.889 8.61819 13.9048 8.6798 13.9166 8.74141C13.9285 8.80302 13.9404 8.86848 13.9483 8.93009C13.9562 8.99171 13.9641 9.05717 13.972 9.11878C13.9799 9.18039 13.9838 9.24585 13.9878 9.31132C13.9917 9.37678 13.9917 9.43839 13.9917 9.50385C13.9917 9.56931 13.9917 9.63092 13.9878 9.69639C13.9838 9.76185 13.9799 9.82346 13.972 9.88892C13.9641 9.95053 13.9562 10.016 13.9483 10.0776C13.9404 10.1392 13.9285 10.2047 13.9127 10.2663C13.9008 10.3279 13.885 10.3895 13.8692 10.4511C13.8534 10.5127 13.8376 10.5743 13.8179 10.636C13.7981 10.6976 13.7784 10.7592 13.7547 10.8169C13.731 10.8786 13.7073 10.9363 13.6836 10.9941C13.6599 11.0518 13.6322 11.1096 13.6046 11.1674C13.5769 11.2251 13.5453 11.2829 13.5177 11.3368C13.4861 11.3945 13.4545 11.4485 13.4189 11.5024C13.3834 11.5563 13.3518 11.6102 13.3123 11.6641C13.2767 11.718 13.2372 11.7681 13.1977 11.822C13.1582 11.872 13.1187 11.9221 13.0753 11.9722C13.0318 12.0222 12.9923 12.0684 12.9488 12.1185C12.9054 12.1685 12.858 12.2109 12.8145 12.2571C12.7671 12.3033 12.7197 12.3457 12.6723 12.388C12.6249 12.4304 12.5736 12.4727 12.5222 12.5113C12.4709 12.5536 12.4195 12.5921 12.3682 12.6306C12.3168 12.6691 12.2615 12.7038 12.2062 12.7423L12.0403 12.8463C11.985 12.8809 11.9257 12.9117 11.8704 12.9425C11.8112 12.9733 11.7559 13.0003 11.6966 13.0273C11.6374 13.0542 11.5781 13.0812 11.5189 13.1043C11.4596 13.1274 11.3964 13.1505 11.3372 13.1736C11.2739 13.1967 11.2147 13.2159 11.1515 13.2352C11.0883 13.2544 11.0251 13.2698 10.9619 13.2852C10.8987 13.3007 10.8355 13.3161 10.7723 13.3276C10.7091 13.3392 10.6419 13.3507 10.5787 13.3623C10.5155 13.37 10.4484 13.3777 10.3851 13.3854C10.3219 13.3931 10.2548 13.3969 10.1876 13.4008C10.1284 13.3969 10.0652 13.3969 9.99802 13.3969ZM15.7812 4.83679C13.9601 3.61996 12.0087 3 9.98617 3C8.16512 3 6.39147 3.52755 4.71262 4.56339C3.02192 5.61078 1.35888 7.50918 0 9.5C1.10211 11.2867 2.60715 13.1235 4.17539 14.1786C5.97274 15.3877 7.93206 16 9.99012 16C12.0324 16 13.9838 15.3877 15.793 14.1825C17.3849 13.1197 18.9018 11.2829 20 9.50385C18.8979 7.73637 17.377 5.90344 15.7812 4.83679Z" fill="white" fill-opacity="0.7"/>
</svg>
