<?xml version="1.0" encoding="UTF-8"?>
<svg width="19px" height="20px" viewBox="0 0 19 20" version="1.1" xmlns="http://www.w3.org/2000/svg" xmlns:xlink="http://www.w3.org/1999/xlink">
    <title>faq</title>
    <g id="页面-1" stroke="none" stroke-width="1" fill="none" fill-rule="evenodd">
        <g id="提现-USD备份--选择继续" transform="translate(-945.000000, -325.000000)" fill="#838C9A" fill-rule="nonzero">
            <g id="编组-12" transform="translate(80.000000, 116.000000)">
                <g id="faq" transform="translate(865.000000, 209.000000)">
                    <path d="M2.13750199,0.982896141 C0.950012209,0.982896141 -5.1318998e-06,1.87354537 -5.1318998e-06,3.00166705 L-5.1318998e-06,15.0187569 C-5.1318998e-06,16.1468786 0.950012209,17.0375023 2.13750199,17.0375023 L6.35314813,17.0375023 L9.5000152,19.237793 L12.6468823,17.0375023 L16.8625284,17.0375023 C18.0500182,17.0375023 19.0000355,16.2062467 19.0000355,15.078125 L19.0000355,3.06103516 C19.0000355,1.87354537 18.0500182,0.982896141 16.8625284,0.982896141 L2.13750199,0.982896141 Z M12.23128,8.78753154 L11.4000244,9.55941904 C10.687505,10.1531767 10.3312708,9.75311659 10.3312708,11 L8.55002337,11 L8.55002337,10.5843977 C8.55002337,9.69374848 8.90625755,9.73754888 9.61875142,9.14379124 L10.687505,8.07503767 C11.0437647,7.8375142 11.2218945,7.42191191 11.2218945,6.88754789 C11.2218945,5.99689866 10.3906389,5.22503668 9.44064709,5.22503668 C8.49065526,5.22503668 7.65939965,5.99689866 7.65939965,6.88754789 L5.93752033,6.88754789 C5.93752033,5.04690683 7.54063792,3.56252546 9.5000152,3.56252546 C11.4593925,3.56252546 13.0625101,5.04690683 13.0625101,6.88754789 C13.0625101,7.65940987 12.7062759,8.31253563 12.23128,8.78753154 Z M9.5000152,14.4375254 C8.84688944,14.4375254 8.31252541,13.9031358 8.31252541,13.2500101 C8.31252541,12.5968843 8.84688944,12.0625203 9.5000152,12.0625203 C10.153141,12.0625203 10.687505,12.5968843 10.687505,13.2500101 C10.687505,13.9031358 10.153141,14.4375254 9.5000152,14.4375254 L9.5000152,14.4375254 Z" id="形状"></path>
                </g>
            </g>
        </g>
    </g>
</svg>