<svg width="21" height="20" viewBox="0 0 21 20" fill="none" xmlns="http://www.w3.org/2000/svg">
<path d="M10.4647 0.00698853C8.42929 0.197496 6.92528 0.683796 5.52654 1.60626C4.3534 2.38334 3.39584 3.35092 2.53354 4.63937C1.44062 6.26872 0.844024 8.6551 1.00947 10.7256C1.21 13.2223 2.18761 15.348 3.91724 17.0726C5.03522 18.1856 6.09305 18.8624 7.54192 19.3988C9.37181 20.0756 11.5426 20.1859 13.4577 19.7046C15.9344 19.0779 17.9247 17.6391 19.4487 15.368C20.5417 13.7387 21.1383 11.3523 20.9728 9.28177C20.7773 6.90041 19.9451 4.98529 18.3157 3.19049C16.541 1.24028 14.0543 0.112268 11.2919 0.012001C10.946 -0.00303841 10.575 -0.00303841 10.4647 0.00698853ZM11.3722 1.30546C12.2345 1.56615 13.2171 2.79444 13.8187 4.37366C13.9942 4.82988 14.2699 5.74733 14.3301 6.06818L14.3601 6.24365H10.9911H7.62214L7.65222 6.06818C7.71238 5.74733 7.98812 4.82988 8.16358 4.37366C8.76018 2.8195 9.69768 1.6213 10.565 1.3205C10.8758 1.21522 11.0513 1.2102 11.3722 1.30546ZM7.95302 2.08755C7.40155 2.90473 6.75983 4.41878 6.50415 5.51671C6.46404 5.70722 6.40388 5.95288 6.3738 6.05314L6.32367 6.24365H4.69933H3.07499L3.32064 5.77741C3.95734 4.57419 4.91992 3.52639 6.15321 2.69918C6.62447 2.38334 7.39653 2.00232 8.21873 1.68648C8.22375 1.68146 8.10844 1.86194 7.95302 2.08755ZM15.1021 2.27304C16.3605 2.94985 17.4534 3.91242 18.2004 5.00534C18.4862 5.42146 18.9123 6.1484 18.9123 6.21859C18.9123 6.23363 18.1804 6.24365 17.283 6.24365H15.6586L15.6085 6.05314C15.5834 5.95288 15.5032 5.64205 15.433 5.36631C15.1472 4.20821 14.5857 2.8546 14.0894 2.13267C13.9691 1.95219 13.8538 1.78173 13.8337 1.74664C13.7836 1.66141 14.6008 2.00232 15.1021 2.27304ZM6.11311 7.78277C5.9978 8.91579 5.96772 10.0538 6.02286 10.9913C6.05796 11.5378 6.09806 12.1043 6.11311 12.2447L6.14319 12.5104H4.35842H2.57365L2.51349 12.2948C2.13247 10.881 2.13247 9.17649 2.52351 7.6825L2.57365 7.497H4.35842H6.13817L6.11311 7.78277ZM14.6208 7.70757C14.7913 8.95089 14.7913 11.0565 14.6208 12.2948L14.5958 12.5104H10.9962H7.39152L7.36144 12.2447C7.2712 11.5378 7.23611 10.846 7.23611 10.0037C7.23611 9.16145 7.2712 8.4696 7.36144 7.7577L7.39152 7.497H10.9962H14.5958L14.6208 7.70757ZM19.4588 7.6825C19.4838 7.78778 19.534 7.96826 19.5641 8.08858C19.6593 8.46459 19.7646 9.45223 19.7646 10.0037C19.7646 10.5953 19.6543 11.5378 19.5239 12.1093L19.4337 12.4853L17.6389 12.5004L15.8391 12.5104L15.8692 12.2998C15.8892 12.1795 15.9293 11.608 15.9594 11.0264C16.0146 10.0238 15.9745 8.62502 15.8742 7.7577L15.8391 7.497H17.6239H19.4086L19.4588 7.6825ZM6.3738 13.9492C6.39887 14.0545 6.45903 14.2902 6.49914 14.4757C6.73978 15.5285 7.36144 17.0124 7.90289 17.8497C8.0583 18.0853 8.16358 18.2758 8.13852 18.2758C8.0583 18.2758 7.44166 18.0101 6.95536 17.7644C5.38115 16.9673 4.13281 15.7491 3.29558 14.1999L3.05995 13.7637H4.69431H6.32367L6.3738 13.9492ZM14.3301 13.9392C14.2699 14.2601 13.9942 15.1775 13.8187 15.6337C13.573 16.2704 13.3525 16.7066 12.9815 17.2631C12.2395 18.3761 11.4423 18.8925 10.7204 18.732C9.82302 18.5315 8.79527 17.2882 8.16358 15.6337C7.98812 15.1775 7.71238 14.2601 7.65222 13.9392L7.62214 13.7637H10.9911H14.3601L14.3301 13.9392ZM18.6867 14.1999C17.7291 15.9747 16.1499 17.3734 14.2398 18.1404L13.8087 18.3159L14.0593 17.9299C14.6259 17.0626 15.1723 15.744 15.4781 14.4857C15.5483 14.1849 15.6185 13.8991 15.6335 13.849C15.6586 13.7688 15.7789 13.7637 17.293 13.7637H18.9223L18.6867 14.1999Z" fill="white"/>
</svg>
