<svg width="20" height="20" viewBox="0 0 20 20" fill="none" xmlns="http://www.w3.org/2000/svg">
<path d="M9.09483 0.0386314C7.56213 0.17387 5.79903 0.769918 4.63699 1.55129C3.31466 2.43785 2.28785 3.46967 1.50648 4.69182C0.835298 5.73365 0.299355 7.22628 0.0990028 8.57866C-0.011191 9.31495 -0.011191 10.6573 0.0990028 11.4036C0.304364 12.8462 0.850325 14.3137 1.60666 15.4608C2.52828 16.8482 4.00588 18.1956 5.36326 18.8768C8.3385 20.3744 11.6543 20.3744 14.6296 18.8768C15.6163 18.3809 16.8935 17.3491 17.6749 16.4124C18.6366 15.2554 19.2777 14.0082 19.6634 12.5406C20.0792 10.9629 20.0892 9.12462 19.6885 7.53682C19.448 6.59517 18.9572 5.4231 18.4864 4.69182C17.5597 3.24427 16.027 1.82678 14.6296 1.12554C12.8715 0.238985 10.9982 -0.126659 9.09483 0.0386314ZM11.3989 1.35595C13.3774 1.68653 15.0553 2.59813 16.4227 4.08074C18.3661 6.18945 19.1375 8.97435 18.5565 11.8143C18.2008 13.5825 17.144 15.3906 15.8066 16.5527C14.4793 17.6947 12.9666 18.4059 11.2737 18.6714C10.7578 18.7566 9.23508 18.7566 8.71917 18.6714C7.83261 18.5312 6.79578 18.2006 5.98937 17.7899C5.12785 17.3541 4.03092 16.4976 3.42485 15.7863C1.95727 14.0633 1.26606 12.205 1.26606 10.0012C1.26606 7.71213 2.0274 5.75369 3.57011 4.08074C4.5318 3.03891 5.58365 2.31764 6.86591 1.82177C7.61222 1.53627 8.26337 1.386 9.29518 1.26579C9.62576 1.22572 10.9731 1.28082 11.3989 1.35595Z" fill="white"/>
<path d="M8.15693 5.06755C7.83136 5.15771 7.74621 5.20279 7.40561 5.45824C6.90473 5.83891 6.55411 6.48004 6.60921 6.9158C6.64928 7.20131 6.86967 7.39665 7.15016 7.39665C7.46071 7.39665 7.63101 7.26642 7.82134 6.89577C8.14191 6.25965 8.197 6.24462 9.83489 6.24462C10.5712 6.24462 11.2073 6.26967 11.3125 6.29471C11.598 6.37485 11.9135 6.64032 12.0538 6.92081C12.2091 7.23136 12.2191 7.73224 12.0788 7.99771C11.8534 8.43848 11.7382 8.52864 10.6864 9.05457C10.1054 9.35009 9.61951 9.62557 9.53937 9.71072L9.39912 9.86098V10.6874V11.5189L9.57944 11.6842C9.7297 11.8294 9.79481 11.8545 10.0002 11.8545C10.2055 11.8545 10.2707 11.8294 10.4209 11.6842L10.6012 11.5189V10.993V10.4721L11.1823 10.2016C12.5747 9.56046 13.0656 9.09464 13.331 8.18303C13.5815 7.31651 13.2609 6.2296 12.5797 5.62854C12.3944 5.46826 11.9186 5.20279 11.6481 5.11764C11.2674 4.99242 8.56265 4.95736 8.15693 5.06755Z" fill="white"/>
<path d="M9.81059 12.8558C9.19451 12.996 8.89398 13.6622 9.19951 14.2182C9.53511 14.8192 10.4567 14.8192 10.7923 14.2182C11.173 13.5269 10.5669 12.6855 9.81059 12.8558Z" fill="white"/>
</svg>
