<svg width="20" height="16" viewBox="0 0 20 16" fill="none" xmlns="http://www.w3.org/2000/svg">
<path d="M6.58253 0.00761909C5.19313 0.171784 4.01995 0.980598 3.41134 2.20583C3.11905 2.78641 3.00293 3.29893 3.00293 3.98762C3.00293 4.50414 3.04297 4.78042 3.18711 5.22887C3.49943 6.20986 4.24818 7.07873 5.17311 7.5472C5.48543 7.70737 5.88983 7.84751 6.20215 7.91557C6.51046 7.97964 7.45541 7.97964 7.76372 7.91557C9.36133 7.57924 10.5705 6.354 10.9109 4.72837C10.9389 4.59624 10.9629 4.2639 10.9629 3.98762C10.9629 3.4711 10.9229 3.19483 10.7788 2.74637C10.4664 1.76539 9.71768 0.896513 8.79275 0.428042C8.48845 0.275889 8.07603 0.12774 7.79575 0.0676795C7.56352 0.0196312 6.79875 -0.0164051 6.58253 0.00761909ZM7.46342 1.02865C7.77573 1.07669 8.06803 1.1808 8.42839 1.36899C9.35332 1.85748 9.98195 2.91454 9.98195 3.98762C9.98195 4.64428 9.70167 5.42107 9.28925 5.90155C8.46442 6.86252 7.15511 7.23489 6.02197 6.82248C5.22116 6.53418 4.67261 6.04569 4.29623 5.28893C3.99593 4.68432 3.91585 4.10374 4.03997 3.40704C4.10804 3.01464 4.41235 2.38601 4.67661 2.0737C5.38132 1.25287 6.42237 0.860477 7.46342 1.02865Z" fill="#5ED3F0"/>
<path d="M16.2846 3.0427C16.0163 3.16282 16.0123 3.17483 16.0003 4.65632L15.9883 5.98566L14.6509 5.99767C13.3656 6.00968 13.3096 6.01369 13.2015 6.09377C13.1414 6.13781 13.0653 6.24592 13.0373 6.33001C12.9692 6.53021 13.0413 6.76644 13.2015 6.88656C13.3096 6.96665 13.3697 6.97065 14.6509 6.98266L15.9883 6.99467L16.0003 8.33202C16.0123 9.61731 16.0163 9.67337 16.0964 9.78148C16.1444 9.84154 16.2445 9.91761 16.3246 9.94965C16.5128 10.0177 16.7691 9.94164 16.8892 9.78148C16.9693 9.67337 16.9733 9.61331 16.9853 8.33202L16.9973 6.99467L18.3346 6.98266C19.6159 6.97065 19.676 6.96665 19.7841 6.88656C19.8442 6.84252 19.9202 6.73041 19.9523 6.64232C20.0043 6.50218 20.0043 6.45813 19.9523 6.33001C19.9202 6.24592 19.8442 6.14182 19.7841 6.09377C19.676 6.01369 19.6199 6.00968 18.3306 5.99767L16.9933 5.98566V4.70437C16.9933 3.32698 16.9773 3.21887 16.7851 3.09475C16.6449 3.00266 16.4287 2.97863 16.2846 3.0427Z" fill="#5ED3F0"/>
<path d="M4.9609 9.54124C4.29623 9.62532 3.5675 9.83754 3.05098 10.0978C1.89382 10.6744 0.900818 11.7395 0.424339 12.9166C0.168081 13.5493 0.0159282 14.258 0.00391613 14.8946C-0.00409193 15.3511 0.0319443 15.4632 0.288202 15.7315C0.56448 16.0158 0.140053 15.9997 6.98294 15.9997C13.8659 15.9997 13.3814 16.0198 13.6977 15.7114C14.006 15.4111 14.046 15.0468 13.8819 14.1178C13.4615 11.7114 11.6356 9.93363 9.20918 9.57327C8.87684 9.52522 8.42839 9.51321 6.93889 9.51721C5.91787 9.52122 5.02897 9.53323 4.9609 9.54124ZM9.28525 10.5863C10.2302 10.7945 10.991 11.1989 11.6436 11.8476C12.4244 12.6243 12.8568 13.5653 12.969 14.7265L12.997 14.9987H6.98294H0.968887L0.996915 14.7265C1.10903 13.5693 1.51744 12.6764 2.31024 11.8716C3.07901 11.0868 4.05599 10.6263 5.18112 10.5142C5.36931 10.4942 6.28624 10.4862 7.22318 10.4942C8.74871 10.5022 8.96093 10.5142 9.28525 10.5863Z" fill="#5ED3F0"/>
</svg>
