<svg width="30" height="31" viewBox="0 0 30 31" fill="none" xmlns="http://www.w3.org/2000/svg">
<g clip-path="url(#clip0_0_2772)">
<path d="M14.9973 30.4947C23.2801 30.4947 29.9947 23.7801 29.9947 15.4973C29.9947 7.21454 23.2801 0.5 14.9973 0.5C6.71454 0.5 0 7.21454 0 15.4973C0 23.7801 6.71454 30.4947 14.9973 30.4947Z" fill="white"/>
<path d="M14.8324 5.7121L12.969 6.77687L7.87942 9.73162L6.01074 10.7964V20.981L7.87942 22.0457L13.0116 24.9898L14.9069 26.0546L16.7756 24.9898L21.8173 22.0457L23.686 20.981V10.8017L21.8173 9.73694L16.7277 6.79284L14.8324 5.7121ZM9.74277 18.8354V12.9792L14.8324 10.0351L19.9273 12.9792V18.8354L14.8324 21.7955L9.74277 18.8354Z" fill="#2A5ADA"/>
</g>
<defs>
<clipPath id="clip0_0_2772">
<rect width="30" height="30" fill="white" transform="translate(0 0.5)"/>
</clipPath>
</defs>
</svg>
