<svg width="18" height="20" viewBox="0 0 18 20" fill="none" xmlns="http://www.w3.org/2000/svg">
<path d="M17.9531 10.017C17.9229 9.9599 16.8473 8.8608 15.5566 7.57346C12.9349 4.95174 13.0794 5.0761 12.7702 5.23072C12.6458 5.29458 12.592 5.34836 12.5282 5.47272C12.3769 5.77187 12.303 5.68111 14.3936 7.7953L16.2557 9.68093L11.7584 9.69773C7.54351 9.71454 7.25781 9.7179 7.15698 9.77504C6.85783 9.93638 6.85783 10.4674 7.15698 10.6288C7.25781 10.6859 7.54351 10.6893 11.7584 10.7061L16.2557 10.7229L14.3936 12.6085C12.303 14.7227 12.3769 14.632 12.5282 14.9311C12.592 15.0555 12.6458 15.1092 12.7702 15.1731C13.0794 15.3277 12.9349 15.4521 15.5566 12.8304C16.8473 11.543 17.9262 10.4406 17.9531 10.3834C18.017 10.249 18.017 10.1448 17.9531 10.017Z" fill="#5ED3F0"/>
<path d="M8.22003 0.750117C8.14153 0.528487 8.02148 0.422289 7.77215 0.353029C7.64287 0.320708 6.83945 0.311473 5.24648 0.325325C2.73929 0.343794 2.75776 0.343794 2.1021 0.597746C1.25251 0.930192 0.601475 1.58585 0.264411 2.43543C-0.0172444 3.15573 0.00122484 2.63398 0.00122484 10.0078C0.00122484 17.3817 -0.0172444 16.8599 0.264411 17.5802C0.601475 18.4298 1.25251 19.0808 2.1021 19.4179C2.78084 19.6811 2.75776 19.6811 5.38039 19.6811C7.61054 19.6811 7.81832 19.6765 7.95222 19.598C8.36316 19.3763 8.36316 18.6468 7.95222 18.4252C7.81832 18.3513 7.58284 18.3374 5.42656 18.3144C3.66737 18.2959 3.00247 18.2728 2.86395 18.2312C2.14827 17.9958 1.6496 17.4832 1.45106 16.7722C1.39565 16.5782 1.38642 15.4516 1.38642 10.0078C1.38642 4.56401 1.39565 3.43739 1.45106 3.24346C1.6496 2.5324 2.14827 2.01988 2.86395 1.78439C3.00247 1.74284 3.66737 1.71975 5.42656 1.70128C7.58284 1.6782 7.81832 1.66434 7.95222 1.59047C8.22003 1.44733 8.33546 1.06871 8.22003 0.750117Z" fill="#5ED3F0"/>
</svg>
