<svg width="14" height="17" viewBox="0 0 14 17" fill="none" xmlns="http://www.w3.org/2000/svg">
<path d="M13.9627 8.51302C13.9392 8.46858 13.1026 7.6137 12.0987 6.61242C10.0596 4.57327 10.172 4.67 9.93149 4.79026C9.83476 4.83993 9.79293 4.88176 9.74326 4.97849C9.62562 5.21116 9.5681 5.14058 11.1942 6.78497L12.6425 8.25159L9.14459 8.26466C5.86626 8.27773 5.64405 8.28035 5.56562 8.32479C5.33295 8.45028 5.33295 8.86333 5.56562 8.98882C5.64405 9.03326 5.86626 9.03588 9.14459 9.04895L12.6425 9.06202L11.1942 10.5286C9.5681 12.173 9.62562 12.1024 9.74326 12.3351C9.79293 12.4318 9.83476 12.4737 9.93149 12.5233C10.172 12.6436 10.0596 12.7403 12.0987 10.7012C13.1026 9.69991 13.9418 8.84242 13.9627 8.79798C14.0124 8.6934 14.0124 8.61236 13.9627 8.51302Z" fill="white"/>
<path d="M6.3927 1.30546C6.33164 1.13308 6.23827 1.05048 6.04434 0.996611C5.94378 0.971472 5.3189 0.964289 4.0799 0.975063C2.12983 0.989428 2.1442 0.989428 1.63423 1.18695C0.973434 1.44552 0.467061 1.95549 0.204897 2.61628C-0.0141721 3.17653 0.000193105 2.77071 0.000193105 8.50601C0.000193105 14.2413 -0.0141721 13.8355 0.204897 14.3957C0.467061 15.0565 0.973434 15.5629 1.63423 15.8251C2.16215 16.0298 2.1442 16.0298 4.18405 16.0298C5.91865 16.0298 6.08025 16.0262 6.1844 15.9651C6.50403 15.7927 6.50403 15.2253 6.1844 15.0529C6.08025 14.9955 5.8971 14.9847 4.21996 14.9667C2.85168 14.9524 2.33453 14.9344 2.2268 14.9021C1.67014 14.7189 1.28229 14.3203 1.12786 13.7673C1.08476 13.6164 1.07758 12.7401 1.07758 8.50601C1.07758 4.27187 1.08476 3.3956 1.12786 3.24476C1.28229 2.6917 1.67014 2.29307 2.2268 2.10991C2.33453 2.07759 2.85168 2.05963 4.21996 2.04527C5.8971 2.02731 6.08025 2.01654 6.1844 1.95908C6.3927 1.84775 6.48248 1.55326 6.3927 1.30546Z" fill="white"/>
</svg>
