<svg width="30" height="31" viewBox="0 0 30 31" fill="none" xmlns="http://www.w3.org/2000/svg">
<path d="M15 30.5C23.2843 30.5 30 23.7843 30 15.5C30 7.21573 23.2843 0.5 15 0.5C6.71573 0.5 0 7.21573 0 15.5C0 23.7843 6.71573 30.5 15 30.5Z" fill="#172852"/>
<path d="M12.0818 7.20615C13.8601 6.56627 15.7999 6.52468 17.6041 7.08774C18.7702 7.46472 19.8451 8.0783 20.7612 8.88978C21.6772 9.70125 22.4145 10.693 22.9265 11.8025C23.2488 12.4185 23.4471 13.0913 23.5101 13.7831C22.1835 13.0639 20.7808 12.4935 19.3278 12.0824C17.026 11.2535 14.616 10.6776 12.4384 9.53661C11.9305 9.23521 11.2875 8.92305 11.147 8.29334C11.093 7.75513 11.6873 7.44296 12.0818 7.21691" fill="#FFD83D"/>
<path d="M6.78171 12.5129C7.27964 11.1164 8.13226 9.87221 9.2565 8.90152C9.52547 11.292 10.5643 13.5314 12.2176 15.2847C13.2134 16.3295 14.4128 17.161 15.7423 17.7283C17.0718 18.2956 18.5036 18.5867 19.9499 18.584C21.0938 18.5607 22.2318 18.4127 23.3433 18.1426C22.2626 22.1254 17.875 24.768 13.8278 24.133C12.6062 23.9612 11.4348 23.5338 10.3908 22.8789C9.34686 22.224 8.45386 21.3564 7.77055 20.3332C7.00903 19.1949 6.52333 17.8961 6.35173 16.539C6.18013 15.1819 6.32733 13.8037 6.78171 12.5129Z" fill="#FFD83D"/>
<path d="M19.3281 12.0555C20.7811 12.4666 22.1838 13.037 23.5104 13.7562L23.5969 13.8046C23.7561 14.717 23.7725 15.6484 23.6455 16.5657C23.0112 16.2422 22.4226 15.8369 21.8948 15.3601C20.8141 14.4666 19.7334 13.444 19.3281 12.0555Z" fill="#FF6F03"/>
</svg>
