<svg width="30" height="31" viewBox="0 0 30 31" fill="none" xmlns="http://www.w3.org/2000/svg">
<g clip-path="url(#clip0_0_2516)">
<path d="M14.9973 30.4947C23.2801 30.4947 29.9947 23.7801 29.9947 15.4973C29.9947 7.21454 23.2801 0.5 14.9973 0.5C6.71454 0.5 0 7.21454 0 15.4973C0 23.7801 6.71454 30.4947 14.9973 30.4947Z" fill="#8247E5"/>
<path d="M19.4955 12.7769C19.3315 12.6901 19.1487 12.6448 18.9631 12.6448C18.7776 12.6448 18.5948 12.6901 18.4308 12.7769L15.9711 14.2409L14.2835 15.1779L11.8398 16.642C11.6757 16.7287 11.493 16.774 11.3074 16.774C11.1219 16.774 10.9391 16.7287 10.775 16.642L8.83715 15.4867C8.67387 15.3925 8.53854 15.2565 8.44501 15.0928C8.35147 14.9291 8.30307 14.7436 8.30476 14.555V12.335C8.30307 12.1465 8.35147 11.9609 8.44501 11.7972C8.53854 11.6335 8.67387 11.4976 8.83715 11.4033L10.7484 10.2906C10.9125 10.2039 11.0952 10.1586 11.2808 10.1586C11.4664 10.1586 11.6491 10.2039 11.8132 10.2906L13.7245 11.4459C13.8877 11.5402 14.0231 11.6761 14.1166 11.8398C14.2101 12.0035 14.2585 12.189 14.2568 12.3776V13.8416L15.9711 12.8674V11.3554C15.9691 11.1676 15.9192 10.9834 15.826 10.8204C15.7328 10.6573 15.5995 10.5208 15.4387 10.4237L11.8824 8.33675C11.7183 8.25004 11.5356 8.20471 11.35 8.20471C11.1644 8.20471 10.9817 8.25004 10.8176 8.33675L7.1761 10.4663C7.0131 10.5499 6.87682 10.6775 6.78271 10.8347C6.6886 10.9918 6.64045 11.1722 6.64371 11.3554V15.5293C6.64429 15.7181 6.69361 15.9035 6.78687 16.0677C6.88014 16.2319 7.01421 16.3692 7.1761 16.4663L10.775 18.5533C10.9391 18.64 11.1219 18.6853 11.3074 18.6853C11.493 18.6853 11.6757 18.64 11.8398 18.5533L14.2835 17.1318L15.9711 16.1522L18.4148 14.7307C18.5788 14.644 18.7616 14.5987 18.9472 14.5987C19.1327 14.5987 19.3155 14.644 19.4796 14.7307L21.3855 15.8434C21.5488 15.9377 21.6841 16.0736 21.7776 16.2373C21.8712 16.401 21.9196 16.5866 21.9179 16.7751V18.9951C21.9196 19.1837 21.8712 19.3693 21.7776 19.5329C21.6841 19.6966 21.5488 19.8326 21.3855 19.9268L19.5222 21.0395C19.3581 21.1262 19.1753 21.1715 18.9898 21.1715C18.8042 21.1715 18.6214 21.1262 18.4574 21.0395L16.5035 19.9268C16.3402 19.8326 16.2049 19.6966 16.1114 19.5329C16.0178 19.3693 15.9694 19.1837 15.9711 18.9951V17.5737L14.2835 18.5533V20.0173C14.2818 20.2058 14.3302 20.3914 14.4237 20.5551C14.5172 20.7188 14.6526 20.8547 14.8159 20.949L18.4148 23.036C18.5781 23.125 18.7612 23.1716 18.9472 23.1716C19.1332 23.1716 19.3162 23.125 19.4796 23.036L23.0785 20.949C23.2418 20.8547 23.3771 20.7188 23.4706 20.5551C23.5642 20.3914 23.6126 20.2058 23.6109 20.0173V15.7955C23.6094 15.6076 23.5596 15.4232 23.4664 15.2601C23.3732 15.097 23.2396 14.9605 23.0785 14.8638L19.4955 12.7769Z" fill="white"/>
</g>
<defs>
<clipPath id="clip0_0_2516">
<rect width="30" height="30" fill="white" transform="translate(0 0.5)"/>
</clipPath>
</defs>
</svg>
