<svg width="18" height="18" viewBox="0 0 18 18" fill="none" xmlns="http://www.w3.org/2000/svg">
<mask id="mask0_0_6430" style="mask-type:luminance" maskUnits="userSpaceOnUse" x="0" y="0" width="18" height="18">
<path d="M11.2504 13.4996V18H6.74983V13.4996H11.2504ZM4.50056 13.4996V18H0V13.4996H4.50056ZM18.0002 13.4996V18H13.4997V13.4996H18.0002ZM4.50056 6.74975V11.2503H0V6.74975H4.50056ZM11.2504 6.74975V11.2503H6.74983V6.74975H11.2504ZM18.0002 6.74975V11.2503H13.4997V6.74975H18.0002ZM4.50056 0V4.50043H0V0H4.50056ZM18.0002 0V4.50043H13.4997V0H18.0002ZM11.2504 0V4.50043H6.74983V0H11.2504Z" fill="white"/>
</mask>
<g mask="url(#mask0_0_6430)">
<path d="M0 0H18.0002V18H0V0Z" fill="white"/>
</g>
</svg>
