<svg width="107" height="24" viewBox="0 0 107 24" fill="none" xmlns="http://www.w3.org/2000/svg">
<g clip-path="url(#clip0_11_419)">
<path fill-rule="evenodd" clip-rule="evenodd" d="M26.1915 23.6824V0.319824H27.0396V23.6824H26.1915ZM26.1915 23.6824L25.301 0.319824H24.4529L25.3406 23.6824H26.1915ZM25.3434 23.6824L23.5625 0.319824H22.7144L24.4954 23.6824H25.3434ZM24.4727 23.6824L21.7928 0.319824H20.9447L23.6133 23.6824H24.4727ZM23.5964 23.6824L20.0401 0.319824H19.192L22.7455 23.6824H23.5964ZM22.7285 23.6824L18.2761 0.319824H17.4139L21.8663 23.6824H22.7285ZM21.8578 23.6824L16.4866 0.319824H15.6159L20.9871 23.6824H21.8578ZM20.9786 23.6824L14.6689 0.319824H13.7926L20.0768 23.6824H20.9786ZM20.0938 23.6824L12.8823 0.319824H11.9975L19.209 23.6824H20.0938ZM19.1977 23.6824L11.0504 0.319824H10.1543L18.2733 23.6824H19.1977ZM0.0253906 0.319824V23.6824H0.873472V0.319824H0.0253906ZM0.873472 0.319824L1.82332 23.6824H2.6714L1.72155 0.319824H0.873472ZM1.72155 0.319824L3.62973 23.6824H4.47782L2.56963 0.319824H1.72155ZM2.58377 0.319824L5.39374 23.6824H6.24183L3.41771 0.319824H2.58377ZM3.45447 0.319824L7.26235 23.6824H8.11043L4.29972 0.319824H3.45447ZM4.30255 0.319824L9.02353 23.6824H9.88857L5.16759 0.319824H4.30255ZM5.15063 0.319824L10.9063 23.6824H11.7798L6.02415 0.319824H5.15063ZM6.02133 0.319824L12.8908 23.6824H13.7728L6.90333 0.319824H6.02133ZM6.89485 0.319824L14.7707 23.6824H15.664L7.79947 0.319824H6.89485ZM7.79381 0.319824L11.3671 9.04843L17.3036 23.553L17.3545 23.6824H18.2676L18.1969 23.5114L12.2604 9.00447L8.70974 0.319824H7.79381Z" fill="#5ED3F0"/>
<path fill-rule="evenodd" clip-rule="evenodd" d="M82.6714 17.1103C81.6989 19.125 80.0664 20.8503 77.9744 22.0743C75.8824 23.2983 73.4221 23.9677 70.8957 24.0001C68.3694 24.0325 65.8871 23.4266 63.7539 22.2568C61.6208 21.0871 59.9296 19.4044 58.8884 17.4156C57.2855 14.3896 57.2827 9.63213 58.8884 6.60373C59.9262 4.61136 61.6158 2.92465 63.7491 1.75126C65.8824 0.577872 68.3663 -0.0309905 70.895 -0.000363718C73.4237 0.030263 75.8869 0.699038 77.9813 1.92363C80.0757 3.14823 81.7099 4.87519 82.6827 6.89192L82.7534 7.03357H79.966L79.9321 6.97984C79.0798 5.59024 77.8214 4.41751 76.282 3.5782C74.7425 2.73888 72.9757 2.26221 71.157 2.19554C69.3383 2.12887 67.531 2.47452 65.9148 3.19815C64.2986 3.92179 62.9298 4.9982 61.9443 6.32043C59.6403 9.38546 59.6403 14.6241 61.9443 17.6793C62.9295 19.0017 64.2982 20.0783 65.9143 20.8021C67.5303 21.5259 69.3375 21.8718 71.1562 21.8054C72.9749 21.739 74.7418 21.2626 76.2813 20.4235C77.8209 19.5844 79.0795 18.4118 79.9321 17.0224L79.966 16.9687H82.7534L82.6714 17.1103ZM51.7814 21.0545V0.319824H54.3257V23.6824H50.8599L33.6155 3.12109V23.6824H31.0713V0.319824H34.3816L51.7814 21.0545ZM94.9346 10.2915L103.726 0.317379H106.91L96.5262 12.0988L106.737 23.6824H103.557L94.9346 13.9134L86.3153 23.6824H83.2057L93.3346 12.0964L82.9541 0.319824H86.1372L94.9346 10.2915Z" fill="white"/>
</g>
<defs>
<clipPath id="clip0_11_419">
<rect width="106.909" height="24" fill="white"/>
</clipPath>
</defs>
</svg>
