<svg width="14" height="17" viewBox="0 0 14 17" fill="none" xmlns="http://www.w3.org/2000/svg">
<path d="M6.5043 0.964998C6.19171 1.03713 6.14762 1.06118 3.34633 2.68024C1.65112 3.65408 0.809531 4.16305 0.657243 4.30331C0.36469 4.5638 0.200379 4.81628 0.0881667 5.16895C0 5.44948 0 5.4615 0 8.67558V11.9017L0.0921743 12.1622C0.256485 12.615 0.504955 12.9356 0.901705 13.2041C1.11411 13.3484 5.83103 16.0896 6.10755 16.2299C6.62453 16.4904 7.36192 16.4904 7.8789 16.2299C8.23557 16.0455 12.8964 13.3324 13.1128 13.1801C13.5657 12.8595 13.8342 12.4467 13.9464 11.9017C14.0025 11.6171 14.0065 11.2164 13.9945 8.49524C13.9824 5.0888 13.9985 5.30521 13.7179 4.78422C13.4815 4.33136 13.3132 4.21915 10.6401 2.67623C9.28556 1.89476 8.07126 1.20545 7.94703 1.13732C7.50619 0.9129 6.97719 0.848779 6.5043 0.964998ZM7.402 1.96289C7.64646 2.06708 12.5036 4.90044 12.6559 5.02868C12.7361 5.09681 12.8443 5.22906 12.8964 5.32124L12.9846 5.48955V8.65554V11.8215L12.8964 11.9858C12.8483 12.074 12.7521 12.2022 12.68 12.2744C12.5317 12.4187 7.57031 15.2881 7.33387 15.3682C7.1415 15.4324 6.84494 15.4324 6.65258 15.3682C6.41613 15.2881 1.45475 12.4187 1.30647 12.2744C1.23433 12.2022 1.13815 12.074 1.09006 11.9858L1.00189 11.8215V8.65554V5.48955L1.09006 5.32124C1.14216 5.22906 1.25036 5.09681 1.33052 5.02868C1.47479 4.90845 6.33598 2.06307 6.55239 1.97491C6.83693 1.85468 7.1415 1.85067 7.402 1.96289Z" fill="#5ED3F0"/>
<path d="M2.26882 5.71799C2.21672 5.74604 2.13256 5.82219 2.08848 5.8823C2.00432 5.99451 2.00432 6.02658 1.9923 8.59143C1.98028 11.4528 1.98028 11.4368 2.21672 11.5731C2.48122 11.7294 2.77378 11.6412 2.91404 11.3567C2.97816 11.2364 2.98618 11.0801 2.98618 9.99808L2.99019 8.77577L3.5272 10.1183C3.82376 10.8557 4.06822 11.4649 4.06822 11.4689C4.06822 11.4729 4.13235 11.5129 4.2125 11.561C4.49703 11.7374 4.86172 11.6011 4.9539 11.2845C4.98195 11.1883 4.98997 10.2666 4.98195 8.57539C4.96993 6.13478 4.96592 6.00654 4.89379 5.89833C4.67337 5.57372 4.18845 5.60578 4.05219 5.95444C4.0001 6.08669 3.98807 6.31512 3.98807 7.34507V8.57539L3.47109 7.27293C3.14648 6.45939 2.91003 5.91837 2.8379 5.83421C2.74973 5.73001 2.68962 5.69795 2.54534 5.68593C2.44115 5.67391 2.32493 5.68994 2.26882 5.71799Z" fill="#5ED3F0"/>
<path d="M6.24556 5.734C5.98907 5.86225 5.99308 5.83019 5.99709 8.66755C5.99709 10.5351 6.00911 11.2564 6.04518 11.3606C6.13335 11.6171 6.52609 11.7374 6.75051 11.573C6.97894 11.4047 6.99497 11.3166 6.99497 10.1864V9.15648H7.55203C8.06099 9.15648 8.1171 9.14846 8.24133 9.0643C8.4898 8.89598 8.54591 8.63148 8.3856 8.39103C8.25736 8.20267 8.10107 8.15859 7.50794 8.15859L6.99497 8.15458V7.41719V6.67979L7.56806 6.66376C8.19324 6.65174 8.30145 6.61567 8.42167 6.38724C8.5419 6.1548 8.44572 5.84221 8.21729 5.734C8.02492 5.64183 6.43391 5.64183 6.24556 5.734Z" fill="#5ED3F0"/>
<path d="M9.24855 5.734C9.06019 5.83019 8.96802 6.08667 9.04015 6.3151C9.1163 6.55556 9.2766 6.63972 9.68136 6.66376L9.99796 6.6838L10.002 8.95209C10.002 10.5992 10.014 11.2564 10.0501 11.3606C10.1382 11.6171 10.531 11.7374 10.7554 11.573C10.8115 11.529 10.8917 11.4328 10.9277 11.3566C10.9958 11.2324 10.9999 11.032 10.9999 8.95209V6.6838L11.3165 6.66376C11.6571 6.64372 11.7894 6.58762 11.9096 6.40327C12.0498 6.18686 11.9577 5.85022 11.7172 5.72599C11.5449 5.63782 9.43289 5.64584 9.24855 5.734Z" fill="#5ED3F0"/>
</svg>
