<svg width="19" height="20" viewBox="0 0 19 20" fill="none" xmlns="http://www.w3.org/2000/svg">
<path d="M9.02653 0.0449867C8.76118 0.125092 8.66606 0.335369 8.66606 0.851048V1.28162L8.30558 1.34169C6.29293 1.66712 4.63074 2.8637 3.70953 4.65105C3.20386 5.63735 3.06868 6.29322 3.0086 8.12563C2.97356 9.167 2.93851 9.59257 2.85841 9.96305C2.60808 11.1646 2.11242 12.1109 1.22626 13.0922C0.995953 13.3475 0.760643 13.6479 0.70557 13.7581C0.440221 14.2787 0.47026 14.9747 0.785676 15.4503C1.03601 15.8358 1.47158 16.1362 1.87211 16.2063C2.3227 16.2864 16.211 16.2864 16.6616 16.2063C17.2874 16.0961 17.8632 15.5104 17.9783 14.8695C18.0935 14.2187 17.9633 13.8632 17.3475 13.1523C16.3862 12.0358 15.9306 11.1696 15.6753 9.96305C15.5952 9.59257 15.5601 9.167 15.5251 8.12563C15.465 6.29322 15.3298 5.63735 14.8242 4.65105C13.903 2.8637 12.2408 1.66712 10.2331 1.34169L9.86764 1.28162V0.851048C9.86764 0.315343 9.77752 0.125092 9.48213 0.0449867C9.26184 -0.0150928 9.24682 -0.0150928 9.02653 0.0449867ZM10.3433 2.61337C11.3095 2.81864 12.0155 3.20415 12.7564 3.93011C13.3322 4.49585 13.7277 5.10165 13.958 5.76753C14.1983 6.47846 14.2334 6.72379 14.2734 8.1006C14.3185 9.59257 14.3886 10.0932 14.659 10.9544C14.9844 11.9707 15.5001 12.8719 16.2711 13.753C16.8118 14.3789 16.8719 14.5691 16.6316 14.8645L16.5364 14.9847H9.26685H1.99727L1.90215 14.8645C1.66183 14.5691 1.72191 14.3789 2.26262 13.753C3.03364 12.8719 3.54932 11.9707 3.87475 10.9544C4.1451 10.0932 4.21519 9.59257 4.26025 8.1006C4.30031 6.75383 4.35037 6.37833 4.55064 5.79757C5.04128 4.39071 6.24787 3.20916 7.66474 2.75356C7.95512 2.65843 8.31059 2.58333 8.74116 2.52325C9.02153 2.4832 9.9878 2.53827 10.3433 2.61337Z" fill="white"/>
<path d="M7.32835 17.548C7.26327 17.558 7.14811 17.6381 7.063 17.7182C6.84772 17.9385 6.85272 18.2139 7.09805 18.6745C8.02427 20.4418 10.5075 20.4418 11.4338 18.6745C11.6741 18.2139 11.6841 17.9385 11.4688 17.7233C11.1284 17.3828 10.7028 17.4929 10.4274 17.9886C10.2122 18.3841 9.98685 18.5894 9.66142 18.6845C9.33099 18.7846 9.20082 18.7846 8.87539 18.6895C8.53995 18.5894 8.31966 18.3941 8.11939 18.0136C8.02927 17.8484 7.90912 17.6782 7.84403 17.6381C7.71386 17.553 7.48856 17.513 7.32835 17.548Z" fill="white"/>
</svg>
