<svg width="14" height="13" viewBox="0 0 14 13" fill="none" xmlns="http://www.w3.org/2000/svg">
<path d="M8.98 8V9.5H2.60719L1.49919 10.599V11.5H8.98V13H0V9.97388L1.99075 8H8.98ZM5.98019 0C7.63704 0 8.98019 1.34315 8.98019 3C8.98019 4.59768 7.73127 5.90366 6.15646 5.99491L5.98019 6C4.32334 6 2.98019 4.65685 2.98019 3C2.98019 1.40232 4.22911 0.0963391 5.80392 0.00509262L5.98019 0ZM5.98019 1.5C5.15176 1.5 4.48019 2.17157 4.48019 3C4.48019 3.82843 5.15176 4.5 5.98019 4.5C6.80862 4.5 7.48019 3.82843 7.48019 3C7.48019 2.17157 6.80862 1.5 5.98019 1.5ZM9.98019 5H13.9802V6.5H9.98019V5ZM9.98019 8H13.9802V9.5H9.98019V8ZM9.98019 11H13.9802V12.5H9.98019V11Z" fill="#FAFAFA"/>
</svg>
