<svg width="17" height="16" viewBox="0 0 17 16" fill="none" xmlns="http://www.w3.org/2000/svg">
<g clip-path="url(#clip0_0_4437)">
<path d="M8.53507 0.273682C9.6028 0.273682 10.6089 0.476082 11.5535 0.880882C12.498 1.28568 13.3223 1.84008 14.0263 2.54408C14.7303 3.24809 15.2847 4.07235 15.6895 5.01689C16.0943 5.96142 16.2967 6.96755 16.2967 8.03529C16.2967 9.11476 16.0943 10.1238 15.6895 11.0625C15.2847 12.0012 14.7303 12.8225 14.0263 13.5265C13.3223 14.2305 12.498 14.7849 11.5535 15.1897C10.6089 15.5945 9.60281 15.7969 8.53507 15.7969C7.4556 15.7969 6.4436 15.5945 5.49906 15.1897C4.55453 14.7849 3.73026 14.2305 3.02626 13.5265C2.32226 12.8225 1.76786 12.0012 1.36306 11.0625C0.95826 10.1238 0.755859 9.11475 0.755859 8.03529C0.755859 6.96756 0.95826 5.96143 1.36306 5.01689C1.76786 4.07235 2.32226 3.24809 3.02626 2.54408C3.73026 1.84008 4.55453 1.28568 5.49906 0.880882C6.4436 0.476082 7.45561 0.273682 8.53507 0.273682ZM12.9703 9.10889C13.2753 9.10889 13.5335 9.00036 13.7447 8.78329C13.9559 8.56622 14.0615 8.30516 14.0615 8.00009C14.0615 7.69502 13.9559 7.43689 13.7447 7.22569C13.5335 7.01449 13.2753 6.90889 12.9703 6.90889H9.66147V3.60009C9.66147 3.29502 9.55294 3.03395 9.33587 2.81688C9.1188 2.59982 8.85773 2.49128 8.55267 2.49128C8.2476 2.49128 7.98947 2.59982 7.77827 2.81688C7.56707 3.03395 7.46147 3.29502 7.46147 3.60009V6.90889H4.15266C3.8476 6.90889 3.58946 7.01449 3.37826 7.22569C3.16706 7.43689 3.06146 7.69502 3.06146 8.00009C3.06146 8.30516 3.16706 8.56622 3.37826 8.78329C3.58946 9.00036 3.8476 9.10889 4.15266 9.10889H7.46147V12.4001C7.46147 12.7052 7.56707 12.9662 7.77827 13.1833C7.98947 13.4004 8.2476 13.5089 8.55267 13.5089C8.85773 13.5089 9.1188 13.4004 9.33587 13.1833C9.55294 12.9662 9.66147 12.7052 9.66147 12.4001V9.10889H12.9703Z" fill="white"/>
</g>
<defs>
<clipPath id="clip0_0_4437">
<rect width="16" height="16" fill="white" transform="translate(0.5)"/>
</clipPath>
</defs>
</svg>
