<svg width="16" height="16" viewBox="0 0 16 16" fill="none" xmlns="http://www.w3.org/2000/svg">
<g clip-path="url(#clip0_0_4322)">
<path d="M8.03507 0.273682C9.1028 0.273682 10.1089 0.476082 11.0535 0.880882C11.998 1.28568 12.8223 1.84008 13.5263 2.54408C14.2303 3.24809 14.7847 4.07235 15.1895 5.01689C15.5943 5.96142 15.7967 6.96755 15.7967 8.03529C15.7967 9.11476 15.5943 10.1238 15.1895 11.0625C14.7847 12.0012 14.2303 12.8225 13.5263 13.5265C12.8223 14.2305 11.998 14.7849 11.0535 15.1897C10.1089 15.5945 9.10281 15.7969 8.03507 15.7969C6.9556 15.7969 5.9436 15.5945 4.99906 15.1897C4.05453 14.7849 3.23026 14.2305 2.52626 13.5265C1.82226 12.8225 1.26786 12.0012 0.86306 11.0625C0.45826 10.1238 0.255859 9.11475 0.255859 8.03529C0.255859 6.96756 0.45826 5.96143 0.86306 5.01689C1.26786 4.07235 1.82226 3.24809 2.52626 2.54408C3.23026 1.84008 4.05453 1.28568 4.99906 0.880882C5.9436 0.476082 6.95561 0.273682 8.03507 0.273682ZM12.4703 9.10889C12.7753 9.10889 13.0335 9.00036 13.2447 8.78329C13.4559 8.56622 13.5615 8.30516 13.5615 8.00009C13.5615 7.69502 13.4559 7.43689 13.2447 7.22569C13.0335 7.01449 12.7753 6.90889 12.4703 6.90889H9.16147V3.60009C9.16147 3.29502 9.05294 3.03395 8.83587 2.81688C8.6188 2.59982 8.35773 2.49128 8.05267 2.49128C7.7476 2.49128 7.48947 2.59982 7.27827 2.81688C7.06707 3.03395 6.96147 3.29502 6.96147 3.60009V6.90889H3.65266C3.3476 6.90889 3.08946 7.01449 2.87826 7.22569C2.66706 7.43689 2.56146 7.69502 2.56146 8.00009C2.56146 8.30516 2.66706 8.56622 2.87826 8.78329C3.08946 9.00036 3.3476 9.10889 3.65266 9.10889H6.96147V12.4001C6.96147 12.7052 7.06707 12.9662 7.27827 13.1833C7.48947 13.4004 7.7476 13.5089 8.05267 13.5089C8.35773 13.5089 8.6188 13.4004 8.83587 13.1833C9.05294 12.9662 9.16147 12.7052 9.16147 12.4001V9.10889H12.4703Z" fill="#5ED3F0"/>
</g>
<defs>
<clipPath id="clip0_0_4322">
<rect width="16" height="16" fill="white"/>
</clipPath>
</defs>
</svg>
