<svg width="14" height="15" viewBox="0 0 14 15" fill="none" xmlns="http://www.w3.org/2000/svg">
<path d="M6.63185 0.925566C5.20831 1.0588 4.15644 1.39891 3.1782 2.04405C2.35774 2.58752 1.68805 3.26422 1.08498 4.16533C0.320621 5.30485 -0.0966208 6.97382 0.019085 8.4219C0.159334 10.168 0.84305 11.6546 2.0527 12.8608C2.83459 13.6392 3.57441 14.1125 4.58771 14.4877C5.86749 14.961 7.38569 15.0382 8.72507 14.7016C10.4571 14.2633 11.8491 13.257 12.915 11.6687C13.6794 10.5291 14.0966 8.86018 13.9809 7.4121C13.8442 5.74664 13.2621 4.40726 12.1226 3.15203C10.8814 1.7881 9.14231 0.999197 7.21037 0.929072C6.96844 0.918553 6.70898 0.918553 6.63185 0.925566ZM7.54347 1.81615C8.33588 1.89329 9.00206 2.07561 9.65071 2.39818C10.9761 3.05385 11.8596 3.93742 12.5118 5.25577C13.0588 6.35672 13.2481 7.65403 13.0483 8.95484C12.908 9.89101 12.4943 10.8412 11.8772 11.6511C11.7019 11.8861 11.3162 12.2998 11.2776 12.2998C11.2636 12.2998 11.232 12.2262 11.211 12.135C11.1023 11.7037 10.7271 11.0831 10.3344 10.6904C9.92069 10.2697 9.36671 9.95763 8.73559 9.78582L8.38496 9.69115H7.01753L5.6501 9.68765L5.28194 9.78582C4.6368 9.95412 4.08982 10.2592 3.65856 10.6974C3.27638 11.0866 2.98536 11.5565 2.82758 12.0368C2.7855 12.1701 2.74343 12.2893 2.73291 12.2963C2.70837 12.3243 2.40333 12.0088 2.17893 11.7213C1.52326 10.8798 1.09901 9.92958 0.951744 8.95484C0.751888 7.65403 0.941225 6.35672 1.4882 5.25577C2.14036 3.93742 3.02393 3.05385 4.34929 2.39818C5.31701 1.91783 6.439 1.71447 7.54347 1.81615ZM8.26224 10.5852C8.80922 10.6729 9.22646 10.8763 9.6402 11.2514C10.1241 11.6897 10.3765 12.156 10.4852 12.8117L10.5097 12.9555L10.2888 13.0992C9.5841 13.541 8.75662 13.8495 7.89409 13.9863C7.53295 14.0459 6.46705 14.0459 6.10591 13.9863C5.24338 13.8495 4.4159 13.541 3.71115 13.0992L3.49026 12.9555L3.5148 12.8117C3.58843 12.3629 3.74621 11.9737 3.97762 11.6582C4.15294 11.4232 4.53862 11.0726 4.79107 10.9148C5.00846 10.7816 5.4257 10.6343 5.70971 10.5852C5.97618 10.5397 7.98876 10.5397 8.26224 10.5852Z" fill="#5ED3F0"/>
<path d="M6.67927 4.4458C6.17788 4.52644 5.60987 4.85252 5.30132 5.24172C4.3932 6.39527 4.84551 8.08878 6.20242 8.61822C6.74589 8.82859 7.2578 8.82859 7.80126 8.61822C9.49828 7.95905 9.65957 5.63441 8.07475 4.70877C7.7066 4.49489 7.10352 4.38269 6.67927 4.4458ZM7.32792 5.33989C7.74166 5.44858 8.09929 5.76765 8.23253 6.15334C8.3272 6.41981 8.31318 6.90367 8.20098 7.14911C8.09228 7.40156 7.7627 7.71361 7.51025 7.81179C7.21572 7.92749 6.78796 7.92749 6.49344 7.81179C6.24099 7.71361 5.9114 7.40156 5.80271 7.14911C5.69051 6.90367 5.67649 6.41981 5.77115 6.15334C5.90439 5.77466 6.25852 5.44858 6.65823 5.3434C6.90367 5.27678 7.08249 5.27678 7.32792 5.33989Z" fill="#5ED3F0"/>
</svg>
