<svg width="15" height="16" viewBox="0 0 15 16" fill="none" xmlns="http://www.w3.org/2000/svg">
<path d="M7.40864 0.0305472C7.37254 0.0505992 5.78442 0.672213 3.87947 1.41013C1.97854 2.14403 0.338283 2.78169 0.238023 2.8258L0.0495338 2.90601L0.0214609 3.42335C-0.106872 5.64111 0.342294 7.97116 1.31682 10.1127C2.06276 11.761 3.32604 13.3571 4.7738 14.4921C5.4676 15.0335 7.21213 16 7.50087 16C7.66931 16 8.95665 15.3543 9.52613 14.9814C10.633 14.2595 11.4872 13.4614 12.3454 12.3345C13.3721 10.987 14.0699 9.50715 14.5712 7.60621C14.6915 7.16507 14.7677 6.74397 14.884 5.97397C14.9723 5.3684 15.0324 3.65997 14.9803 3.17872L14.9522 2.91002L14.7677 2.8258C14.6635 2.78169 13.1355 2.18815 11.3709 1.50237C9.60634 0.820598 8.02624 0.207005 7.86181 0.138828C7.69738 0.0746617 7.54499 0.0104951 7.52093 0.00247432C7.50087 -0.0055465 7.44874 0.00648473 7.40864 0.0305472ZM10.7894 2.3245L14.0178 3.57976L14.0298 3.84044C14.0659 4.54627 13.8614 6.27075 13.6127 7.32548C13.2999 8.66496 12.6783 10.1288 11.9725 11.1915C10.9218 12.7716 9.69858 13.8464 7.93801 14.7287L7.50087 14.9453L7.06374 14.7287C5.88869 14.1352 5.0064 13.5055 4.22437 12.6874C3.04531 11.4522 2.26729 10.1127 1.66974 8.30001C1.44115 7.61022 1.32484 7.11293 1.16042 6.14241C1.04412 5.45262 1.03208 5.29622 1.02807 4.47809L1.02406 3.57976L4.21234 2.32851C5.96489 1.63872 7.43671 1.07325 7.48082 1.07325C7.52494 1.06924 9.01681 1.63471 10.7894 2.3245Z" fill="#5ED3F0"/>
<path d="M8.50283 7.30547C7.412 8.3963 6.50565 9.2826 6.4896 9.27859C6.47356 9.27458 6.01638 8.82942 5.47096 8.29203L4.4844 7.31349L4.14352 7.65437L3.80664 7.99125L5.15013 9.33474L6.49763 10.6782L8.84372 8.33213L11.1938 5.98604L10.861 5.65318C10.6805 5.4687 10.5201 5.32031 10.508 5.32433C10.496 5.32433 9.59366 6.21865 8.50283 7.30547Z" fill="#5ED3F0"/>
</svg>
