<svg width="30" height="31" viewBox="0 0 30 31" fill="none" xmlns="http://www.w3.org/2000/svg">
<g clip-path="url(#clip0_0_2692)">
<path d="M15 30.5C23.2843 30.5 30 23.7843 30 15.5C30 7.21573 23.2843 0.5 15 0.5C6.71573 0.5 0 7.21573 0 15.5C0 23.7843 6.71573 30.5 15 30.5Z" fill="#057BC1"/>
<path d="M15 4.25C8.78719 4.25 3.75 9.28719 3.75 15.5C3.75 21.7128 8.78719 26.75 15 26.75C21.2128 26.75 26.25 21.7128 26.25 15.5C26.25 12.5163 25.0647 9.65483 22.955 7.54505C20.8452 5.43526 17.9837 4.25 15 4.25ZM18.915 19.7441H18.4575V22.3053H16.92V19.7441H14.5791V18.7925H16.9575V17.0731C15.7226 17.7613 14.2853 17.9942 12.8962 17.7312C12.1275 17.5484 11.3597 17.1284 10.9575 16.4328C10.5754 15.7527 10.3855 14.9814 10.4081 14.2016V10.1403H11.9634V14.3478C12 15.2619 12.585 16.1769 13.4822 16.4516C14.6621 16.7225 15.901 16.5256 16.9388 15.9022C16.9388 14.6216 16.92 12.7016 16.9388 10.1403H18.5119V18.7934H18.915V19.7441Z" fill="white"/>
</g>
<defs>
<clipPath id="clip0_0_2692">
<rect width="30" height="30" fill="white" transform="translate(0 0.5)"/>
</clipPath>
</defs>
</svg>
