<svg width="30" height="31" viewBox="0 0 30 31" fill="none" xmlns="http://www.w3.org/2000/svg">
<g clip-path="url(#clip0_0_2868)">
<path d="M15 30.5C23.2843 30.5 30 23.7843 30 15.5C30 7.21573 23.2843 0.5 15 0.5C6.71573 0.5 0 7.21573 0 15.5C0 23.7843 6.71573 30.5 15 30.5Z" fill="#7324F0"/>
<path d="M25.9453 13.1206V12.6875C25.2351 12.6889 24.5516 12.9586 24.0318 13.4426C23.5119 13.9266 23.1942 14.5892 23.1422 15.2975C23.092 14.5901 22.7761 13.9279 22.2579 13.4438C21.7397 12.9597 21.0576 12.6895 20.3484 12.6875V13.1206C20.9795 13.1206 21.5847 13.3713 22.0309 13.8175C22.4771 14.2637 22.7278 14.869 22.7278 15.5C22.7287 15.8127 22.6677 16.1225 22.5485 16.4116C22.4292 16.7006 22.254 16.9633 22.0328 17.1844C21.8117 17.4055 21.5491 17.5808 21.26 17.7C20.9709 17.8193 20.6611 17.8802 20.3484 17.8794V18.3125C21.0587 18.3111 21.7422 18.0414 22.262 17.5574C22.7818 17.0734 23.0995 16.4108 23.1516 15.7025C23.2021 16.4114 23.5194 17.0748 24.0395 17.5591C24.5596 18.0434 25.244 18.3126 25.9547 18.3125V17.8794C25.3238 17.8791 24.7188 17.6283 24.2728 17.1821C23.8268 16.7359 23.5763 16.1309 23.5763 15.5C23.5753 15.1881 23.6358 14.8791 23.7544 14.5907C23.873 14.3022 24.0473 14.04 24.2673 13.819C24.4874 13.598 24.7488 13.4225 25.0368 13.3027C25.3247 13.1829 25.6334 13.121 25.9453 13.1206ZM10.9153 18.3125V17.99L10.9059 15.5H10.4906V18.3125H10.9153ZM16.5403 12.6875C14.9906 12.6875 13.7278 13.9513 13.7278 15.5C13.7278 17.0487 14.9906 18.3125 16.5403 18.3125C17.2862 18.3125 18.0016 18.0162 18.5291 17.4887C19.0565 16.9613 19.3528 16.2459 19.3528 15.5C19.3528 14.7541 19.0565 14.0387 18.5291 13.5113C18.0016 12.9838 17.2862 12.6875 16.5403 12.6875ZM16.5403 17.8794C16.2239 17.8857 15.9095 17.8288 15.6154 17.712C15.3212 17.5953 15.0534 17.4211 14.8274 17.1996C14.6014 16.978 14.4219 16.7137 14.2994 16.4219C14.1768 16.1302 14.1137 15.8169 14.1137 15.5005C14.1137 15.184 14.1768 14.8708 14.2994 14.579C14.4219 14.2873 14.6014 14.0229 14.8274 13.8014C15.0534 13.5799 15.3212 13.4056 15.6154 13.2889C15.9095 13.1722 16.2239 13.1153 16.5403 13.1216C17.171 13.1218 17.7759 13.3725 18.2218 13.8185C18.6678 14.2645 18.9185 14.8693 18.9188 15.5C18.9196 15.8126 18.8587 16.1223 18.7395 16.4114C18.6203 16.7004 18.4451 16.963 18.2241 17.1841C18.0031 17.4052 17.7406 17.5804 17.4516 17.6997C17.1626 17.8191 16.8529 17.8801 16.5403 17.8794ZM8.94188 12.6875C7.39219 12.6875 6.12938 13.9513 6.12938 15.5C6.12789 16.1306 5.87673 16.7349 5.43083 17.1808C4.98493 17.6267 4.38059 17.8779 3.75 17.8794V18.3125C5.29875 18.3125 6.5625 17.0487 6.5625 15.5C6.56399 14.8694 6.81515 14.2651 7.26104 13.8192C7.70694 13.3733 8.31128 13.1221 8.94188 13.1206H12.5559V12.6875H8.94188Z" fill="white"/>
</g>
<defs>
<clipPath id="clip0_0_2868">
<rect width="30" height="30" fill="white" transform="translate(0 0.5)"/>
</clipPath>
</defs>
</svg>
