<svg width="20" height="20" viewBox="0 0 20 20" fill="none" xmlns="http://www.w3.org/2000/svg">
<path d="M9.44922 0.013347C8.56851 0.0834035 7.62274 0.258545 6.97222 0.468715C3.88472 1.45951 1.46777 3.87647 0.476973 6.96396C0.131694 8.03983 0.0216056 8.92054 0.0166016 10.6519C0.0166016 12.028 0.0216056 12.0931 0.121686 12.2282C0.176731 12.3033 0.316844 12.3983 0.426933 12.4384C0.602074 12.5034 0.657119 12.5034 0.817248 12.4384C0.922333 12.3983 1.05244 12.3033 1.11249 12.2282C1.21257 12.0931 1.21757 12.003 1.2526 10.5769C1.28763 8.98059 1.33767 8.51521 1.57286 7.6395C2.00821 6.0282 3.1091 4.31682 4.37012 3.28599C5.16076 2.64047 6.36673 1.96993 7.23743 1.6897C9.44421 0.979127 11.8612 1.14426 13.8227 2.13506C15.319 2.89067 16.3848 3.80641 17.1955 5.0324C18.1112 6.41351 18.5566 7.65952 18.7067 9.21578C18.7868 10.0715 18.7717 15.701 18.6867 16.0513C18.5766 16.5317 18.2663 16.962 17.831 17.2373C17.4557 17.4774 17.2605 17.4975 15.374 17.4975H13.6226L13.5175 17.2823C13.2623 16.7669 12.7819 16.4166 12.1514 16.2965C11.8111 16.2314 9.44421 16.2314 9.09393 16.2965C8.17819 16.4666 7.53267 17.2172 7.53267 18.123C7.53267 18.9987 8.13816 19.7443 8.98384 19.9244C9.38917 20.0095 11.7311 20.0295 12.1514 19.9494C12.7769 19.8293 13.2673 19.4791 13.5125 18.9787L13.6176 18.7585L15.4991 18.7335C16.7351 18.7185 17.4657 18.6884 17.6308 18.6484C18.4865 18.4432 19.2822 17.8077 19.6475 17.0421C19.9877 16.3315 19.9827 16.4016 19.9827 12.6185C19.9827 9.06065 19.9777 8.94056 19.7475 7.83967C19.4673 6.46356 18.8268 5.09745 17.906 3.88647C16.55 2.11504 14.4583 0.758949 12.3416 0.283565C11.4358 0.0783995 10.1348 -0.0416975 9.44922 0.013347ZM12.1764 17.5775C12.5968 17.7777 12.5968 18.4682 12.1764 18.6684C11.9312 18.7885 9.31911 18.7885 9.07391 18.6684C8.65858 18.4733 8.65358 17.7827 9.06391 17.5775C9.3041 17.4624 11.9312 17.4574 12.1764 17.5775Z" fill="white"/>
<path d="M5.34541 7.51944C4.84501 7.5945 4.56478 7.67957 4.19948 7.84971C3.41385 8.22501 2.77834 9.03567 2.58318 9.91638C2.49311 10.3267 2.49311 12.1582 2.58318 12.5685C2.78334 13.4542 3.41385 14.2599 4.20949 14.6402C4.75994 14.9054 5.0902 14.9655 5.92087 14.9705C6.59642 14.9705 6.63145 14.9655 6.85163 14.8353C6.98173 14.7603 7.14186 14.6302 7.21192 14.5451C7.47213 14.2399 7.47213 14.2299 7.47213 11.1924V8.36513L7.33201 8.12493C7.15687 7.82469 6.86664 7.61452 6.54138 7.54446C6.30619 7.49442 5.62063 7.47941 5.34541 7.51944ZM6.24614 11.2475V13.7595L5.73573 13.7345C5.45049 13.7194 5.12023 13.6744 5.00013 13.6294C4.49973 13.4492 4.08439 13.0439 3.87923 12.5335C3.73411 12.1632 3.69408 10.672 3.81417 10.1866C4.05437 9.25084 4.74993 8.75044 5.83581 8.74543L6.24614 8.74043V11.2475Z" fill="white"/>
<path d="M13.3875 7.55948C13.0723 7.64454 12.8071 7.86973 12.6519 8.16997L12.5268 8.41016L12.5118 11.0873C12.5018 12.8788 12.5168 13.8496 12.5519 14.0247C12.6219 14.36 12.8321 14.6502 13.1373 14.8303C13.3725 14.9655 13.3975 14.9705 14.0781 14.9705C14.4634 14.9705 14.9138 14.9404 15.0789 14.9004C15.9546 14.7102 16.7703 14.0797 17.1456 13.2891C17.2557 13.0589 17.3758 12.7337 17.4158 12.5685C17.5059 12.1582 17.5059 10.3267 17.4158 9.91638C17.2206 9.03567 16.5851 8.22501 15.7995 7.84971C15.5693 7.73962 15.254 7.62453 15.1039 7.5895C14.6686 7.49943 13.6678 7.47941 13.3875 7.55948ZM15.0439 8.88054C15.5493 9.0757 15.9546 9.49103 16.1448 9.99644C16.2499 10.2867 16.2899 11.7729 16.2048 12.2132C16.0147 13.179 15.2641 13.7395 14.1432 13.7445H13.7528V11.2374V8.72542L14.2683 8.75044C14.6135 8.77045 14.8637 8.81049 15.0439 8.88054Z" fill="white"/>
</svg>
