<svg width="30" height="31" viewBox="0 0 30 31" fill="none" xmlns="http://www.w3.org/2000/svg">
<g clip-path="url(#clip0_0_2660)">
<path d="M15 30.5C23.2843 30.5 30 23.7843 30 15.5C30 7.21573 23.2843 0.5 15 0.5C6.71573 0.5 0 7.21573 0 15.5C0 23.7843 6.71573 30.5 15 30.5Z" fill="#EF0027"/>
<path d="M20.0925 9.5525L6.5625 7.0625L13.6828 24.98L23.6044 12.8919L20.0925 9.5525ZM19.875 10.6494L21.945 12.6172L16.2844 13.6419L19.875 10.6494ZM15.0544 13.4366L9.08812 8.48844L18.84 10.2828L15.0544 13.4366ZM14.6297 14.3122L13.6566 22.3559L8.41125 9.15313L14.6297 14.3113V14.3122ZM15.5297 14.7387L21.7987 13.6044L14.6081 22.3634L15.5297 14.7387Z" fill="white"/>
</g>
<defs>
<clipPath id="clip0_0_2660">
<rect width="30" height="30" fill="white" transform="translate(0 0.5)"/>
</clipPath>
</defs>
</svg>
