<svg width="30" height="31" viewBox="0 0 30 31" fill="none" xmlns="http://www.w3.org/2000/svg">
<g clip-path="url(#clip0_0_2356)">
<path d="M15 30.5C23.2843 30.5 30 23.7843 30 15.5C30 7.21573 23.2843 0.5 15 0.5C6.71573 0.5 0 7.21573 0 15.5C0 23.7843 6.71573 30.5 15 30.5Z" fill="#2B2E7F"/>
<path d="M16.3603 18.5309V13.0372H17.0822C19.4681 13.0372 20.0559 10.8125 20.0559 10.8125H13.7906C10.8169 10.8125 10.3125 13.0381 10.3125 13.0381H14.0091V21.3041C14.0091 21.3041 16.3603 20.5981 16.3603 18.5309Z" fill="white"/>
<path d="M22.4888 22.8106C24.5963 20.6206 25.4044 17.5794 24.6459 14.6703C24.2457 13.1481 23.4425 11.762 22.3209 10.6578C22.2197 10.5584 22.1184 10.4572 22.0003 10.3578L21.8991 10.2575C21.8303 10.1912 21.757 10.1298 21.6797 10.0738L21.5447 9.97344L21.3431 9.82344L21.2241 9.73906C21.1436 9.68637 21.0651 9.6307 20.9888 9.57219L20.8359 9.47281C20.7729 9.42699 20.7054 9.38772 20.6344 9.35563L20.4825 9.25531C20.415 9.22156 20.3475 9.17094 20.28 9.13813L20.1281 9.05375C20.0606 9.02094 19.9931 8.98719 19.9088 8.95438L19.8572 8.9375C20.0428 9.0875 20.2275 9.25531 20.3963 9.42219C21.1654 10.1848 21.7759 11.0922 22.1925 12.092C22.6092 13.0918 22.8237 14.1642 22.8237 15.2473C22.8237 16.3305 22.6092 17.4029 22.1925 18.4027C21.7759 19.4025 21.1654 20.3099 20.3963 21.0725C16.2844 25.1506 9.61031 25.1506 5.49656 21.0725C5.34469 20.9225 5.20969 20.7725 5.05875 20.6225L4.94063 20.4884C4.85229 20.3857 4.76786 20.2797 4.6875 20.1706C5.21628 21.2076 5.90467 22.1551 6.7275 22.9784C11.025 27.2403 18.0019 27.2403 22.2994 22.9784C22.3743 22.937 22.439 22.8793 22.4888 22.8097V22.8106Z" fill="white"/>
<path d="M9.73926 21.4862C9.5517 21.3332 9.3715 21.1715 9.19926 21.0015C8.42932 20.2382 7.81818 19.3299 7.40112 18.3291C6.98405 17.3284 6.76933 16.2549 6.76933 15.1707C6.76933 14.0865 6.98405 13.013 7.40112 12.0123C7.81818 11.0115 8.42932 10.1032 9.19926 9.33992C13.3158 5.25805 19.9955 5.25805 24.1121 9.33992C24.399 9.62492 24.668 9.92586 24.9211 10.2437C24.3918 9.21101 23.703 8.2682 22.8802 7.44992C18.579 3.18336 11.5946 3.18336 7.29333 7.44992C7.2427 7.49961 7.19208 7.56711 7.12458 7.6168C4.27364 10.5952 3.88551 15.0455 6.16364 18.4252C7.05801 19.7284 8.30489 20.8159 9.73926 21.4862Z" fill="white"/>
</g>
<defs>
<clipPath id="clip0_0_2356">
<rect width="30" height="30" fill="white" transform="translate(0 0.5)"/>
</clipPath>
</defs>
</svg>
