<svg width="30" height="31" viewBox="0 0 30 31" fill="none" xmlns="http://www.w3.org/2000/svg">
<g clip-path="url(#clip0_0_3060)">
<path d="M15 30.5C23.2843 30.5 30 23.7843 30 15.5C30 7.21573 23.2843 0.5 15 0.5C6.71573 0.5 0 7.21573 0 15.5C0 23.7843 6.71573 30.5 15 30.5Z" fill="#FF007A"/>
<path d="M11.4803 5.26546C11.2131 5.22421 11.2018 5.21858 11.3275 5.19983C11.5684 5.16233 12.1384 5.21389 12.5312 5.30671C13.4472 5.52514 14.2806 6.08296 15.1712 7.07389L15.4075 7.33639L15.745 7.28296C17.17 7.05327 18.6203 7.23608 19.8325 7.79577C20.1662 7.94952 20.6922 8.25608 20.7578 8.33577C20.7793 8.36014 20.8178 8.52233 20.8431 8.69483C20.9331 9.29202 20.8881 9.74952 20.7062 10.0917C20.6068 10.2773 20.6012 10.3355 20.6678 10.4948C20.6994 10.5607 20.7488 10.6163 20.8105 10.6554C20.8721 10.6945 20.9435 10.7155 21.0165 10.7161C21.3184 10.7161 21.6428 10.2286 21.7928 9.55077L21.8528 9.28171L21.9709 9.41577C22.6197 10.1508 23.1287 11.153 23.2159 11.8655L23.2393 12.052L23.1297 11.8833C22.9422 11.5926 22.7547 11.3939 22.5128 11.2336C22.0778 10.9458 21.6175 10.8483 20.3987 10.7836C19.2981 10.7255 18.6747 10.6317 18.0578 10.4301C17.0068 10.088 16.4772 9.63139 15.2284 7.99358C14.6743 7.26608 14.3312 6.86389 13.9909 6.54046C13.2156 5.80358 12.4543 5.41733 11.4803 5.26546Z" fill="white"/>
<path d="M21.0725 7.43937C21.1007 6.95187 21.1663 6.63031 21.2994 6.33687C21.3519 6.22062 21.4016 6.125 21.4091 6.125C21.4007 6.19081 21.3834 6.25516 21.3575 6.31625C21.261 6.60125 21.245 6.99125 21.3116 7.44406C21.396 8.01969 21.4447 8.10219 22.0522 8.72375C22.3382 9.01531 22.67 9.38281 22.79 9.54125L23.0085 9.82812L22.79 9.62281C22.5229 9.3725 21.9079 8.88219 21.7719 8.81281C21.681 8.76594 21.6669 8.76688 21.6107 8.82219C21.5591 8.87469 21.5479 8.95156 21.5413 9.31812C21.53 9.88812 21.4522 10.2556 21.2638 10.6212C21.1625 10.8181 21.1466 10.7769 21.2385 10.5528C21.3069 10.3859 21.3135 10.3128 21.3135 9.76062C21.3135 8.65062 21.1813 8.38438 20.4079 7.92688C20.1751 7.79183 19.9361 7.66794 19.6916 7.55562C19.5708 7.50717 19.4536 7.45015 19.341 7.385C19.3625 7.36344 20.1163 7.58281 20.4191 7.7C20.871 7.87344 20.945 7.89594 21.0004 7.87437C21.0369 7.86031 21.0547 7.75344 21.0725 7.43937ZM12.066 9.33781C11.5232 8.59062 11.1875 7.44406 11.2597 6.58719L11.2822 6.32188L11.406 6.34437C11.6385 6.38656 12.0388 6.53562 12.2263 6.65C12.74 6.96219 12.9632 7.37375 13.1891 8.42937C13.2557 8.73875 13.3429 9.08844 13.3832 9.2075C13.4469 9.39781 13.6907 9.84312 13.8894 10.1328C14.0319 10.3409 13.9363 10.4394 13.6213 10.4112C13.1394 10.3672 12.4869 9.91719 12.066 9.33781ZM20.4144 14.9019C17.8766 13.88 16.9832 12.9931 16.9832 11.4969C16.9832 11.2766 16.9907 11.0966 16.9991 11.0966C17.0085 11.0966 17.1069 11.1687 17.2175 11.2578C17.7322 11.6703 18.3088 11.8466 19.9035 12.0791C20.8419 12.2169 21.3707 12.3275 21.8582 12.4887C23.4069 13.0025 24.365 14.045 24.5938 15.4644C24.6594 15.8769 24.621 16.6503 24.5132 17.0581C24.4288 17.3806 24.1691 17.9609 24.1007 17.9834C24.0819 17.9891 24.0632 17.9169 24.0575 17.8166C24.0313 17.2841 23.7622 16.7647 23.3094 16.3756C22.7947 15.9341 22.1038 15.5816 20.4135 14.9019H20.4144ZM18.6332 15.3256C18.6032 15.1445 18.5622 14.9655 18.5104 14.7894L18.4447 14.5962L18.5657 14.7312C18.7316 14.9187 18.8638 15.1569 18.9744 15.4756C19.0597 15.7184 19.0691 15.7906 19.0682 16.1853C19.0682 16.5734 19.0579 16.6541 18.9791 16.8734C18.8696 17.1951 18.6863 17.4866 18.4438 17.7247C17.9797 18.1972 17.3844 18.4578 16.5238 18.5666C16.3738 18.5853 15.9388 18.6172 15.5554 18.6369C14.5897 18.6875 13.955 18.7906 13.3841 18.9912C13.3326 19.0143 13.2773 19.0277 13.221 19.0306C13.1985 19.0072 13.5866 18.7756 13.9082 18.6209C14.361 18.4025 14.811 18.2834 15.8207 18.1156C16.3194 18.0322 16.835 17.9319 16.9654 17.8916C18.201 17.5128 18.8357 16.5359 18.6322 15.3256H18.6332Z" fill="white"/>
<path d="M19.1869 17.7041C18.8494 16.9794 18.7725 16.2791 18.9572 15.6266C18.9769 15.5572 19.0087 15.5 19.0275 15.5C19.091 15.523 19.1507 15.5552 19.2047 15.5956C19.3603 15.7006 19.6716 15.8769 20.5013 16.3287C21.5372 16.8941 22.1278 17.3319 22.53 17.8306C22.8816 18.2684 23.0991 18.7672 23.2041 19.3747C23.2631 19.7188 23.2284 20.5466 23.1403 20.8934C22.8619 21.9866 22.2141 22.8453 21.2916 23.3459C21.2045 23.3963 21.1143 23.4411 21.0216 23.48C21.0084 23.48 21.0572 23.3553 21.1313 23.2016C21.4406 22.5528 21.4772 21.9209 21.2419 21.2178C21.0984 20.7875 20.805 20.2616 20.2134 19.3747C19.5253 18.3434 19.3566 18.0678 19.1869 17.7041ZM9.65531 21.6144C10.5975 20.8194 11.7684 20.255 12.8363 20.0816C13.2956 20.0066 14.0625 20.0366 14.4881 20.1453C15.1706 20.3197 15.7819 20.7116 16.0997 21.1775C16.4091 21.6331 16.5431 22.0306 16.6809 22.9137C16.7372 23.2625 16.7962 23.6122 16.8141 23.6919C16.9172 24.1494 17.1206 24.5159 17.3719 24.6997C17.7703 24.9912 18.4575 25.0091 19.1325 24.7466C19.203 24.7142 19.2774 24.6909 19.3538 24.6772C19.3781 24.7016 19.0387 24.9294 18.7987 25.0494C18.5155 25.2009 18.1984 25.2777 17.8772 25.2725C17.2584 25.2725 16.7447 24.9584 16.3162 24.3162C16.2319 24.1897 16.0425 23.8119 15.8944 23.4753C15.4425 22.4441 15.2194 22.1291 14.6944 21.785C14.2359 21.485 13.6463 21.4316 13.2028 21.6491C12.6197 21.935 12.4575 22.6803 12.8747 23.1519C13.0406 23.3394 13.35 23.5016 13.6031 23.5325C13.7135 23.5471 13.8258 23.5379 13.9324 23.5054C14.0389 23.4729 14.1372 23.4179 14.2207 23.3441C14.3041 23.2704 14.3708 23.1795 14.4161 23.0778C14.4614 22.976 14.4844 22.8658 14.4834 22.7544C14.4834 22.4431 14.3634 22.2669 14.0634 22.1309C13.6538 21.9462 13.2131 22.1619 13.215 22.5472C13.2159 22.7112 13.2872 22.8144 13.4522 22.8894C13.5581 22.9362 13.56 22.9409 13.4737 22.9231C13.0978 22.8444 13.0097 22.3916 13.3125 22.0906C13.6753 21.7287 14.4262 21.8881 14.6841 22.3812C14.7928 22.5884 14.805 23.0019 14.7103 23.2512C14.4994 23.8091 13.8825 24.1016 13.2572 23.9422C12.8316 23.8334 12.6581 23.7162 12.1453 23.1875C11.2537 22.2687 10.9078 22.0906 9.62156 21.89L9.375 21.8516L9.65625 21.6144H9.65531Z" fill="white"/>
<path fill-rule="evenodd" clip-rule="evenodd" d="M5.625 3.46625L5.715 3.57594C9.19125 7.83219 10.9875 10.0409 11.1019 10.1984C11.2894 10.4591 11.2191 10.6925 10.8966 10.8762C10.7175 10.9784 10.3481 11.0816 10.1644 11.0816C9.95531 11.0816 9.72 10.9812 9.54844 10.8191C9.4275 10.7037 8.93906 9.97437 7.81125 8.22406C7.28311 7.39681 6.74809 6.57397 6.20625 5.75562C6.16031 5.7125 6.16125 5.71344 7.72312 8.50812C8.70375 10.2631 9.03562 10.8828 9.03562 10.9662C9.03562 11.135 8.98875 11.2231 8.78063 11.4556C8.43375 11.8428 8.27906 12.2778 8.16656 13.1778C8.04094 14.1875 7.68844 14.9 6.70969 16.1197C6.13781 16.8341 6.04406 16.9653 5.89875 17.2531C5.71687 17.615 5.66719 17.8184 5.64656 18.2759C5.625 18.7597 5.66719 19.0728 5.81531 19.535C5.94469 19.94 6.07969 20.2081 6.42469 20.7425C6.72281 21.2047 6.89438 21.5478 6.89438 21.6819C6.89438 21.7887 6.915 21.7887 7.37719 21.6847C8.4825 21.4353 9.37969 20.9956 9.885 20.4575C10.1972 20.1247 10.2703 19.9409 10.2731 19.4844C10.2741 19.1862 10.2638 19.1234 10.1831 18.9519C10.0519 18.6725 9.81281 18.44 9.28594 18.08C8.595 17.6075 8.30063 17.2269 8.21906 16.7047C8.15156 16.2762 8.22938 15.9734 8.61188 15.1728C9.00656 14.3441 9.105 13.9916 9.17156 13.1562C9.21375 12.6162 9.27281 12.4034 9.42844 12.2328C9.58969 12.0547 9.73594 11.9937 10.1363 11.9394C10.7888 11.8503 11.2041 11.6816 11.5453 11.3675C11.8416 11.0937 11.9653 10.8303 11.9841 10.4347L11.9991 10.1347L11.8331 9.94156C11.595 9.66406 9.62531 7.49094 5.92312 3.42031L5.82375 3.3125L5.625 3.46719V3.46625ZM7.23187 18.8244C7.29728 18.7086 7.31681 18.5724 7.2866 18.4429C7.25639 18.3134 7.17864 18.1999 7.06875 18.125C6.855 17.9825 6.52219 18.05 6.52219 18.2356C6.52219 18.2919 6.55313 18.3331 6.62344 18.3697C6.7425 18.4306 6.75094 18.5 6.65812 18.6397C6.56344 18.7822 6.57094 18.9078 6.67969 18.9931C6.85406 19.13 7.10156 19.0541 7.23281 18.8244H7.23187ZM12.4106 12.0969C12.1041 12.1906 11.8069 12.5159 11.7141 12.8562C11.6578 13.0634 11.6897 13.4281 11.7741 13.5406C11.91 13.7225 12.0422 13.7703 12.3984 13.7675C13.0959 13.7628 13.7016 13.4637 13.7728 13.0897C13.8309 12.7831 13.5638 12.3584 13.1972 12.1709C13.0078 12.0753 12.6056 12.0369 12.4106 12.0969ZM13.2263 12.7344C13.3341 12.5816 13.2863 12.4156 13.1044 12.305C12.7556 12.0922 12.2288 12.2675 12.2288 12.5975C12.2288 12.7606 12.5034 12.9397 12.7547 12.9397C12.9234 12.9397 13.1522 12.8394 13.2263 12.7344Z" fill="white"/>
</g>
<defs>
<clipPath id="clip0_0_3060">
<rect width="30" height="30" fill="white" transform="translate(0 0.5)"/>
</clipPath>
</defs>
</svg>
