<svg width="30" height="31" viewBox="0 0 30 31" fill="none" xmlns="http://www.w3.org/2000/svg">
<g clip-path="url(#clip0_0_2260)">
<path d="M15 30.5C23.2843 30.5 30 23.7843 30 15.5C30 7.21573 23.2843 0.5 15 0.5C6.71573 0.5 0 7.21573 0 15.5C0 23.7843 6.71573 30.5 15 30.5Z" fill="#26A17B"/>
<path fill-rule="evenodd" clip-rule="evenodd" d="M16.5206 16.9662V16.9644C16.4175 16.9719 15.8859 17.0037 14.7 17.0037C13.7531 17.0037 13.0866 16.9756 12.8522 16.9644V16.9672C9.20719 16.8069 6.48656 16.1722 6.48656 15.4128C6.48656 14.6544 9.20719 14.0197 12.8522 13.8566V16.3353C13.0903 16.3522 13.7728 16.3925 14.7159 16.3925C15.8475 16.3925 16.4147 16.3456 16.5206 16.3362V13.8584C20.1581 14.0206 22.8722 14.6553 22.8722 15.4128C22.8722 16.1722 20.1581 16.805 16.5206 16.9662ZM16.5206 13.6006V11.3825H21.5962V8H7.77656V11.3825H12.8522V13.5997C8.72719 13.7891 5.625 14.6066 5.625 15.5853C5.625 16.5641 8.72719 17.3806 12.8522 17.5709V24.6791H16.5206V17.5691C20.6391 17.3797 23.7337 16.5631 23.7337 15.5853C23.7337 14.6075 20.6391 13.7909 16.5206 13.6006Z" fill="white"/>
</g>
<defs>
<clipPath id="clip0_0_2260">
<rect width="30" height="30" fill="white" transform="translate(0 0.5)"/>
</clipPath>
</defs>
</svg>
