<svg width="30" height="31" viewBox="0 0 30 31" fill="none" xmlns="http://www.w3.org/2000/svg">
<g clip-path="url(#clip0_0_2308)">
<path d="M15 30.5C23.2843 30.5 30 23.7843 30 15.5C30 7.21573 23.2843 0.5 15 0.5C6.71573 0.5 0 7.21573 0 15.5C0 23.7843 6.71573 30.5 15 30.5Z" fill="#23292F"/>
<path d="M21.6281 8H24.3375L18.6984 13.5847C17.7125 14.5561 16.384 15.1006 15 15.1006C13.616 15.1006 12.2875 14.5561 11.3016 13.5847L5.65781 8H8.37188L12.6562 12.2403C13.2802 12.8561 14.1215 13.2014 14.9981 13.2014C15.8748 13.2014 16.7161 12.8561 17.34 12.2403L21.6281 8ZM8.33906 23.5278H5.625L11.3016 17.9094C12.2875 16.938 13.616 16.3935 15 16.3935C16.384 16.3935 17.7125 16.938 18.6984 17.9094L24.375 23.5269H21.6609L17.3438 19.25C16.7198 18.6342 15.8785 18.2889 15.0019 18.2889C14.1253 18.2889 13.2839 18.6342 12.66 19.25L8.33812 23.5278H8.33906Z" fill="white"/>
</g>
<defs>
<clipPath id="clip0_0_2308">
<rect width="30" height="30" fill="white" transform="translate(0 0.5)"/>
</clipPath>
</defs>
</svg>
